<svg width="14" height="14" viewBox="0 0 14 14" fill="none" xmlns="http://www.w3.org/2000/svg">
<path d="M7.00001 11.6667C6.07703 11.6667 5.17477 11.3929 4.40734 10.8802C3.63991 10.3674 3.04179 9.63844 2.68858 8.78572C2.33537 7.933 2.24296 6.99495 2.42302 6.08971C2.60309 5.18447 3.04756 4.35282 3.7002 3.70018C4.35285 3.04754 5.18435 2.60307 6.0896 2.42301C6.99484 2.24294 7.93313 2.33526 8.78585 2.68847C9.63857 3.04167 10.3674 3.63989 10.8802 4.40732C11.393 5.17475 11.6667 6.07705 11.6667 7.00003C11.6654 8.23732 11.1734 9.42346 10.2985 10.2984C9.42359 11.1733 8.23731 11.6654 7.00001 11.6667ZM7.00001 0.77783C5.76937 0.77783 4.56636 1.14268 3.54312 1.82638C2.51988 2.51009 1.72237 3.48189 1.25142 4.61885C0.780477 5.75581 0.657292 7.00679 0.897378 8.21378C1.13746 9.42077 1.73004 10.5295 2.60024 11.3997C3.47043 12.2699 4.57912 12.8625 5.78611 13.1026C6.9931 13.3427 8.24418 13.2196 9.38114 12.7486C10.5181 12.2777 11.4899 11.48 12.1736 10.4567C12.8573 9.43349 13.2222 8.23066 13.2222 7.00003C13.2204 5.35037 12.5642 3.76875 11.3977 2.60226C10.2313 1.43577 8.64968 0.779682 7.00001 0.77783ZM7.00001 14C5.61554 14 4.26217 13.5896 3.11103 12.8204C1.95989 12.0513 1.06266 10.958 0.532842 9.67895C0.00302966 8.39987 -0.135589 6.99223 0.134507 5.63436C0.404603 4.2765 1.07131 3.02941 2.05028 2.05045C3.02924 1.07148 4.27653 0.40459 5.63439 0.134495C6.99226 -0.135601 8.39971 0.00306484 9.67879 0.532876C10.9579 1.06269 12.0511 1.96001 12.8203 3.11115C13.5894 4.26229 14 5.61556 14 7.00003C13.9979 8.8559 13.2598 10.635 11.9475 11.9473C10.6352 13.2596 8.85589 13.9979 7.00001 14Z" fill="#028193"/>
</svg>
