<svg width="360" height="251" viewBox="0 0 360 251" fill="none" xmlns="http://www.w3.org/2000/svg">
<path d="M1.87695 237.319H359.192" stroke="black" stroke-width="1.06289" stroke-linecap="round" stroke-linejoin="round"/>
<path d="M36.6317 82.6528C46.3597 82.6528 54.2458 74.7667 54.2458 65.0387C54.2458 55.3107 46.3597 47.4246 36.6317 47.4246C26.9037 47.4246 19.0176 55.3107 19.0176 65.0387C19.0176 74.7667 26.9037 82.6528 36.6317 82.6528Z" stroke="#CCCCCC" stroke-width="1.06289" stroke-linecap="round" stroke-linejoin="round"/>
<path d="M40.2091 80.2046C48.5834 78.2281 53.7698 69.8371 51.7933 61.4629C49.8168 53.0886 41.4258 47.9022 33.0516 49.8787C24.6773 51.8552 19.4909 60.2462 21.4674 68.6204C23.4439 76.9947 31.8349 82.1811 40.2091 80.2046Z" stroke="#CCCCCC" stroke-width="1.06289" stroke-linecap="round" stroke-linejoin="round"/>
<path d="M36.6328 66.5275C37.4547 66.5275 38.121 65.8612 38.121 65.0393C38.121 64.2173 37.4547 63.551 36.6328 63.551C35.8108 63.551 35.1445 64.2173 35.1445 65.0393C35.1445 65.8612 35.8108 66.5275 36.6328 66.5275Z" fill="#CCCCCC" stroke="#CCCCCC" stroke-width="1.06289" stroke-linecap="round" stroke-linejoin="round"/>
<path d="M42.0539 67.6877L36.6317 65.0391L27.5879 74.9207" stroke="#CCCCCC" stroke-width="1.06289" stroke-linecap="round" stroke-linejoin="round"/>
<path d="M350.677 46.8318H306.676V101.646H350.677V46.8318Z" stroke="#CCCCCC" stroke-width="1.06289" stroke-linecap="round" stroke-linejoin="round"/>
<path d="M349.246 48.627H308.117V99.8615H349.246V48.627Z" stroke="#CCCCCC" stroke-width="1.06289" stroke-linecap="round" stroke-linejoin="round"/>
<path d="M337.138 63.7068H320.227V84.7709H337.138V63.7068Z" stroke="#CCCCCC" stroke-width="1.06289" stroke-linecap="round" stroke-linejoin="round"/>
<path d="M183.512 17.2084V0.754639" stroke="#9CC9F2" stroke-width="1.06289" stroke-linecap="round" stroke-linejoin="round"/>
<path d="M197.1 26.0078H169.932L178.08 15.6787H188.951L197.1 26.0078Z" fill="white"/>
<path d="M331.547 17.2084V0.754639" stroke="#9CC9F2" stroke-width="1.06289" stroke-linecap="round" stroke-linejoin="round"/>
<path d="M345.129 26.0078H317.961L326.11 15.6787H336.98L345.129 26.0078Z" fill="white"/>
<path d="M35.4785 17.2084V0.754639" stroke="#9CC9F2" stroke-width="1.06289" stroke-linecap="round" stroke-linejoin="round"/>
<path d="M49.0664 26.0078H21.8984L30.0473 15.6787H40.9123L49.0664 26.0078Z" fill="white"/>
<path d="M31.4586 164.027C31.4667 164.018 31.4711 164.006 31.4711 163.993C31.4711 163.981 31.4667 163.969 31.4586 163.96C31.4462 163.954 31.4321 163.954 31.4195 163.959C31.4069 163.964 31.3966 163.973 31.391 163.986C29.9081 167.548 28.7347 171.232 27.8837 174.996C27.023 178.761 26.375 182.571 25.9428 186.408L25.667 189.291C25.6254 189.774 25.5734 190.253 25.5421 190.737L25.4589 192.184C25.4172 193.146 25.36 194.114 25.334 195.082V197.981L25.3652 199.427C25.3652 199.911 25.4224 200.395 25.4537 200.874C25.5265 201.836 25.5838 202.804 25.6722 203.762C25.8595 205.687 26.1457 207.597 26.4476 209.486C26.4488 209.497 26.4543 209.508 26.463 209.515C26.4716 209.523 26.4828 209.527 26.4944 209.527C26.5014 209.528 26.5085 209.527 26.5152 209.525C26.5219 209.523 26.528 209.519 26.533 209.514C26.538 209.509 26.5418 209.503 26.5442 209.496C26.5465 209.489 26.5473 209.482 26.5464 209.475C26.5464 208.507 26.4996 207.545 26.4788 206.582C26.458 205.619 26.3695 204.667 26.3799 203.704C26.3903 202.742 26.3799 201.79 26.3487 200.827V199.391V197.955V195.082L26.4267 192.21L26.458 190.774C26.458 190.295 26.5152 189.816 26.5412 189.343L26.7129 186.47C27.042 182.649 27.5857 178.85 28.3417 175.09C29.0599 171.319 30.1028 167.618 31.4586 164.027Z" fill="black"/>
<path d="M31.8695 179.049C31.8719 179.043 31.873 179.036 31.8728 179.03C31.8725 179.023 31.8708 179.017 31.8679 179.011C31.8649 179.005 31.8607 179 31.8557 178.996C31.8506 178.991 31.8446 178.988 31.8383 178.987C31.8322 178.984 31.8256 178.983 31.819 178.983C31.8124 178.984 31.806 178.985 31.8001 178.988C31.7942 178.991 31.789 178.995 31.7848 179.001C31.7806 179.006 31.7776 179.012 31.7758 179.018C30.1341 183.81 29.043 188.773 28.5236 193.812C28.2686 196.325 28.0032 198.838 27.9512 201.367C27.8879 203.898 27.9783 206.43 28.2218 208.949C28.2229 208.96 28.2277 208.97 28.2352 208.977C28.2428 208.985 28.2528 208.989 28.2634 208.991C28.27 208.992 28.2767 208.992 28.2833 208.991C28.2899 208.989 28.2961 208.987 28.3015 208.983C28.307 208.979 28.3115 208.974 28.3148 208.968C28.3181 208.962 28.3201 208.956 28.3207 208.949C28.6121 206.43 28.7942 203.922 28.9659 201.409C29.1376 198.896 29.1688 196.387 29.3301 193.879C29.4865 191.374 29.7836 188.879 30.22 186.407C30.6349 183.926 31.1856 181.47 31.8695 179.049Z" fill="black"/>
<path d="M40.1993 184.331C40.1891 184.322 40.1762 184.318 40.1629 184.318C40.1496 184.318 40.1367 184.322 40.1265 184.331C38.0447 185.67 36.1691 187.306 34.5586 189.186C33.7508 190.133 33.0233 191.146 32.3835 192.214L31.936 193.026L31.5822 193.906C31.4638 194.196 31.363 194.493 31.2804 194.795C31.1867 195.092 31.0878 195.394 31.0098 195.69C30.37 198.093 29.9828 200.555 29.8546 203.038C29.733 205.508 29.8253 207.983 30.1304 210.437C30.1333 210.448 30.1393 210.458 30.1476 210.465C30.1559 210.473 30.1662 210.477 30.1772 210.479C30.1842 210.481 30.1914 210.481 30.1984 210.479C30.2053 210.477 30.2118 210.474 30.2173 210.47C30.2228 210.465 30.2272 210.459 30.2302 210.453C30.2332 210.446 30.2346 210.439 30.2345 210.432L30.8693 203.111C31.0365 200.693 31.3405 198.287 31.7799 195.904C31.8476 195.607 31.9308 195.321 32.0037 195.03C32.0746 194.737 32.1615 194.449 32.2639 194.166L32.5605 193.323L32.9403 192.521C33.5209 191.458 34.1892 190.445 34.9385 189.493C36.4249 187.551 38.1866 185.837 40.1681 184.404C40.1817 184.398 40.1926 184.387 40.1984 184.374C40.2042 184.36 40.2045 184.345 40.1993 184.331Z" fill="black"/>
<path d="M36.167 193.739C35.0853 194.53 34.215 195.576 33.6328 196.783C33.0255 197.971 32.5509 199.222 32.2174 200.514C32.1186 200.832 32.0405 201.154 31.9677 201.482L31.7387 202.455C31.6185 203.109 31.5368 203.769 31.4941 204.432C31.4941 205.098 31.4941 205.759 31.4941 206.425C31.5447 207.089 31.6315 207.749 31.7543 208.403C31.7577 208.412 31.7632 208.421 31.7704 208.428C31.7776 208.436 31.7863 208.441 31.7959 208.444C31.8096 208.446 31.8235 208.443 31.8349 208.435C31.8464 208.428 31.8547 208.416 31.8584 208.403C32.0114 207.761 32.1278 207.111 32.207 206.457C32.3111 205.811 32.41 205.171 32.488 204.526C32.5661 203.881 32.665 203.251 32.717 202.611C32.769 201.971 32.8523 201.326 32.9928 200.696C33.216 199.428 33.5808 198.189 34.0803 197.002C34.5261 195.79 35.2538 194.702 36.2034 193.827C36.2114 193.818 36.2159 193.806 36.2159 193.794C36.2159 193.781 36.2114 193.769 36.2034 193.76C36.1991 193.754 36.1936 193.749 36.1874 193.746C36.1811 193.742 36.1741 193.74 36.167 193.739Z" fill="black"/>
<path d="M24.4935 201.076C24.2177 197.824 23.6817 194.608 23.177 191.392C22.6722 188.176 22.105 184.966 21.517 181.765C20.929 178.565 20.2734 175.375 19.5813 172.191C19.5779 172.18 19.5712 172.171 19.5624 172.165C19.5535 172.158 19.5428 172.155 19.5319 172.155C19.5209 172.155 19.5102 172.158 19.5013 172.165C19.4925 172.171 19.4858 172.18 19.4824 172.191C20.0392 175.396 20.5231 178.612 21.0435 181.828C21.5639 185.044 21.9905 188.259 22.3964 191.486C22.8023 194.712 23.1041 197.943 23.51 201.164L24.6964 210.843C24.6997 210.855 24.7064 210.865 24.7157 210.872C24.7251 210.88 24.7365 210.884 24.7484 210.885C24.7611 210.884 24.773 210.879 24.7825 210.87C24.7919 210.862 24.7982 210.85 24.8005 210.838C24.8369 210.021 24.8369 209.204 24.8577 208.387C24.8785 207.57 24.8265 206.758 24.8109 205.941C24.7484 204.328 24.608 202.705 24.4935 201.076Z" fill="black"/>
<path d="M22.5373 201.029C22.3656 199.744 22.1262 198.464 21.8817 197.189L21.4237 195.29C21.2728 194.655 21.1323 194.02 20.9502 193.396C20.3016 190.874 19.4703 188.403 18.4629 186.001L18.0726 185.106L17.6407 184.232C17.3649 183.644 17.0319 183.082 16.7145 182.515C16.0779 181.372 15.2883 180.322 14.3677 179.393C14.3583 179.385 14.3463 179.38 14.3339 179.38C14.3214 179.38 14.3095 179.385 14.3 179.393C14.2905 179.403 14.2852 179.416 14.2852 179.429C14.2852 179.443 14.2905 179.456 14.3 179.466C15.1533 180.425 15.8743 181.494 16.4439 182.645C16.7249 183.223 17.0267 183.795 17.2661 184.388L17.6511 185.273L17.9894 186.178C18.8894 188.587 19.6128 191.059 20.1541 193.573C20.4507 194.827 20.6744 196.102 20.8878 197.361L21.1948 199.265C21.3041 199.9 21.4394 200.53 21.5278 201.165C21.7308 202.44 21.9649 203.704 22.1887 204.979C22.4124 206.254 22.6154 207.523 22.8859 208.798C22.8884 208.81 22.8949 208.821 22.9044 208.829C22.9139 208.836 22.9258 208.84 22.938 208.84C22.9441 208.84 22.9502 208.839 22.9559 208.836C22.9616 208.834 22.9667 208.831 22.9711 208.826C22.9754 208.822 22.9789 208.817 22.9812 208.811C22.9836 208.805 22.9848 208.799 22.9848 208.793C22.9848 207.492 22.9553 206.193 22.8964 204.896C22.8235 203.616 22.6726 202.325 22.5373 201.029Z" fill="black"/>
<path d="M19.8478 201.196C19.2442 199.489 18.5469 197.818 17.7663 196.185C16.9961 194.55 16.1273 192.963 15.1646 191.434C15.1547 191.426 15.1429 191.423 15.1307 191.423C15.1186 191.423 15.1067 191.426 15.0969 191.434C15.0874 191.443 15.082 191.456 15.082 191.47C15.082 191.484 15.0874 191.497 15.0969 191.507C15.9321 193.091 16.6706 194.724 17.3084 196.398C17.9693 198.063 18.5625 199.749 19.062 201.466C19.5616 203.183 19.931 204.921 20.389 206.644C20.8469 208.366 21.258 210.099 21.7835 211.847C21.7867 211.857 21.7929 211.866 21.8012 211.873C21.8096 211.879 21.8198 211.883 21.8303 211.884C21.8369 211.884 21.8436 211.884 21.8499 211.882C21.8562 211.88 21.862 211.876 21.8669 211.872C21.8718 211.868 21.8757 211.862 21.8784 211.856C21.8811 211.85 21.8824 211.844 21.8824 211.837C21.8994 210.02 21.725 208.206 21.362 206.425C20.999 204.644 20.4926 202.895 19.8478 201.196Z" fill="black"/>
<path d="M19.7383 206.878C19.4024 205.816 18.9208 204.805 18.3073 203.875C17.7328 202.919 17.0328 202.044 16.2259 201.274C15.8113 200.916 15.3674 200.594 14.8989 200.311C14.4346 200.01 13.9277 199.78 13.3951 199.629C13.3886 199.627 13.3817 199.626 13.3748 199.626C13.3679 199.626 13.3611 199.628 13.3548 199.631C13.3421 199.637 13.3323 199.647 13.3275 199.66C13.3226 199.674 13.3232 199.688 13.3291 199.701C13.3349 199.713 13.3456 199.723 13.3587 199.728C14.3177 200.189 15.1674 200.849 15.8512 201.664C16.5437 202.46 17.1265 203.346 17.584 204.297C18.1044 205.228 18.3333 206.259 18.7652 207.221C18.9525 207.716 19.1399 208.215 19.3584 208.704C19.549 209.216 19.7714 209.714 20.0245 210.198C20.0289 210.207 20.0356 210.214 20.0438 210.219C20.052 210.225 20.0615 210.228 20.0713 210.229C20.0781 210.229 20.0849 210.228 20.0912 210.225C20.0975 210.222 20.1033 210.219 20.1081 210.214C20.1129 210.209 20.1168 210.203 20.1194 210.197C20.122 210.19 20.1233 210.184 20.1233 210.177C20.1416 209.623 20.1208 209.068 20.0609 208.517C19.9829 207.96 19.8684 207.419 19.7383 206.878Z" fill="black"/>
<path d="M19.936 176.848C18.3122 176.394 16.8433 175.505 15.6878 174.277C14.5323 173.049 13.7341 171.529 13.3794 169.881C12.1514 164.157 16.1113 166.603 12.5625 157.585C9.01362 148.567 9.83059 146.522 11.0586 143.925C12.2867 141.329 12.9683 142.151 14.0611 145.564C15.1539 148.978 19.119 154.306 20.6176 164.297C22.1163 174.288 19.936 176.848 19.936 176.848Z" fill="#4285F4"/>
<path d="M30.4559 167.149C30.4559 167.149 26.9019 165.921 26.7666 159.224C26.6313 152.527 29.3684 153.901 29.769 145.564C30.1697 137.228 30.7265 131.359 32.2303 131.223C33.7342 131.088 37.6941 135.319 39.0626 144.633C40.4312 153.947 37.2882 160.072 34.5563 162.804C31.8245 165.536 30.4559 167.149 30.4559 167.149Z" fill="#4285F4"/>
<path d="M18.0291 184.908C18.0291 184.908 17.2121 180.017 15.5678 177.665C13.9235 175.313 10.3642 173.294 8.05382 168.788C5.74342 164.281 3.13643 162.096 3.27692 168.512C3.41742 174.928 6.27939 178.211 9.83344 180.397C13.3875 182.582 18.0291 184.908 18.0291 184.908Z" fill="#4285F4"/>
<path d="M16.523 193.375C16.523 193.375 13.2447 187.095 8.4626 182.448C3.68051 177.801 -0.144131 175.48 1.22441 177.801C2.59296 180.122 4.22688 179.992 6.55289 184.087C8.87889 188.182 8.19201 191.19 11.4703 193.511C14.7485 195.831 16.523 193.375 16.523 193.375Z" fill="#4285F4"/>
<path d="M16.1136 201.436C15.9783 201.025 15.843 198.022 11.1962 195.561C6.54944 193.099 2.18363 194.057 2.73 195.29C3.27638 196.523 6.14356 198.568 9.01073 199.796C11.8779 201.025 16.1136 201.436 16.1136 201.436Z" fill="#4285F4"/>
<path d="M30.1825 185.18C30.1825 185.18 28.1323 182.578 29.225 177.119C30.3178 171.661 32.7791 173.024 35.5109 170.152C38.2428 167.279 37.6965 166.873 40.4283 163.871C43.1602 160.869 45.6319 159.224 46.7091 160.457C47.7862 161.691 46.1887 165.51 44.5236 167.696C42.8584 169.881 40.293 170.974 39.0598 173.706C37.8265 176.438 38.3781 180.809 35.2352 182.859C32.0922 184.909 30.1825 185.18 30.1825 185.18Z" fill="#4285F4"/>
<path d="M37.0156 186.683C37.0156 186.683 41.933 181.084 45.4819 176.983C49.0307 172.883 50.3992 169.745 50.5345 172.477C50.6698 175.209 51.7678 177.394 48.8954 180.943C46.023 184.492 37.0156 186.683 37.0156 186.683Z" fill="#4285F4"/>
<path d="M34.4181 195.695C34.4181 195.695 34.2828 193.51 42.0674 188.457C49.852 183.404 53.1302 182.447 52.3133 184.497C51.4963 186.547 48.0775 188.592 44.3882 192.303C40.6989 196.013 34.4181 195.695 34.4181 195.695Z" fill="#4285F4"/>
<path d="M20.2659 176.266C20.2659 176.266 18.4342 166.488 16.5245 159.5C14.6148 152.511 13.4023 148.296 13.4023 148.296" stroke="black" stroke-width="0.531447" stroke-linecap="round" stroke-linejoin="round"/>
<path d="M30.1406 167.253C30.1406 167.253 33.4605 156.632 34.5533 150.211C35.646 143.79 34.418 139.008 33.8716 136.161" stroke="black" stroke-width="0.531447" stroke-linecap="round" stroke-linejoin="round"/>
<path d="M17.5941 184.7C16.1219 182.172 14.4387 179.774 12.5622 177.53C9.55458 173.976 7.23378 172.066 5.86523 168.652" stroke="black" stroke-width="0.531447" stroke-linecap="round" stroke-linejoin="round"/>
<path d="M30.1836 185.179C30.1836 185.179 31.2763 178.623 33.8729 175.209C36.4695 171.796 41.6783 166.467 43.7077 163.048" stroke="black" stroke-width="0.531447" stroke-linecap="round" stroke-linejoin="round"/>
<path d="M15.789 201.284C15.789 201.284 11.1943 198.292 7.91602 196.653" stroke="black" stroke-width="0.531447" stroke-linecap="round" stroke-linejoin="round"/>
<path d="M32.2247 237.319H19.3614L16.6035 206.779H34.9826L32.2247 237.319Z" fill="#44E3C7" stroke="black" stroke-width="1.06289" stroke-linecap="round" stroke-linejoin="round"/>
<path d="M241.837 51.8223H113.121V140.127H241.837V51.8223Z" fill="black" stroke="black" stroke-width="1.06289" stroke-linecap="round" stroke-linejoin="round"/>
<path d="M239.797 53.9509H115.166V137.994H239.797V53.9509Z" fill="white" stroke="black" stroke-width="1.06289" stroke-linecap="round" stroke-linejoin="round"/>
<path d="M178.114 75.2383H159.797V89.9228H178.114V75.2383Z" fill="#4285F4"/>
<path d="M197.059 90.1624H178.742V104.847H197.059V90.1624Z" fill="#4285F4"/>
<path d="M178.114 119.532H159.797V134.216H178.114V119.532Z" fill="#4285F4"/>
<path d="M216.25 60.7876H197.934V75.4721H216.25V60.7876Z" fill="#4285F4"/>
<path d="M121.738 62.9219V134.221" stroke="black" stroke-width="1.06289" stroke-linecap="round" stroke-linejoin="round"/>
<path d="M140.607 62.9219V134.221" stroke="black" stroke-width="1.06289" stroke-linecap="round" stroke-linejoin="round"/>
<path d="M159.479 62.9219V134.221" stroke="black" stroke-width="1.06289" stroke-linecap="round" stroke-linejoin="round"/>
<path d="M178.348 62.9219V134.221" stroke="black" stroke-width="1.06289" stroke-linecap="round" stroke-linejoin="round"/>
<path d="M197.223 62.9219V134.221" stroke="black" stroke-width="1.06289" stroke-linecap="round" stroke-linejoin="round"/>
<path d="M216.09 62.9219V134.221" stroke="black" stroke-width="1.06289" stroke-linecap="round" stroke-linejoin="round"/>
<path d="M234.963 62.9219V134.221" stroke="black" stroke-width="1.06289" stroke-linecap="round" stroke-linejoin="round"/>
<path d="M122.211 75.2383H235.202" stroke="black" stroke-width="1.06289" stroke-linecap="round" stroke-linejoin="round"/>
<path d="M122.211 89.9229H235.202" stroke="black" stroke-width="1.06289" stroke-linecap="round" stroke-linejoin="round"/>
<path d="M122.211 104.613H235.202" stroke="black" stroke-width="1.06289" stroke-linecap="round" stroke-linejoin="round"/>
<path d="M122.211 119.297H235.202" stroke="black" stroke-width="1.06289" stroke-linecap="round" stroke-linejoin="round"/>
<path d="M162.477 77.845H173.846" stroke="white" stroke-width="1.06289" stroke-linecap="round" stroke-linejoin="round"/>
<path d="M162.477 79.7395H173.846" stroke="white" stroke-width="1.06289" stroke-linecap="round" stroke-linejoin="round"/>
<path d="M162.477 81.6333H173.846" stroke="white" stroke-width="1.06289" stroke-linecap="round" stroke-linejoin="round"/>
<path d="M162.477 83.5278H173.846" stroke="white" stroke-width="1.06289" stroke-linecap="round" stroke-linejoin="round"/>
<path d="M162.477 85.4214H173.846" stroke="white" stroke-width="1.06289" stroke-linecap="round" stroke-linejoin="round"/>
<path d="M182.377 93.7166H193.747" stroke="white" stroke-width="1.06289" stroke-linecap="round" stroke-linejoin="round"/>
<path d="M182.377 95.6104H193.747" stroke="white" stroke-width="1.06289" stroke-linecap="round" stroke-linejoin="round"/>
<path d="M182.377 97.5049H193.747" stroke="white" stroke-width="1.06289" stroke-linecap="round" stroke-linejoin="round"/>
<path d="M182.377 99.3984H193.747" stroke="white" stroke-width="1.06289" stroke-linecap="round" stroke-linejoin="round"/>
<path d="M182.377 101.293H193.747" stroke="white" stroke-width="1.06289" stroke-linecap="round" stroke-linejoin="round"/>
<path d="M162.951 122.851H174.321" stroke="black" stroke-width="1.06289" stroke-linecap="round" stroke-linejoin="round"/>
<path d="M162.951 124.745H174.321" stroke="white" stroke-width="1.06289" stroke-linecap="round" stroke-linejoin="round"/>
<path d="M162.951 126.639H174.321" stroke="white" stroke-width="1.06289" stroke-linecap="round" stroke-linejoin="round"/>
<path d="M162.951 128.533H174.321" stroke="white" stroke-width="1.06289" stroke-linecap="round" stroke-linejoin="round"/>
<path d="M162.951 130.428H174.321" stroke="white" stroke-width="1.06289" stroke-linecap="round" stroke-linejoin="round"/>
<path d="M200.615 64.8154H211.985" stroke="white" stroke-width="1.06289" stroke-linecap="round" stroke-linejoin="round"/>
<path d="M200.615 66.71H211.985" stroke="white" stroke-width="1.06289" stroke-linecap="round" stroke-linejoin="round"/>
<path d="M200.615 68.6035H211.985" stroke="white" stroke-width="1.06289" stroke-linecap="round" stroke-linejoin="round"/>
<path d="M200.615 70.498H211.985" stroke="white" stroke-width="1.06289" stroke-linecap="round" stroke-linejoin="round"/>
<path d="M200.615 72.3975H211.985" stroke="white" stroke-width="1.06289" stroke-linecap="round" stroke-linejoin="round"/>
<path d="M330.887 183.889H336.439V174.028H330.887V183.889Z" fill="#CCCCCC" stroke="#CCCCCC" stroke-width="1.06289" stroke-linecap="round" stroke-linejoin="round"/>
<path d="M328.392 177.031H339.793C344.284 177.031 347.926 173.389 347.926 168.897V142.838C347.926 138.346 344.284 134.705 339.793 134.705H328.392C323.9 134.705 320.258 138.346 320.258 142.838V168.897C320.258 173.389 323.9 177.031 328.392 177.031Z" fill="#44E3C7" stroke="#CCCCCC" stroke-width="1.06289" stroke-linecap="round" stroke-linejoin="round"/>
<path d="M342.391 235.556C342.39 235.09 342.527 234.635 342.785 234.247C343.043 233.859 343.41 233.557 343.84 233.379C344.27 233.2 344.743 233.153 345.2 233.243C345.657 233.334 346.077 233.558 346.406 233.887C346.735 234.217 346.959 234.636 347.05 235.093C347.14 235.55 347.093 236.023 346.915 236.453C346.736 236.883 346.434 237.25 346.046 237.508C345.659 237.766 345.203 237.904 344.737 237.903C344.115 237.903 343.518 237.655 343.078 237.215C342.638 236.775 342.391 236.178 342.391 235.556Z" fill="#CCCCCC" stroke="#CCCCCC" stroke-width="1.06289" stroke-linecap="round" stroke-linejoin="round"/>
<path d="M296.488 235.556C296.487 235.09 296.624 234.635 296.882 234.247C297.141 233.859 297.508 233.557 297.938 233.379C298.368 233.2 298.841 233.153 299.298 233.243C299.755 233.334 300.174 233.558 300.503 233.887C300.833 234.217 301.057 234.636 301.147 235.093C301.238 235.55 301.191 236.023 301.012 236.453C300.834 236.883 300.531 237.25 300.144 237.508C299.756 237.766 299.301 237.904 298.835 237.903C298.213 237.903 297.616 237.655 297.176 237.215C296.736 236.775 296.488 236.178 296.488 235.556Z" fill="#CCCCCC" stroke="#CCCCCC" stroke-width="1.06289" stroke-linecap="round" stroke-linejoin="round"/>
<path d="M320.645 235.555C320.645 234.255 321.134 233.203 321.737 233.203C322.341 233.203 322.83 234.244 322.83 235.555C322.83 236.867 322.341 237.902 321.737 237.902C321.134 237.902 320.645 236.851 320.645 235.555Z" fill="#CCCCCC" stroke="#CCCCCC" stroke-width="1.06289" stroke-linecap="round" stroke-linejoin="round"/>
<path d="M319.598 222.802V189.124H324.208V222.942L346.969 231.944V234.203H343.659V232.288L321.732 227.766L299.798 232.288V234.203H296.494V231.944L319.598 222.802Z" fill="#CCCCCC" stroke="#CCCCCC" stroke-width="1.06289" stroke-linecap="round" stroke-linejoin="round"/>
<path d="M322.891 234.197H320.58L320.086 223.264H323.385L322.891 234.197Z" fill="#CCCCCC" stroke="#CCCCCC" stroke-width="1.06289" stroke-linecap="round" stroke-linejoin="round"/>
<path d="M316.05 194.806H327.773V187.844H316.05V194.806Z" fill="#CCCCCC" stroke="#CCCCCC" stroke-width="1.06289" stroke-linecap="round" stroke-linejoin="round"/>
<path d="M304.464 190.404H340.452C342.15 190.404 343.527 189.027 343.527 187.328V184.503C343.527 182.804 342.15 181.427 340.452 181.427H304.464C302.766 181.427 301.389 182.804 301.389 184.503V187.328C301.389 189.027 302.766 190.404 304.464 190.404Z" fill="#44E3C7" stroke="#CCCCCC" stroke-width="1.06289" stroke-linecap="round" stroke-linejoin="round"/>
<path d="M286.611 226.143C285.268 227.995 283.579 229.57 281.636 230.779C278.696 232.47 274.18 233.152 274.18 234.052C274.18 234.952 274.518 236.54 277.905 236.992C281.293 237.445 295.988 237.669 297.908 237.216C299.828 236.763 298.023 227.272 298.023 227.272C298.023 227.272 289.093 227.725 286.611 226.143Z" fill="white" stroke="black" stroke-width="1.06289" stroke-linecap="round" stroke-linejoin="round"/>
<path d="M277.911 236.992C281.304 237.445 295.994 237.669 297.914 237.216C298.403 237.102 298.653 236.399 298.747 235.41C294.651 235.54 286.664 235.66 281.871 235.41C275.429 235.072 274.186 234.052 274.186 234.052C274.18 234.958 274.519 236.54 277.911 236.992Z" fill="white" stroke="black" stroke-width="1.06289" stroke-linecap="round" stroke-linejoin="round"/>
<path d="M276.438 137.776C276.438 137.776 277.343 151.112 278.134 156.763C278.925 162.415 281.865 185.461 283.785 191.451C285.705 197.44 287.74 223.192 287.74 223.192C287.74 223.192 285.591 223.983 285.705 224.884C285.82 225.784 285.929 227.147 285.929 227.147C285.929 227.147 290.336 229.52 292.938 229.52C295.54 229.52 298.813 228.412 298.813 228.412C298.813 228.412 298.136 218.353 297.772 210.444C297.408 202.534 294.161 168.857 294.161 168.857L293.521 135.293L276.438 137.776Z" fill="#44E3C7" stroke="black" stroke-width="1.06289" stroke-linecap="round" stroke-linejoin="round"/>
<path d="M295.536 228.631C295.536 228.631 295.765 230.78 290.114 232.7C284.463 234.62 283.786 236.655 284.463 238.351C285.139 240.048 296.894 240.042 301.301 239.366C305.709 238.689 307.967 238.46 308.305 237.56C308.644 236.66 307.4 229.755 307.4 229.755L295.536 228.631Z" fill="white" stroke="black" stroke-width="1.06289" stroke-linecap="round" stroke-linejoin="round"/>
<path d="M308.305 237.56C308.379 237.16 308.389 236.751 308.336 236.347C306.775 236.634 304.694 237.024 301.977 237.56C295.941 238.731 287.98 238.039 284.285 237.601C284.316 237.859 284.381 238.111 284.478 238.351C285.154 240.042 296.909 240.042 301.316 239.365C305.724 238.689 307.967 238.46 308.305 237.56Z" fill="white" stroke="black" stroke-width="1.06289" stroke-linecap="round" stroke-linejoin="round"/>
<path d="M280.512 141.054L283.79 145.009C283.79 145.009 286.272 172.354 287.178 179.477C288.083 186.601 292.381 212.021 292.381 212.021L295.082 225.581L294.405 227.272C294.236 228.017 294.236 228.791 294.405 229.536C294.52 229.989 294.291 230.327 298.568 231.003C301.418 231.397 304.309 231.397 307.159 231.003C307.533 229.99 307.723 228.919 307.721 227.84C307.777 226.362 307.664 224.883 307.383 223.432C307.045 221.626 307.383 212.021 304.901 201.738C302.419 191.456 300.603 179.587 300.603 175.632C300.603 171.677 300.717 148.511 300.832 148.053C300.946 147.595 303.09 146.128 303.205 141.949C303.319 137.771 302.752 136.184 302.752 136.184H280.73" fill="#44E3C7"/>
<path d="M280.512 141.054L283.79 145.009C283.79 145.009 286.272 172.354 287.178 179.477C288.083 186.601 292.381 212.021 292.381 212.021L295.082 225.581L294.405 227.272C294.236 228.017 294.236 228.791 294.405 229.536C294.52 229.989 294.291 230.327 298.568 231.003C301.418 231.397 304.309 231.397 307.159 231.003C307.533 229.99 307.723 228.919 307.721 227.84C307.777 226.362 307.664 224.883 307.383 223.432C307.045 221.626 307.383 212.021 304.901 201.738C302.419 191.456 300.603 179.587 300.603 175.632C300.603 171.677 300.717 148.511 300.832 148.053C300.946 147.595 303.09 146.128 303.205 141.949C303.319 137.771 302.752 136.184 302.752 136.184H280.73" stroke="black" stroke-width="1.06289" stroke-linecap="round" stroke-linejoin="round"/>
<path d="M280.394 85.1207C280.394 85.1207 275.31 97.8018 274.972 106.128C274.634 114.453 274.972 126.354 275.086 126.807C275.201 127.259 273.843 136.751 274.634 138.218C274.804 138.622 275.116 138.949 275.51 139.141C275.904 139.332 276.355 139.374 276.777 139.259C276.777 139.259 301.526 139.597 302.655 139.368C303.784 139.139 304.013 137.677 304.216 136.543C304.419 135.408 303.539 121.972 303.539 119.933C303.539 117.893 304.216 95.1844 301.39 88.8568C298.565 82.5293 291.561 77.3309 290.655 77.1071C289.75 76.8834 282.429 79.3551 280.394 85.1207Z" fill="#4285F4" stroke="black" stroke-width="1.06289" stroke-linecap="round" stroke-linejoin="round"/>
<path d="M268.024 60.2318C268.024 60.2318 267.16 64.3946 267.415 64.7277C267.67 65.0607 268.539 66.7154 268.539 66.7154L266.291 72.8557L268.976 73.631L272.78 80.2031L278.665 78.5484L280.398 86.4162C280.398 86.4162 280.138 89.2678 281.439 88.4977C282.74 87.7275 283.858 86.8533 286.366 82.5291C288.875 78.205 291.378 77.5181 291.378 77.5181C291.378 77.5181 288.255 73.3552 287.662 72.0699C287.069 70.7847 287.402 68.6148 286.366 63.3383C285.331 58.0619 281.782 56.9431 276.943 56.9431C272.103 56.9431 268.466 57.8954 268.024 60.2318Z" fill="white" stroke="black" stroke-width="1.06289" stroke-linecap="round" stroke-linejoin="round"/>
<path d="M270.454 55.3041C270.454 55.3041 266.561 56.1679 265.869 56.9485C265.177 57.729 266.218 60.1435 267.17 60.6638C268.122 61.1842 274.268 59.8156 274.169 60.2319C274.07 60.6482 273.128 61.793 274.169 62.2197C275.21 62.6464 279.373 63.7808 279.373 63.7808L278.332 71.7371C278.332 71.7371 273.232 71.4769 272.02 71.7371C270.807 71.9972 268.997 73.6364 268.997 73.6364C268.997 73.6364 271.229 80.4635 271.666 81.1503C272.103 81.8372 273.305 81.6707 274.689 81.1503C276.074 80.63 281.693 76.566 282.297 76.0456C282.901 75.5253 281.605 70.4258 281.605 70.4258C281.605 70.4258 281.777 66.19 281.777 65.3262C281.777 64.4624 282.901 64.4624 283.681 65.0661C284.462 65.6697 284.722 68.0061 284.545 68.8699C284.328 69.5357 283.94 70.1331 283.421 70.6027C283.421 70.6027 286.704 73.1056 287.397 73.1056C287.611 73.1251 287.826 73.0663 288.001 72.9401C288.176 72.8139 288.299 72.6288 288.349 72.4187C288.437 72.1585 288.26 64.7226 288.26 64.7226C288.26 64.7226 288.437 57.6353 287.485 55.3874C286.533 53.1394 282.037 52.5306 279.185 52.9625C276.334 53.3944 270.454 55.3041 270.454 55.3041Z" fill="black" stroke="black" stroke-width="1.06289" stroke-linecap="round" stroke-linejoin="round"/>
<path d="M271.146 67.0637C271.229 67.5372 271.088 67.9535 270.828 68.0003C270.568 68.0472 270.308 67.6985 270.209 67.2302C270.11 66.7619 270.272 66.3404 270.532 66.2988C270.792 66.2571 271.057 66.5798 271.146 67.0637Z" stroke="black" stroke-width="1.06289" stroke-linecap="round" stroke-linejoin="round"/>
<path d="M269.24 65.3318C269.547 64.9999 269.968 64.7973 270.419 64.7654C270.869 64.7335 271.315 64.8746 271.665 65.16" stroke="black" stroke-width="1.06289" stroke-linecap="round" stroke-linejoin="round"/>
<path d="M271.75 74.8437C271.75 74.8437 273.738 74.2349 274.352 72.856" stroke="white" stroke-width="1.06289" stroke-linecap="round" stroke-linejoin="round"/>
<path d="M294.971 113.933C294.971 113.933 290.111 135.518 289.659 136.647C289.206 137.776 287.275 142.298 287.275 142.298L292.588 146.929C292.588 146.929 293.379 145.686 294.056 142.766C294.477 140.869 294.741 138.941 294.847 137.001C294.847 137.001 302.532 120.62 303.771 118.356C305.009 116.093 304.114 114.402 304.114 113.84C304.114 113.278 294.971 113.933 294.971 113.933Z" fill="white" stroke="black" stroke-width="1.06289" stroke-linecap="round" stroke-linejoin="round"/>
<path d="M291.466 89.2992C291.466 89.2992 290.228 93.254 290.337 95.1741C290.446 97.0942 293.048 108.625 293.048 108.625C293.048 108.625 291.695 109.869 292.148 110.317C292.568 110.804 292.946 111.326 293.277 111.878C293.277 111.878 292.236 112.669 293.277 113.803C294.318 114.937 293.839 115.494 298.585 115.364C303.33 115.234 304.803 115.021 305.349 114.12C305.896 113.22 306.593 112.559 306.031 111.633L305.49 110.769C305.844 110.072 306 109.291 305.942 108.511C305.828 107.267 305.037 105.8 305.037 105.233C305.037 104.665 304.928 96.9849 303.476 90.9956C302.024 85.0063 295.795 81.728 294.661 81.6292" fill="#4285F4"/>
<path d="M291.466 89.2992C291.466 89.2992 290.228 93.254 290.337 95.1741C290.446 97.0942 293.048 108.625 293.048 108.625C293.048 108.625 291.695 109.869 292.148 110.317C292.568 110.804 292.946 111.326 293.277 111.878C293.277 111.878 292.236 112.669 293.277 113.803C294.318 114.937 293.839 115.494 298.585 115.364C303.33 115.234 304.803 115.021 305.349 114.12C305.896 113.22 306.593 112.559 306.031 111.633L305.49 110.769C305.844 110.072 306 109.291 305.942 108.511C305.828 107.267 305.037 105.8 305.037 105.233C305.037 104.665 304.928 96.9849 303.476 90.9956C302.024 85.0063 295.795 81.728 294.661 81.6292" stroke="black" stroke-width="1.06289" stroke-linecap="round" stroke-linejoin="round"/>
<path d="M224.883 146.262C224.883 146.262 225.065 153.35 225.065 153.615C225.065 153.881 224.175 158.933 224.617 161.327C225.06 163.72 228.609 166.999 228.609 166.999L228.962 145.664L224.883 146.262Z" fill="white" stroke="black" stroke-width="1.06289" stroke-linecap="round" stroke-linejoin="round"/>
<path d="M235.575 97.3847C235.575 97.3847 225.168 110.061 224.856 111.466C224.544 112.871 221.822 147.209 221.822 147.537C221.822 147.865 226.048 149.488 227.78 149.488H230.268C230.268 149.488 227.343 125.874 228.644 117.101C229.945 108.328 233.088 105.835 235.471 102.479C237.855 99.1227 237.844 96.5209 235.575 97.3847Z" fill="#4285F4" stroke="black" stroke-width="1.06289" stroke-linecap="round" stroke-linejoin="round"/>
<path d="M236.124 226.715C236.124 226.715 233.413 230.613 231.899 231.482C230.385 232.351 225.4 234.406 225.181 234.947C224.963 235.488 224.968 236.789 225.4 236.899C225.831 237.008 233.304 236.789 237.857 236.789C242.41 236.789 245.439 237.003 245.98 236.462C246.521 235.92 246.089 228.88 245.543 227.475L245.022 226.065L236.9 225.846L236.124 226.715Z" fill="black" stroke="black" stroke-width="1.06289" stroke-linecap="round" stroke-linejoin="round"/>
<path d="M246.171 235.81H225.039C225.039 236.331 225.133 236.851 225.398 236.898C225.83 237.002 233.302 236.789 237.855 236.789C242.409 236.789 245.437 237.002 245.978 236.461C246.096 236.264 246.162 236.04 246.171 235.81Z" fill="white" stroke="black" stroke-width="1.06289" stroke-linecap="round" stroke-linejoin="round"/>
<path d="M225.723 145.045L227.133 151.654C227.133 151.654 226.915 168.877 228.647 176.35C229.718 181.19 230.298 186.125 230.38 191.081C230.38 191.081 232.763 202.888 233.632 206.244C234.501 209.601 235.475 223.791 235.475 223.791C235.475 223.791 234.606 224.441 234.715 224.873C234.824 225.305 235.147 227.995 235.147 227.995C235.147 227.995 235.579 227.995 239.049 228.318C240.809 228.523 242.585 228.56 244.352 228.427L245.543 227.454C245.61 226.3 245.61 225.143 245.543 223.989C245.439 222.037 244.789 220.518 244.789 219.222C244.789 217.926 244.029 189.327 244.029 189.327L244.352 144.483L225.4 143.401L225.723 145.045Z" fill="white" stroke="black" stroke-width="1.06289" stroke-linecap="round" stroke-linejoin="round"/>
<path d="M246.733 226.497C246.208 227.786 245.556 229.02 244.787 230.181C243.808 231.482 239.802 233.756 238.178 234.62C237.699 234.896 237.299 235.29 237.015 235.765C236.731 236.239 236.573 236.778 236.555 237.331C236.555 237.331 240.234 237.44 252.368 237.003L257.572 236.79C257.631 235.777 257.594 234.761 257.463 233.756C257.249 232.132 257.031 228.032 257.031 228.032L246.733 226.497Z" fill="black" stroke="black" stroke-width="1.06289" stroke-linecap="round" stroke-linejoin="round"/>
<path d="M252.368 237.002L257.572 236.789C257.606 236.205 257.606 235.619 257.572 235.035L236.841 236.076C236.67 236.467 236.573 236.887 236.555 237.314C236.555 237.314 240.234 237.439 252.368 237.002Z" fill="white" stroke="black" stroke-width="1.06289" stroke-linecap="round" stroke-linejoin="round"/>
<path d="M232.642 152.735L236.758 156.742C236.758 156.742 238.387 172.353 240.01 181.548C241.634 190.742 245.859 214.476 245.859 216.412C245.859 218.347 246.723 223.348 246.723 223.348C246.723 223.348 246.4 223.452 246.291 224.212C246.182 224.972 246.171 227.891 246.171 227.891C247.784 228.648 249.501 229.158 251.266 229.405C253.286 229.512 255.312 229.478 257.328 229.301C257.531 228.189 257.677 227.067 257.765 225.939C257.765 225.076 257.437 221.282 257.656 219.768C257.874 218.254 259.389 210.558 258.957 202.112C258.525 193.667 255.923 180.559 255.923 180.559L256.787 161.493C257.817 158.055 258.184 154.453 257.869 150.878C257.349 145.029 256.032 142.755 256.032 142.755L230.686 142.864" fill="white"/>
<path d="M232.642 152.735L236.758 156.742C236.758 156.742 238.387 172.353 240.01 181.548C241.634 190.742 245.859 214.476 245.859 216.412C245.859 218.347 246.723 223.348 246.723 223.348C246.723 223.348 246.4 223.452 246.291 224.212C246.182 224.972 246.171 227.891 246.171 227.891C247.784 228.648 249.501 229.158 251.266 229.405C253.286 229.512 255.312 229.478 257.328 229.301C257.531 228.189 257.677 227.067 257.765 225.939C257.765 225.076 257.437 221.282 257.656 219.768C257.874 218.254 259.389 210.558 258.957 202.112C258.525 193.667 255.923 180.559 255.923 180.559L256.787 161.493C257.817 158.055 258.184 154.453 257.869 150.878C257.349 145.029 256.032 142.755 256.032 142.755L230.686 142.864" stroke="black" stroke-width="1.06289" stroke-linecap="round" stroke-linejoin="round"/>
<path d="M235.576 97.3846C235.576 97.3846 226.917 108.109 226.048 112.891C225.179 117.673 223.967 144.633 223.967 145.71C223.967 146.787 225.7 147.225 227.76 147.552C230.7 147.991 233.672 148.165 236.643 148.073C240.212 147.963 243.897 146.772 244.448 146.121C245 145.471 243.928 126.301 245.749 115.795C247.57 105.289 249.433 99.6638 248.351 97.5824C247.268 95.5009 239.26 95.1991 235.576 97.3846Z" fill="#44E3C7" stroke="#44E3C7" stroke-width="1.06289" stroke-linecap="round" stroke-linejoin="round"/>
<path d="M244.349 96.8436C244.349 96.8436 237.844 108.208 236.663 116.232C235.482 124.256 236.335 151.002 236.335 151.002C236.335 151.002 236.335 152.085 241.32 151.976C246.305 151.866 253.018 150.571 254.85 149.592C256.681 148.614 258.747 147.86 258.856 147.318C258.966 146.777 257.878 144.831 257.878 143.202C257.878 141.574 257.123 134.877 257.123 134.877C257.123 134.877 256.905 105.31 255.281 101.085C253.658 96.8592 247.273 95.652 244.349 96.8436Z" fill="#4285F4" stroke="black" stroke-width="1.06289" stroke-linecap="round" stroke-linejoin="round"/>
<path d="M228.537 76.5912C228.537 76.5912 227.673 80.0568 228.016 81.1391C228.308 82.0095 228.42 82.9301 228.344 83.845C228.235 84.2821 225.742 87.0972 226.263 87.6384C226.843 88.1505 227.459 88.6216 228.105 89.0486C228.105 89.0486 228.625 94.7725 229.624 95.1108C230.623 95.449 234.172 94.7881 234.172 94.7881C234.172 94.7881 235.364 99.2268 235.364 99.9917C235.364 100.757 231.68 108.874 233.74 108.224C235.801 107.573 244.028 95.6571 244.028 95.6571C244.028 95.6571 243.919 80.3846 241.535 76.4871C239.152 72.5896 232.008 73.2349 228.537 76.5912Z" fill="white" stroke="black" stroke-width="1.06289" stroke-linecap="round" stroke-linejoin="round"/>
<path d="M231.03 83.7936C231.03 84.3608 230.811 84.8344 230.546 84.8344C230.28 84.8344 230.057 84.3712 230.057 83.7936C230.057 83.216 230.275 82.7529 230.546 82.7529C230.816 82.7529 231.03 83.2317 231.03 83.7936Z" fill="black"/>
<path d="M229.404 81.5718C229.567 81.4257 229.761 81.3172 229.97 81.2538C230.18 81.1904 230.401 81.1738 230.618 81.205C230.835 81.2363 231.042 81.3147 231.225 81.4347C231.408 81.5547 231.563 81.7134 231.678 81.8996" stroke="black" stroke-width="1.06289" stroke-linecap="round" stroke-linejoin="round"/>
<path d="M229.625 89.9129C230.74 89.8217 231.815 89.4493 232.747 88.8306" stroke="black" stroke-width="1.06289" stroke-linecap="round" stroke-linejoin="round"/>
<path d="M232.438 68.6612C232.438 68.6612 227.131 70.7427 226.59 72.668C226.048 74.5933 225.611 76.8933 225.611 76.8933L230.378 77.8716L234.494 78.1942C234.494 78.1942 234.385 79.1673 235.576 81.4412C236.217 82.6388 236.795 83.8685 237.309 85.1254C237.309 85.1254 236.986 91.5154 236.664 93.3575C236.392 94.7161 236.029 96.0547 235.576 97.3642C235.576 97.3642 238.287 97.8846 243.267 98.4518C248.247 99.019 254.424 97.8013 254.424 97.8013C254.424 97.8013 255.724 95.6314 255.615 91.302C255.506 86.9727 253.451 80.796 253.232 78.2931C253.013 75.7901 253.669 74.0678 249.766 71.0341C245.864 68.0004 238.938 66.9493 232.438 68.6612Z" fill="black" stroke="black" stroke-width="1.06289" stroke-linecap="round" stroke-linejoin="round"/>
<path d="M222.845 132.983C222.571 132.985 222.298 132.966 222.028 132.926L222.272 131.365C222.793 131.443 223.969 131.437 224.328 130.927C224.817 130.23 224.432 126.364 223.938 125.724C223.75 125.505 222.86 125.505 222.22 125.656L221.861 124.132C222.246 124.043 224.213 123.648 225.124 124.709C226.035 125.771 226.581 130.433 225.603 131.838C224.931 132.806 223.683 132.983 222.845 132.983Z" fill="white" stroke="black" stroke-width="1.06289" stroke-linecap="round" stroke-linejoin="round"/>
<path d="M222.906 122.732H213.592V134.862H222.906V122.732Z" fill="white" stroke="black" stroke-width="1.06289" stroke-linecap="round" stroke-linejoin="round"/>
<path d="M247.273 103.672C247.273 103.672 245.436 107.788 245.327 109.843C245.218 111.898 247.601 125.901 247.601 125.901C247.601 125.901 239.796 127.847 237.636 127.847C236.441 127.857 235.247 127.786 234.061 127.634C234.061 127.634 231.137 125.683 230.268 125.142C229.399 124.6 228.754 124.923 227.239 123.731C225.725 122.54 224.528 122.436 224.419 123.086C224.31 123.737 224.315 124.168 225.397 124.71C226.093 125.068 226.746 125.504 227.344 126.011C227.344 126.011 224.742 126.531 223.987 126.661C223.233 126.791 223.014 127.847 223.467 128.394C223.92 128.94 224.659 129.689 224.659 129.689C224.659 129.689 224.549 132.291 225.959 132.812C227.37 133.332 231.267 133.244 231.267 133.244C231.267 133.244 235.383 133.571 236.034 133.571C236.684 133.571 244.916 135.627 250.765 135.627C256.614 135.627 258.347 135.955 258.669 134.654C258.992 133.353 258.451 114.183 257.368 108.334C256.286 102.485 253.793 99.2329 252.061 99.0195" fill="#4285F4"/>
<path d="M247.273 103.672C247.273 103.672 245.436 107.788 245.327 109.843C245.218 111.898 247.601 125.901 247.601 125.901C247.601 125.901 239.796 127.847 237.636 127.847C236.441 127.857 235.247 127.786 234.061 127.634C234.061 127.634 231.137 125.683 230.268 125.142C229.399 124.6 228.754 124.923 227.239 123.731C225.725 122.54 224.528 122.436 224.419 123.086C224.31 123.737 224.315 124.168 225.397 124.71C226.093 125.068 226.746 125.504 227.344 126.011C227.344 126.011 224.742 126.531 223.987 126.661C223.233 126.791 223.014 127.847 223.467 128.394C223.92 128.94 224.659 129.689 224.659 129.689C224.659 129.689 224.549 132.291 225.959 132.812C227.37 133.332 231.267 133.244 231.267 133.244C231.267 133.244 235.383 133.571 236.034 133.571C236.684 133.571 244.916 135.627 250.765 135.627C256.614 135.627 258.347 135.955 258.669 134.654C258.992 133.353 258.451 114.183 257.368 108.334C256.286 102.485 253.793 99.2329 252.061 99.0195" stroke="black" stroke-width="1.06289" stroke-linecap="round" stroke-linejoin="round"/>
<path d="M241.237 127.305C240.052 127.573 238.848 127.747 237.636 127.826C236.441 127.836 235.247 127.764 234.061 127.613C234.061 127.613 231.137 125.661 230.268 125.12C229.399 124.579 228.754 124.901 227.239 123.71C225.725 122.518 224.528 122.414 224.419 123.065C224.31 123.715 224.315 124.147 225.397 124.688C226.093 125.046 226.746 125.483 227.344 125.989C227.344 125.989 224.742 126.509 223.987 126.639C223.233 126.77 223.014 127.826 223.467 128.372C223.92 128.919 224.659 129.668 224.659 129.668C224.659 129.668 224.549 132.27 225.959 132.79C227.37 133.31 231.267 133.222 231.267 133.222C231.267 133.222 235.383 133.55 236.034 133.55C236.377 133.55 238.823 134.122 241.919 134.658C240.779 132.051 240.925 129.205 241.237 127.305Z" fill="white" stroke="black" stroke-width="1.06289" stroke-linecap="round" stroke-linejoin="round"/>
<path d="M117.427 229.123C117.017 231.415 116.317 233.646 115.346 235.763C113.785 239.077 113.686 240.326 117.214 240.841C120.742 241.357 122.501 240.529 123.229 238.666C123.958 236.803 124.27 232.339 124.473 231.303C124.676 230.268 121.892 227.047 117.427 229.123Z" fill="white" stroke="black" stroke-width="1.06289" stroke-linecap="round" stroke-linejoin="round"/>
<path d="M123.241 237.111C122.513 238.458 121.581 240.118 117.845 239.806C115.727 239.629 114.843 238.713 114.478 237.959C114 239.676 114.619 240.462 117.226 240.842C120.749 241.362 122.513 240.529 123.241 238.666C123.533 237.789 123.743 236.887 123.866 235.971C123.678 236.304 123.465 236.689 123.241 237.111Z" fill="white" stroke="black" stroke-width="1.06289" stroke-linecap="round" stroke-linejoin="round"/>
<path d="M146.781 228.191C148.418 229.645 150.272 230.834 152.276 231.714C155.596 233.166 158 233.999 158 234.722C157.88 235.453 157.634 236.157 157.272 236.803C154.974 237.441 152.605 237.791 150.221 237.844C146.693 237.844 143.789 237.532 141.198 237.428C138.607 237.324 135.594 237.636 135.391 235.773C135.188 233.91 135.594 230.377 135.594 230.377C135.594 230.377 144.7 227.567 146.781 228.191Z" fill="white" stroke="black" stroke-width="1.06289" stroke-linecap="round" stroke-linejoin="round"/>
<path d="M157.256 236.798C157.256 236.798 157.438 236.46 157.62 236.033C155.924 236.339 154.207 236.525 152.484 236.59C148.753 236.694 147.406 236.174 143.149 235.659C140.555 235.376 137.938 235.376 135.344 235.659C135.344 235.685 135.344 235.716 135.344 235.747C135.547 237.61 138.56 237.308 141.151 237.402C143.742 237.495 146.646 237.818 150.174 237.818C152.568 237.774 154.947 237.432 157.256 236.798Z" fill="white" stroke="black" stroke-width="1.06289" stroke-linecap="round" stroke-linejoin="round"/>
<path d="M147.412 146.859C147.412 146.859 147.932 162.548 146.985 176.42C146.038 190.293 144.743 210.676 145.278 213.558C145.814 216.441 146.262 225.724 146.262 225.724L147.225 226.9L147.745 228.821C147.745 228.821 147.225 229.341 143.905 230.314C140.585 231.287 135.792 231.49 135.792 231.49C135.792 231.49 135.579 228.285 135.579 227.431C135.579 226.578 135.792 224.658 135.792 224.658C135.792 224.658 133.982 202.142 134.299 197.552C134.616 192.963 133.982 174.604 133.982 174.604L133.461 167.991C133.461 167.991 129.194 185.162 128.981 187.306C128.768 189.45 125.775 211.212 125.775 212.492C125.775 213.772 124.495 225.938 124.495 225.938C124.937 226.653 125.228 227.452 125.349 228.285C125.458 229.461 124.605 232.447 124.605 232.447C123.67 231.837 122.613 231.437 121.509 231.277L117.132 230.954C117.132 230.954 116.279 224.762 116.279 223.482V216.868C116.279 216.868 115.852 201.606 116.602 195.736C117.351 189.866 116.919 171.727 116.492 164.041C116.066 156.355 114.999 149.528 115.748 147.822C116.253 146.578 116.645 145.291 116.919 143.976C122.374 145.11 127.901 145.86 133.461 146.219C142.307 146.739 146.803 145.152 146.803 145.152L147.412 146.859Z" fill="#44E3C7" stroke="black" stroke-width="1.06289" stroke-linecap="round" stroke-linejoin="round"/>
<path d="M133.43 167.991L135.787 161.086" stroke="white" stroke-width="1.06289" stroke-linecap="round" stroke-linejoin="round"/>
<path d="M133.252 149.705C133.252 149.705 135.162 149.908 139.283 149.304C143.404 148.701 145.106 147.795 145.106 147.795C145.106 147.795 142.395 95.4628 142.395 94.9581C142.451 94.1429 142.19 93.3375 141.666 92.7102C141.143 92.0828 140.397 91.682 139.585 91.5913C136.77 91.071 133.055 92.2938 132.248 95.4108C131.441 98.5277 133.252 149.705 133.252 149.705Z" fill="white" stroke="black" stroke-width="1.06289" stroke-linecap="round" stroke-linejoin="round"/>
<path d="M144.992 152.438C144.992 152.438 144.69 155.56 144.992 155.752C145.293 155.945 148.207 154.852 150.117 154.046C152.027 153.239 151.392 153.562 152.006 151.746C152.62 149.93 152.427 149.93 150.518 150.429C148.608 150.929 144.992 152.438 144.992 152.438Z" fill="white" stroke="black" stroke-width="1.06289" stroke-linecap="round" stroke-linejoin="round"/>
<path d="M141.006 101.213L143.254 131.503L144.419 153.358C144.419 153.358 144.804 154.055 145.424 153.904C146.043 153.753 151.387 152.51 152.006 151.734C152.625 150.959 152.86 148.945 152.86 148.612C152.86 148.279 151.236 129.245 151.236 129.245L155.399 123.666C155.399 123.666 152.22 106.24 151.444 102.753C150.669 99.2667 150.674 97.409 149.43 95.8584C148.187 94.3077 141.063 90.8213 141.063 90.8213L141.006 101.213Z" fill="#4285F4" stroke="black" stroke-width="1.06289" stroke-linecap="round" stroke-linejoin="round"/>
<path d="M140.158 88.9539C140.158 88.9539 143.026 91.9719 142.948 93.5226C142.87 95.0733 141.007 101.193 141.007 101.193L139.846 92.2061C139.846 92.2061 139.227 89.9946 140.158 88.9539Z" fill="white" stroke="black" stroke-width="1.06289" stroke-linecap="round" stroke-linejoin="round"/>
<path d="M130.714 82.522L130.475 88.8599C130.475 88.8599 132.556 94.0635 133.883 95.6246C135.21 97.1857 137.598 99.7875 137.598 99.7875L140.237 94.2873L140.309 91.264L141.475 88.3968C139.64 87.9764 137.921 87.1575 136.438 85.998C133.961 84.0622 131.401 81.7362 131.172 81.6582C130.943 81.5801 130.714 82.522 130.714 82.522Z" fill="white" stroke="black" stroke-width="1.06289" stroke-linecap="round" stroke-linejoin="round"/>
<path d="M132.273 84.7911C132.273 84.7911 132.945 87.2524 137.196 90.1612C138.156 90.8401 139.207 91.3797 140.318 91.7639V91.2852L141.484 88.418C139.649 87.9977 137.929 87.1787 136.447 86.0192C135.817 85.5248 135.187 85.0097 134.584 84.5153L133.772 84.2708L132.273 84.7911Z" fill="black" stroke="black" stroke-width="1.06289" stroke-linecap="round" stroke-linejoin="round"/>
<path d="M147.883 68.9722C147.883 68.9722 147.608 75.4662 147.42 77.6986C147.233 79.9309 147.139 81.8614 146.119 83.9169C145.1 85.9723 143.986 89.1204 142.222 89.391C139.983 89.7328 137.694 89.3073 135.728 88.1838C133.589 86.8829 130.805 83.2664 130.712 82.5223C130.669 82.1102 130.576 81.7049 130.436 81.3151C130.436 81.3151 129.322 74.6337 129.322 71.6624C129.322 68.6912 129.598 66.1882 134.333 64.5179C139.069 62.8475 147.883 68.9722 147.883 68.9722Z" fill="#FFB6B6" stroke="black" stroke-width="1.06289" stroke-linecap="round" stroke-linejoin="round"/>
<path d="M132.384 68.972C132.384 68.972 135.261 69.7161 133.778 71.0118C132.295 72.3074 130.901 73.7957 130.901 73.7957C130.901 73.7957 131.364 75.6533 131.182 76.3975C131 77.1416 130.068 77.6984 129.418 76.9542C128.767 76.2101 128.211 75.6534 128.211 75.6534C128.211 75.6534 126.446 70.0855 126.077 68.5088C125.708 66.9321 125.333 65.2566 127.638 63.6799C128.525 63.0288 129.455 62.4394 130.422 61.9159C133.22 60.2592 136.464 59.5136 139.705 59.7824C145.086 60.2455 147.511 63.3104 147.511 63.3104C147.511 63.3104 151.778 62.1969 151.502 65.2566C151.226 68.3163 148.161 70.3613 146.491 70.1792C144.82 69.9971 136 65.5376 134.236 66.2817C132.472 67.0258 131.171 68.691 132.384 68.972Z" fill="black" stroke="black" stroke-width="1.06289" stroke-linecap="round" stroke-linejoin="round"/>
<path d="M143.062 75.8408C143.062 75.8408 144.358 80.0037 143.989 80.3887C143.619 80.7738 142.131 81.0392 142.131 81.0392" stroke="#667085" stroke-width="1.06289" stroke-linecap="round" stroke-linejoin="round"/>
<path d="M143.895 82.8029C143.895 82.8029 140.924 83.6355 138.691 82.2461" stroke="#667085" stroke-width="1.06289" stroke-linecap="round" stroke-linejoin="round"/>
<path d="M141.871 73.2386C141.871 73.2386 137.958 72.8692 135.913 72.8692C133.868 72.8692 133.129 72.6818 133.036 73.2386C132.942 73.7954 132.76 76.7667 134.336 77.7866C135.913 78.8065 138.791 78.3433 139.998 78.0676C141.205 77.7918 141.559 75.7468 141.668 75.0963C141.778 74.4459 141.871 73.2386 141.871 73.2386Z" stroke="#667085" stroke-width="1.06289" stroke-linecap="round" stroke-linejoin="round"/>
<path d="M143.02 73.249C143.02 73.249 146.142 73.0512 147.75 73.1345C149.357 73.2177 149.956 73.072 150.029 73.6132C150.102 74.1544 150.253 77.0215 148.988 77.9374C147.724 78.8532 145.455 78.2912 144.492 77.9738C143.529 77.6564 143.243 75.6738 143.17 75.0442C143.098 74.4146 143.02 73.249 143.02 73.249Z" stroke="#667085" stroke-width="1.06289" stroke-linecap="round" stroke-linejoin="round"/>
<path d="M133.035 73.2385L128.211 75.653" stroke="black" stroke-width="1.06289" stroke-linecap="round" stroke-linejoin="round"/>
<path d="M141.869 73.2385H143.118" stroke="#667085" stroke-width="1.06289" stroke-linecap="round" stroke-linejoin="round"/>
<path d="M130.9 77.9745C130.9 77.9745 128.767 75.2843 127.258 75.6537C125.749 76.0232 127.076 79.9259 128.299 80.5711C129.521 81.2164 130.801 80.389 130.801 80.389" fill="white"/>
<path d="M130.9 77.9745C130.9 77.9745 128.767 75.2843 127.258 75.6537C125.749 76.0232 127.076 79.9259 128.299 80.5711C129.521 81.2164 130.801 80.389 130.801 80.389" stroke="black" stroke-width="1.06289" stroke-linecap="round" stroke-linejoin="round"/>
<path d="M138.373 75.7267C138.373 76.247 138.149 76.6945 137.852 76.6945C137.556 76.6945 137.332 76.2626 137.332 75.7267C137.332 75.1907 137.556 74.7588 137.852 74.7588C138.149 74.7588 138.373 75.1907 138.373 75.7267Z" fill="#667085"/>
<path d="M145.309 76.6945C145.588 76.6945 145.814 76.2612 145.814 75.7267C145.814 75.1921 145.588 74.7588 145.309 74.7588C145.031 74.7588 144.805 75.1921 144.805 75.7267C144.805 76.2612 145.031 76.6945 145.309 76.6945Z" fill="#667085"/>
<path d="M135.662 72.3025C137.22 71.9117 138.857 71.9639 140.387 72.4534" stroke="#667085" stroke-width="1.06289" stroke-linecap="round" stroke-linejoin="round"/>
<path d="M144.18 72.5105C145.077 72.0995 146.083 71.9918 147.047 72.2035L144.18 72.5105Z" fill="#667085"/>
<path d="M144.18 72.5105C145.077 72.0995 146.083 71.9918 147.047 72.2035" stroke="#667085" stroke-width="1.06289" stroke-linecap="round" stroke-linejoin="round"/>
<path d="M135.742 154.628L135.851 156.538C135.851 156.538 131.433 157.438 125.304 156.018C119.174 154.597 113.653 150.814 113.049 149.992C112.446 149.17 113.57 145.772 113.57 145.772C113.57 145.772 112.763 145.574 114.173 146.074C115.583 146.573 121.104 151.397 128.634 152.703C136.164 154.009 135.857 153.525 135.742 154.628Z" fill="white" stroke="black" stroke-width="1.06289" stroke-linecap="round" stroke-linejoin="round"/>
<path d="M130.004 86.9197C130.004 86.9197 133.803 92.1909 135.583 94.5898C137.362 96.9886 136.899 99.9338 136.67 100.709C136.441 101.485 136.15 102.791 136.15 102.791V151.762C136.15 151.762 136.847 154.395 135.76 154.629C134.672 154.863 126.773 154.473 120.966 151.455C115.159 148.436 113.16 146.339 113.16 146.339L114.633 134.408L115.252 127.747L105.646 127.794C105.646 127.794 111.303 100.631 111.922 99.1741C112.541 97.7171 127.803 89.9534 127.803 89.9534C127.803 89.9534 127.991 87.4244 130.004 86.9197Z" fill="#4285F4" stroke="black" stroke-width="1.06289" stroke-linecap="round" stroke-linejoin="round"/>
<path d="M149.226 108.894L149.102 107.599" stroke="black" stroke-width="1.06289" stroke-linecap="round" stroke-linejoin="round"/>
<path d="M151.236 129.255L149.42 110.814" stroke="black" stroke-width="1.06289" stroke-linecap="round" stroke-linejoin="round"/>
<path d="M115.211 127.746L117.017 110.444" stroke="black" stroke-width="1.06289" stroke-linecap="round" stroke-linejoin="round"/>
<path d="M112.61 124.161C111.264 123.905 109.882 123.905 108.536 124.161C106.189 124.577 105.086 128.927 104.945 130.447C104.805 131.966 105.772 134.61 107.547 135.349C109.321 136.087 110.242 136.035 112.105 134.932C113.968 133.829 113.765 128.719 113.666 126.992C113.635 125.958 113.263 124.963 112.61 124.161Z" fill="white" stroke="black" stroke-width="1.06289" stroke-linecap="round" stroke-linejoin="round"/>
<path d="M117.195 119.166C117.195 119.166 117.881 114.535 117.954 113.021C118.027 111.507 117.814 109.633 118.09 109.014C118.365 108.395 119.333 108.946 119.677 109.358C120.02 109.769 120.301 111.912 120.233 112.74C120.19 113.245 120.19 113.754 120.233 114.259C120.233 114.259 125.546 110.325 126.171 109.498C126.795 108.671 128.034 108.046 128.45 108.598C128.866 109.149 128.377 109.639 127.893 110.117C127.409 110.596 124.927 113.432 124.511 113.76C124.247 114.001 124.056 114.311 123.959 114.655C124.312 114.686 124.668 114.638 125 114.514C125.624 114.311 129.902 112.167 130.318 112.167C130.425 112.184 130.528 112.223 130.619 112.282C130.71 112.342 130.788 112.42 130.847 112.511C130.905 112.603 130.944 112.706 130.959 112.814C130.975 112.921 130.967 113.031 130.937 113.135C130.802 113.552 125.551 116.726 125.349 116.778C125.146 116.83 124.932 117.335 125.276 117.402C125.619 117.47 129.902 116.778 130.453 117.054C130.554 117.101 130.642 117.173 130.707 117.263C130.773 117.353 130.815 117.458 130.829 117.569C130.843 117.68 130.829 117.792 130.788 117.896C130.746 117.999 130.68 118.091 130.594 118.162C130.318 118.37 125.208 119.265 125.208 119.265L127.555 119.749C128.247 119.89 129.418 119.89 129.418 120.301C129.418 120.712 129.142 120.925 128.658 120.925H125.068C124.308 120.925 122.794 121.544 121.55 122.096C120.306 122.647 119.755 122.856 119.755 122.856C119.755 122.856 116.367 129.001 115.129 131.213C114.654 132.12 113.953 132.89 113.093 133.446C112.233 134.002 111.244 134.326 110.222 134.387C108.426 134.527 106.579 131.265 106.912 129.704C107.245 128.142 110.154 124.594 112.709 123.282C115.264 121.971 116.019 120.696 117.195 119.166Z" fill="white" stroke="black" stroke-width="1.06289" stroke-linecap="round" stroke-linejoin="round"/>
<path d="M158.353 124.962C158.353 124.962 156.381 122.397 154.997 122.298C153.613 122.199 151.146 126.638 151.146 128.516C151.146 130.395 151.245 133.944 152.036 134.438C152.827 134.932 154.305 134.043 155.195 132.877C156.085 131.711 158.353 124.962 158.353 124.962Z" fill="white" stroke="black" stroke-width="1.06289" stroke-linecap="round" stroke-linejoin="round"/>
<path d="M180.992 112.786C180.992 112.786 181.106 110.673 180.706 110.788C180.305 110.902 180.024 111.188 180.138 112.156C180.137 113.193 180.022 114.226 179.795 115.237L180.992 112.786Z" fill="white" stroke="black" stroke-width="1.06289" stroke-linecap="round" stroke-linejoin="round"/>
<path d="M156.336 124.255C156.336 124.255 153.214 129.979 153.313 131.503C153.412 133.028 154.739 133.585 157.137 132.872C159.536 132.159 176.255 123.058 177.052 122.314C177.848 121.57 180.59 115.867 181.506 114.836C182.422 113.806 182.302 111.246 182.302 110.788C182.302 110.33 181.506 110.502 181.506 111.074C181.506 111.647 179.565 115.351 179.279 115.466C178.993 115.58 176.427 116.834 176.427 116.834C176.427 116.834 177.738 114.269 178.196 113.411C178.654 112.552 179.05 111.584 178.082 111.928C177.114 112.271 175.569 114.894 174.996 116.325C174.424 117.756 173.435 119.634 173.628 120.545L173.799 121.46C173.799 121.46 168.034 122.772 164.61 122.944C161.186 123.115 156.508 123.682 156.336 124.255Z" fill="white" stroke="black" stroke-width="1.06289" stroke-linecap="round" stroke-linejoin="round"/>
<path d="M179.449 118.208C179.449 118.208 182.472 114.722 182.872 114.097C183.273 113.473 183.783 112.5 183.669 111.756C183.554 111.012 183.044 111.928 182.628 112.557C182.212 113.187 181.431 113.754 180.973 114.779C180.818 115.095 180.6 115.375 180.331 115.601C180.062 115.828 179.749 115.996 179.412 116.096L179.449 118.208Z" fill="white" stroke="black" stroke-width="1.06289" stroke-linecap="round" stroke-linejoin="round"/>
<path d="M178.366 120.315C178.366 120.315 180.078 116.777 180.531 115.809C180.983 114.841 181.103 113.181 181.16 112.167C181.218 111.152 180.359 111.823 180.245 112.687C180.13 113.551 179.448 116.111 179.448 116.111C179.448 116.111 175.738 118.713 175.738 119.42C175.749 119.954 175.788 120.488 175.853 121.018" fill="white"/>
<path d="M178.366 120.315C178.366 120.315 180.078 116.777 180.531 115.809C180.983 114.841 181.103 113.181 181.16 112.167C181.218 111.152 180.359 111.823 180.245 112.687C180.13 113.551 179.448 116.111 179.448 116.111C179.448 116.111 175.738 118.713 175.738 119.42C175.749 119.954 175.788 120.488 175.853 121.018" stroke="black" stroke-width="1.06289" stroke-linecap="round" stroke-linejoin="round"/>
<path d="M62.0386 174.034H56.4863V183.894H62.0386V174.034Z" fill="black" stroke="black" stroke-width="1.06289" stroke-linecap="round" stroke-linejoin="round"/>
<path d="M64.5362 134.705H53.1352C48.6433 134.705 45.002 138.346 45.002 142.838V168.898C45.002 173.389 48.6433 177.031 53.1352 177.031H64.5362C69.0281 177.031 72.6694 173.389 72.6694 168.898V142.838C72.6694 138.346 69.0281 134.705 64.5362 134.705Z" fill="#949494" stroke="black" stroke-width="1.06289" stroke-linecap="round" stroke-linejoin="round"/>
<path d="M50.5419 235.555C50.543 235.089 50.4058 234.634 50.1477 234.246C49.8897 233.859 49.5224 233.556 49.0924 233.378C48.6624 233.199 48.1891 233.152 47.7323 233.243C47.2756 233.333 46.856 233.557 46.5268 233.887C46.1975 234.216 45.9734 234.635 45.8828 235.092C45.7922 235.549 45.8393 236.022 46.0179 236.452C46.1966 236.882 46.4989 237.25 46.8864 237.508C47.274 237.766 47.7295 237.903 48.1951 237.902C48.8175 237.902 49.4144 237.655 49.8546 237.214C50.2947 236.774 50.5419 236.177 50.5419 235.555Z" fill="#CBC7C7" stroke="#CCCCCC" stroke-width="1.06289" stroke-linecap="round" stroke-linejoin="round"/>
<path d="M96.4443 235.555C96.4453 235.09 96.3081 234.634 96.05 234.247C95.792 233.859 95.4247 233.557 94.9947 233.378C94.5648 233.199 94.0914 233.152 93.6347 233.243C93.1779 233.334 92.7584 233.558 92.4291 233.887C92.0999 234.216 91.8758 234.636 91.7852 235.092C91.6946 235.549 91.7416 236.023 91.9203 236.452C92.0989 236.882 92.4012 237.25 92.7888 237.508C93.1764 237.766 93.6318 237.903 94.0975 237.902C94.7199 237.902 95.3168 237.655 95.7569 237.215C96.197 236.775 96.4443 236.178 96.4443 235.555Z" fill="#CBC7C7" stroke="#CCCCCC" stroke-width="1.06289" stroke-linecap="round" stroke-linejoin="round"/>
<path d="M72.2838 235.556C72.2838 234.255 71.7947 233.204 71.1963 233.204C70.5979 233.204 70.1035 234.244 70.1035 235.556C70.1035 236.867 70.5927 237.902 71.1963 237.902C71.7999 237.902 72.2838 236.851 72.2838 235.556Z" fill="#CCCCCC" stroke="#CCCCCC" stroke-width="1.06289" stroke-linecap="round" stroke-linejoin="round"/>
<path d="M73.3305 222.801V189.124H68.7201V222.942L45.9648 231.944V234.202H49.2691V232.287L71.2022 227.765L93.1301 232.287V234.202H96.4396V231.944L73.3305 222.801Z" fill="#CCCCCC" stroke="#CCCCCC" stroke-width="1.06289" stroke-linecap="round" stroke-linejoin="round"/>
<path d="M70.0393 234.197H72.3445L72.8388 223.265H69.5449L70.0393 234.197Z" fill="#CCCCCC" stroke="#CCCCCC" stroke-width="1.06289" stroke-linecap="round" stroke-linejoin="round"/>
<path d="M76.878 187.838H65.1543V194.801H76.878V187.838Z" fill="black" stroke="black" stroke-width="1.06289" stroke-linecap="round" stroke-linejoin="round"/>
<path d="M88.4617 181.427H52.4738C50.7753 181.427 49.3984 182.804 49.3984 184.503V187.328C49.3984 189.027 50.7753 190.403 52.4738 190.403H88.4617C90.1602 190.403 91.5371 189.027 91.5371 187.328V184.503C91.5371 182.804 90.1602 181.427 88.4617 181.427Z" fill="#949494" stroke="black" stroke-width="1.06289" stroke-linecap="round" stroke-linejoin="round"/>
<path d="M122.271 206.296L125.856 211.614L130.108 211.349C130.108 211.349 138.21 209.887 139.271 209.621C140.333 209.356 140.733 210.282 140.203 211.349C139.672 212.416 134.755 217.192 132.366 218.634C129.978 220.075 123.197 222.484 122.537 222.62C121.876 222.755 121.074 221.423 119.612 217.307C118.516 214.432 117.138 211.672 115.496 209.07L122.271 206.296Z" fill="white" stroke="black" stroke-width="1.06289" stroke-linecap="round" stroke-linejoin="round"/>
<path d="M140.203 211.349C140.723 210.308 140.338 209.356 139.271 209.621C138.204 209.887 130.128 211.349 130.128 211.349L125.877 211.614C125.899 212.838 126.124 214.049 126.543 215.199C126.543 215.199 120.564 216.662 119.633 217.328C121.095 221.444 121.891 222.771 122.557 222.641C123.223 222.51 129.993 220.117 132.387 218.655C134.78 217.192 139.672 212.41 140.203 211.349Z" fill="white" stroke="black" stroke-width="1.06289" stroke-linecap="round" stroke-linejoin="round"/>
<path d="M140.203 211.348C140.407 210.985 140.474 210.56 140.39 210.152C137.96 212.197 132.876 216.396 130.841 217.411C128.9 218.378 123.863 220.153 121.121 221.095C121.709 222.286 122.162 222.718 122.536 222.656C123.197 222.521 129.972 220.132 132.366 218.67C134.76 217.208 139.672 212.41 140.203 211.348Z" fill="white" stroke="black" stroke-width="1.06289" stroke-linecap="round" stroke-linejoin="round"/>
<path d="M109.032 162.414C109.032 162.414 114.881 179.585 118.284 191.153C119.922 196.7 121.967 202.117 124.404 207.362C124.404 207.362 121.615 208.954 119.752 209.886C117.889 210.817 114.704 212.009 114.704 212.009C114.704 212.009 112.18 208.023 109.527 202.845C106.873 197.668 102.351 185.044 100.223 181.188C98.0944 177.332 95.1751 171.489 95.1751 171.489C95.1751 171.489 93.8482 164.849 98.8957 163.121C103.943 161.394 107.575 160.556 109.032 162.414Z" fill="#4285F4" stroke="black" stroke-width="1.06289" stroke-linecap="round" stroke-linejoin="round"/>
<path d="M88.8721 159.542C88.8721 159.542 91.1616 161.067 91.2241 161.316C91.2865 161.566 91.1616 161.764 90.6517 161.956C90.1417 162.149 87.7949 162.591 87.7949 162.591L88.8721 159.542Z" fill="white" stroke="black" stroke-width="1.06289" stroke-linecap="round" stroke-linejoin="round"/>
<path d="M97.372 217.207C97.372 217.207 96.4562 222.905 95.811 224.982C95.1657 227.058 93.4798 230.841 94.0157 231.777C94.5517 232.714 97.3876 233.682 98.8342 233.802C100.281 233.921 102.133 236.289 104.824 237.262C107.514 238.235 111.068 237.975 110.99 237.262C110.912 236.549 103.023 227.896 102.638 225.762C102.253 223.629 103.632 217.051 103.632 217.051L97.372 217.207Z" fill="white" stroke="black" stroke-width="1.06289" stroke-linecap="round" stroke-linejoin="round"/>
<path d="M101.672 227.173L101.459 227.772C99.3774 227.534 97.3197 227.12 95.3085 226.533C94.5748 228.568 93.6173 231.045 94.0388 231.778C94.5592 232.72 97.4108 233.683 98.8574 233.802C100.304 233.922 102.156 236.29 104.847 237.263C107.537 238.236 111.091 237.976 111.013 237.263C110.935 236.55 103.046 227.896 102.661 225.763C102.26 226.179 101.927 226.654 101.672 227.173Z" fill="white" stroke="black" stroke-width="1.06289" stroke-linecap="round" stroke-linejoin="round"/>
<path d="M104.687 235.852C102.558 234.811 100.633 233.021 97.7972 232.064C95.9551 231.434 94.6751 230.929 93.9986 230.648C93.8942 231.02 93.9087 231.415 94.0402 231.777C94.5606 232.719 97.4121 233.682 98.8587 233.802C100.305 233.921 102.158 236.289 104.848 237.262C107.419 238.199 110.759 237.996 110.993 237.361C109.219 237.101 106.149 236.57 104.687 235.852Z" fill="white" stroke="black" stroke-width="1.06289" stroke-linecap="round" stroke-linejoin="round"/>
<path d="M95.9595 174.414C95.9595 174.414 106.455 175.61 107.256 180.923C108.058 186.236 106.19 219.315 106.19 219.315C104.636 219.385 103.079 219.296 101.543 219.05C99.4146 218.654 95.819 217.858 95.819 217.858C95.819 217.858 95.2986 206.567 94.6221 202.045C93.9457 197.523 93.4253 184.378 93.4253 184.378C93.4253 184.378 75.8892 182.916 74.2969 181.855C72.7046 180.793 95.9595 174.414 95.9595 174.414Z" fill="#4285F4" stroke="black" stroke-width="1.06289" stroke-linecap="round" stroke-linejoin="round"/>
<path d="M107.387 171.754C107.387 171.754 83.8723 180.923 77.8933 182.916C72.4971 184.624 66.7121 184.671 61.2887 183.051C57.1727 181.719 55.1485 176.432 55.1485 176.432C55.1485 176.432 54.1078 175.209 54.6281 174.018C55.1485 172.826 63.6667 165.244 68.8443 163.917C74.0219 162.59 83.4144 163.168 83.4144 163.168C83.4144 163.168 103.667 158.485 106.456 158.87C109.245 159.255 111.467 169.199 111.862 170.526" fill="#4285F4"/>
<path d="M107.387 171.754C107.387 171.754 83.8723 180.923 77.8933 182.916C72.4971 184.624 66.7121 184.671 61.2887 183.051C57.1727 181.719 55.1485 176.432 55.1485 176.432C55.1485 176.432 54.1078 175.209 54.6281 174.018C55.1485 172.826 63.6667 165.244 68.8443 163.917C74.0219 162.59 83.4143 163.168 83.4143 163.168C83.4143 163.168 103.667 158.485 106.456 158.87C109.245 159.255 111.467 169.199 111.862 170.526" stroke="black" stroke-width="1.06289" stroke-linecap="round" stroke-linejoin="round"/>
<path d="M61.1543 177.468C61.1543 177.468 63.0172 170.183 67.919 167.108" stroke="black" stroke-width="1.06289" stroke-linecap="round" stroke-linejoin="round"/>
<path d="M60.0918 172.555C60.0918 172.555 62.0848 169.496 64.7438 168.835" stroke="black" stroke-width="1.06289" stroke-linecap="round" stroke-linejoin="round"/>
<path d="M74.7189 117.84C75.4216 118.003 76.0832 118.309 76.6624 118.738C77.2416 119.168 77.7261 119.713 78.0857 120.338C79.3918 122.513 81.5669 130.667 81.5669 130.667C81.5669 130.667 85.0429 140.777 84.3924 143.155C83.742 145.534 81.1298 149.025 81.1298 149.025C81.1298 149.025 81.3483 156.831 81.9988 158.392C82.5702 159.954 83.0429 161.552 83.4141 163.174C83.4141 163.174 81.5669 164.48 75.4787 165.349C69.3905 166.218 64.3898 166.655 62.324 168.284C60.2582 169.912 55.6946 176.089 55.1483 176.438C54.6019 176.786 53.7381 177.416 53.301 176.547C52.8639 175.678 52.1042 173.831 53.0824 169.918C54.0607 166.004 55.8039 150.565 56.4544 143.28C57.1048 135.995 55.6946 128.606 56.5636 123.507C57.4326 118.407 65.1496 115.358 66.8876 115.03C68.6255 114.702 74.7189 117.84 74.7189 117.84Z" fill="#44E3C7" stroke="#44E3C7" stroke-width="1.06289" stroke-linecap="round" stroke-linejoin="round"/>
<path d="M56.3711 169.897C56.3711 169.897 59.6962 166.047 61.2885 165.381C62.8808 164.715 74.0425 164.715 74.0425 164.715" stroke="white" stroke-width="1.06289" stroke-linecap="round" stroke-linejoin="round"/>
<path d="M58.7656 164.979C59.8065 164.387 60.9235 163.941 62.0855 163.652C63.5477 163.387 67.3984 163.652 67.3984 163.652" stroke="white" stroke-width="1.06289" stroke-linecap="round" stroke-linejoin="round"/>
<path d="M64.6074 151.694C68.2251 150.281 71.5231 148.158 74.3069 145.45" stroke="white" stroke-width="1.06289" stroke-linecap="round" stroke-linejoin="round"/>
<path d="M76.5653 86.9672C76.5653 86.9672 78.194 90.4484 78.7404 91.5307C79.2868 92.6131 79.063 94.4707 79.5001 95.9902C79.9372 97.5096 82.4349 98.4879 82.4349 99.3621C82.4349 100.236 81.4567 101.964 81.4567 101.964C81.4567 101.964 80.9103 108.729 80.0413 109.462C79.1723 110.196 75.587 110.441 75.587 110.441L73.7397 117.507L75.587 118.595C75.587 118.595 75.9096 125.011 75.587 127.295C75.2644 129.579 75.4777 131.749 72.2151 130.88C68.9524 130.011 63.9518 121.321 63.5199 120.234C63.088 119.146 64.9301 114.468 62.7602 107.511C60.5903 100.554 65.362 94.2522 68.5205 91.3174C71.6791 88.3825 73.1934 86.426 76.5653 86.9672Z" fill="white" stroke="black" stroke-width="1.06289" stroke-linecap="round" stroke-linejoin="round"/>
<path d="M76.5651 86.9671C76.4558 85.0105 76.2373 84.2508 72.2149 83.8137C68.1926 83.3766 59.6066 83.054 56.2347 89.0173C52.8628 94.9806 52.868 108.042 52.868 108.042C52.868 108.042 45.6922 114.452 45.1459 118.381C44.5995 122.31 47.2273 125.994 51.3433 127.3L51.5879 127.363C51.9531 125.544 52.7232 123.831 53.8411 122.351C56.1931 119.531 58.2329 119.843 61.2093 119.058C64.1858 118.272 66.0799 118.074 66.5222 114.676C66.9645 111.278 67.6097 107.605 67.3235 104.144C67.2143 102.838 68.6297 100.881 68.6297 100.881C68.6297 100.881 71.9964 101.75 74.1715 95.8808C76.3466 90.0112 76.6744 88.9236 76.5651 86.9671Z" fill="black" stroke="black" stroke-width="1.06289" stroke-linecap="round" stroke-linejoin="round"/>
<path d="M70.0418 102.51C70.0418 102.51 68.9543 97.5094 66.1287 99.466C63.3032 101.423 67.5441 106.97 68.2102 107.079C68.8762 107.188 69.9482 106.532 69.9482 106.532" fill="white"/>
<path d="M70.0418 102.51C70.0418 102.51 68.9543 97.5094 66.1287 99.466C63.3032 101.423 67.5441 106.97 68.2102 107.079C68.8762 107.188 69.9482 106.532 69.9482 106.532" stroke="black" stroke-width="1.06289" stroke-linecap="round" stroke-linejoin="round"/>
<path d="M75.5868 110.446L72.2148 110.014L74.6085 113.168L75.5868 110.446Z" fill="black" stroke="black" stroke-width="1.06289" stroke-linecap="round" stroke-linejoin="round"/>
<path d="M79.1621 97.2335C79.3026 97.9724 79.1621 98.6228 78.8343 98.6853C78.5064 98.7477 78.1318 98.1961 77.9861 97.4624C77.8404 96.7287 77.9861 96.0783 78.3191 96.0158C78.6521 95.9534 79.0216 96.4998 79.1621 97.2335Z" fill="black"/>
<path d="M86.0251 156.487C86.3036 156.489 86.582 156.47 86.8576 156.43L86.6079 154.869C86.0875 154.947 84.8803 154.942 84.5264 154.427C84.0321 153.714 84.4224 149.78 84.9271 149.114C85.1144 148.895 86.0199 148.895 86.6703 149.046L87.0346 147.485C86.6443 147.391 84.6461 146.965 83.7147 148.068C82.7832 149.171 82.2317 153.896 83.2307 155.322C83.902 156.305 85.1769 156.487 86.0251 156.487Z" fill="white" stroke="black" stroke-width="1.06289" stroke-linecap="round" stroke-linejoin="round"/>
<path d="M85.965 158.396H95.4355V146.058H85.965V158.396Z" fill="white" stroke="black" stroke-width="1.06289" stroke-linecap="round" stroke-linejoin="round"/>
<path d="M58.547 120C58.547 120 53.5307 118.439 51.2359 128.133C50.4762 131.359 47.3801 164.038 48.0253 164.256C50.3669 165.084 75.0371 157.408 75.0371 157.408C75.0371 157.408 82.6708 156.888 83.3629 156.727C84.055 156.565 85.0801 155.369 85.0332 154.697C84.9864 154.026 85.0332 152.668 85.0332 152.668C85.0332 152.668 86.1832 151.346 85.7825 150.472C85.5407 149.947 85.1095 149.533 84.5753 149.312H83.0142L82.0828 148.927C82.0828 148.927 83.2432 147.719 83.0507 146.606C82.8581 145.492 81.9215 144.878 81.526 145.69C81.1305 146.502 81.0525 147.079 80.3136 147.808C79.4598 148.568 78.6857 149.414 78.0032 150.332C77.4828 151.159 76.0623 153.287 76.0623 153.287L58.2868 154.255L60.9198 133.763" fill="#44E3C7"/>
<path d="M58.547 120C58.547 120 53.5307 118.439 51.2359 128.133C50.4762 131.359 47.3801 164.038 48.0253 164.256C50.3669 165.084 75.0371 157.408 75.0371 157.408C75.0371 157.408 82.6708 156.888 83.3629 156.727C84.055 156.565 85.0801 155.369 85.0332 154.697C84.9864 154.026 85.0332 152.668 85.0332 152.668C85.0332 152.668 86.1832 151.346 85.7825 150.472C85.5407 149.947 85.1095 149.533 84.5753 149.312H83.0142L82.0828 148.927C82.0828 148.927 83.2432 147.719 83.0507 146.606C82.8581 145.492 81.9215 144.878 81.526 145.69C81.1305 146.502 81.0525 147.079 80.3136 147.808C79.4598 148.568 78.6857 149.414 78.0032 150.332C77.4828 151.159 76.0623 153.287 76.0623 153.287L58.2868 154.255L60.9198 133.763" stroke="#44E3C7" stroke-width="1.06289" stroke-linecap="round" stroke-linejoin="round"/>
<path d="M85.732 150.472C85.4901 149.947 85.059 149.532 84.5248 149.311H82.9637L82.0323 148.926C82.0323 148.926 83.1927 147.719 83.0001 146.605C82.8076 145.492 81.8709 144.878 81.4755 145.69C81.08 146.501 81.0019 147.079 80.263 147.807C79.4093 148.568 78.6351 149.414 77.9526 150.331C77.4323 151.159 76.0117 153.287 76.0117 153.287L58.2363 154.255L59.4123 145.331L49.4318 145.102C48.5212 154.468 47.6938 164.136 48.0424 164.261C50.3841 165.089 75.0543 157.413 75.0543 157.413C75.0543 157.413 82.6879 156.893 83.38 156.732C84.0721 156.57 85.0972 155.373 85.0503 154.702C85.0035 154.031 85.0503 152.673 85.0503 152.673C85.0503 152.673 86.1327 151.346 85.732 150.472Z" fill="white" stroke="#44E3C7" stroke-width="1.06289" stroke-linecap="round" stroke-linejoin="round"/>
<path d="M84.9355 159.401C84.9355 159.401 82.9425 159.801 82.4117 160.441C81.881 161.081 80.554 164.693 81.2201 164.828C81.8862 164.963 83.2131 162.039 83.2131 162.039C83.2131 162.039 86.9388 160.197 84.9355 159.401Z" fill="white" stroke="black" stroke-width="1.06289" stroke-linecap="round" stroke-linejoin="round"/>
<path d="M85.8251 159.411C85.3665 159.381 84.908 159.469 84.4929 159.666C83.9206 159.983 82.7133 162.715 82.526 163.48C82.3387 164.245 82.526 165 83.0463 164.812C83.5667 164.625 85.3359 161.888 85.8407 161.57C86.3454 161.253 86.7149 159.421 85.8251 159.411Z" fill="white" stroke="black" stroke-width="1.06289" stroke-linecap="round" stroke-linejoin="round"/>
<path d="M87.2242 159.411C87.1643 159.276 87.0663 159.16 86.942 159.079C86.8178 158.998 86.6726 158.955 86.5243 158.955C86.376 158.955 86.2308 158.998 86.1066 159.079C85.9823 159.16 85.8843 159.276 85.8244 159.411C85.0647 160.494 83.795 163.798 84.1125 164.048C84.4299 164.297 85.1896 163.481 85.6995 162.908C86.2095 162.336 87.6041 160.874 87.2242 159.411Z" fill="white" stroke="black" stroke-width="1.06289" stroke-linecap="round" stroke-linejoin="round"/>
<path d="M88.872 159.542C88.872 159.542 87.7324 158.839 87.2225 159.412C86.7125 159.984 86.3326 163.054 86.4575 163.351C86.5824 163.647 87.6023 162.908 87.7948 162.591C87.9874 162.274 88.872 159.542 88.872 159.542Z" fill="white" stroke="black" stroke-width="1.06289" stroke-linecap="round" stroke-linejoin="round"/>
</svg>
