<svg width="28" height="31" viewBox="0 0 28 31" fill="none" xmlns="http://www.w3.org/2000/svg">
<path d="M3.17899 25.738C2.3625 24.3654 2.33021 22.7077 3.0929 21.3046L10.5278 7.6175H14.9449L19.092 15.194L21.3186 13.9752L17.8388 7.6175H19.0545V5.07845H17.8954L20.3237 0H5.08866L7.73845 5.07845H6.35819V7.6175H7.63709L0.86073 20.092C-0.333117 22.2908 -0.282434 24.8864 0.996465 27.0363C2.27536 29.1862 4.53253 30.47 7.03374 30.47H10.1338V27.9309H7.03374C5.43685 27.9306 3.99549 27.1113 3.17899 25.738ZM9.27771 2.5394H16.295L15.0807 5.07845H10.6028L9.27771 2.5394Z" fill="#028193"/>
<path d="M27.9397 22.8526V16.5046H12.7051V20.3132H10.166V26.6612H12.7051V30.4698H27.9397V24.1221H25.4007V22.8526H27.9397ZM25.4007 19.0437V20.3132H24.1311V19.0437H25.4007ZM15.2441 19.0437H21.5921V20.3132H15.2441V19.0437ZM12.7051 22.8526H19.053V24.1221H12.7051V22.8526ZM15.2441 27.9307V26.6612H21.5917V27.9307H15.2441ZM25.4007 27.9307H24.1311V26.6612H25.4007V27.9307ZM21.5921 24.1221V22.8526H22.8616V24.1221H21.5921Z" fill="#028193"/>
</svg>
