<svg width="27" height="29" viewBox="0 0 27 29" fill="none" xmlns="http://www.w3.org/2000/svg">
<path d="M2.97033 24.0486C2.20743 22.7661 2.17726 21.2172 2.88989 19.9062L9.83677 7.1175H13.964L17.8388 14.1967L19.9193 13.0579L16.6679 7.1175H17.8038V4.74511H16.7207L18.9897 0H4.75465L7.23051 4.74511H5.94085V7.1175H7.1358L0.804233 18.7732C-0.311252 20.8277 -0.263896 23.2529 0.931058 25.2617C2.12601 27.2705 4.23502 28.47 6.57206 28.47H9.46862V26.0976H6.57206C5.07999 26.0973 3.73323 25.3318 2.97033 24.0486ZM8.66874 2.37272H15.2254L14.0908 4.74511H9.90683L8.66874 2.37272Z" fill="#028193"/>
<path d="M26.1071 21.3527V15.4214H11.8724V18.98H9.5V24.9113H11.8724V28.4699H26.1071V22.5389H23.7347V21.3527H26.1071ZM23.7347 17.7938V18.98H22.5485V17.7938H23.7347ZM14.2448 17.7938H20.1761V18.98H14.2448V17.7938ZM11.8724 21.3527H17.8037V22.5389H11.8724V21.3527ZM14.2448 26.0975V24.9113H20.1758V26.0975H14.2448ZM23.7347 26.0975H22.5485V24.9113H23.7347V26.0975ZM20.1761 22.5389V21.3527H21.3623V22.5389H20.1761Z" fill="#028193"/>
</svg>
