<svg width="17" height="19" viewBox="0 0 17 19" fill="none" xmlns="http://www.w3.org/2000/svg">
<path d="M1.93327 15.6523C1.43673 14.8175 1.41709 13.8095 1.88091 12.9561L6.40237 4.6325H9.0886L11.6106 9.24009L12.9647 8.49886L10.8485 4.6325H11.5878V3.0884H10.8829L12.3596 0H3.09461L4.70606 3.0884H3.86666V4.6325H4.64441L0.523443 12.2187C-0.202582 13.5559 -0.171759 15.1344 0.605989 16.4419C1.38374 17.7493 2.75641 18.53 4.27749 18.53H6.16275V16.9859H4.27749C3.30636 16.9857 2.42981 16.4875 1.93327 15.6523ZM5.64214 1.54431H9.90962L9.17114 3.0884H6.44797L5.64214 1.54431Z" fill="#002C32"/>
<path d="M16.9886 13.8978V10.0374H7.72378V12.3535H6.17969V16.214H7.72378V18.5301H16.9886V14.6699H15.4445V13.8978H16.9886ZM15.4445 11.5815V12.3535H14.6724V11.5815H15.4445ZM9.26788 11.5815H13.1283V12.3535H9.26788V11.5815ZM7.72378 13.8978H11.5842V14.6699H7.72378V13.8978ZM9.26788 16.986V16.214H13.1281V16.986H9.26788ZM15.4445 16.986H14.6724V16.214H15.4445V16.986ZM13.1283 14.6699V13.8978H13.9004V14.6699H13.1283Z" fill="#002C32"/>
</svg>
