<svg width="42" height="43" viewBox="0 0 42 43" fill="none" xmlns="http://www.w3.org/2000/svg">
<circle cx="21" cy="21.1406" r="21" fill="#1DDD9C"/>
<path d="M21.002 12.6953C17.1464 12.6953 14.0098 15.832 14.0098 19.6875C14.0098 21.2784 14.5311 22.7767 15.5175 24.0204C16.7947 25.6307 20.5087 29.4541 20.6662 29.6161L21.002 29.9615L21.3378 29.6161C21.4953 29.4541 25.2104 25.6298 26.4878 24.019C27.4733 22.7763 27.9942 21.2785 27.9942 19.6875C27.9942 15.832 24.8575 12.6953 21.002 12.6953ZM25.7539 23.437C24.7256 24.7337 21.964 27.6182 21.002 28.6159C20.04 27.6183 17.2795 24.7346 16.2514 23.4383C15.3977 22.3619 14.9465 21.0649 14.9465 19.6875C14.9465 16.3485 17.6629 13.632 21.002 13.632C24.341 13.632 27.0575 16.3485 27.0575 19.6875C27.0575 21.065 26.6067 22.3615 25.7539 23.437Z" fill="white"/>
<path d="M22.2589 18.0997L21.0089 15.5781L19.759 18.0997L17.0742 18.409L18.9746 20.3646L18.4222 23.1098L21.0089 21.6945L23.5957 23.1098L23.0433 20.3646L24.9437 18.409L22.2589 18.0997ZM22.2806 21.3226L21.0089 20.6268L19.7373 21.3226L19.9902 20.0657L19.0727 19.1217L20.372 18.972L21.0089 17.6871L21.6458 18.972L22.9451 19.1217L22.0276 20.0657L22.2806 21.3226Z" fill="white"/>
</svg>
