<svg width="40" height="40" viewBox="0 0 40 40" fill="none" xmlns="http://www.w3.org/2000/svg">
<path fill-rule="evenodd" clip-rule="evenodd" d="M33.0027 16.9667C32.486 11.6667 29.3527 3.33337 19.6693 3.33337C9.98602 3.33337 6.85268 11.6667 6.33602 16.9667C4.52354 17.6546 3.328 19.3948 3.33598 21.3334V23.6667C3.33598 26.244 5.42536 28.3334 8.00268 28.3334C10.58 28.3334 12.6694 26.244 12.6694 23.6667V21.3334C12.661 19.4366 11.5093 17.7322 9.75268 17.0167C10.086 13.95 11.7194 6.66671 19.6693 6.66671C27.6194 6.66671 29.236 13.95 29.5694 17.0167C27.8162 17.7337 26.6704 19.4393 26.6694 21.3334V23.6667C26.6766 25.4583 27.7054 27.0889 29.3193 27.8667C28.6194 29.1834 26.836 30.9667 22.4527 31.5C21.5765 30.1695 19.8813 29.645 18.4068 30.2482C16.9322 30.8514 16.0907 32.4136 16.3981 33.9767C16.7056 35.5399 18.0762 36.6667 19.6693 36.6667C20.9282 36.6597 22.0758 35.9441 22.636 34.8167C29.786 34 32.0694 30.3167 32.786 28.15C34.7249 27.522 36.0288 25.7046 36.0027 23.6667V21.3334C36.0107 19.3948 34.8152 17.6546 33.0027 16.9667ZM9.33602 23.6667C9.33602 24.4031 8.73906 25 8.00268 25C7.2663 25 6.66935 24.4031 6.66935 23.6667V21.3334C6.66935 20.857 6.92348 20.4168 7.33602 20.1787C7.74855 19.9405 8.25682 19.9405 8.66935 20.1787C9.08189 20.4168 9.33602 20.857 9.33602 21.3334V23.6667ZM30.0027 21.3334C30.0027 20.597 30.5996 20 31.336 20C32.0724 20 32.6693 20.597 32.6693 21.3334V23.6667C32.6693 24.4031 32.0724 25 31.336 25C30.5996 25 30.0027 24.4031 30.0027 23.6667V21.3334Z" fill="#6941C6"/>
</svg>
