<svg width="12" height="21" viewBox="0 0 12 21" fill="none" xmlns="http://www.w3.org/2000/svg">
<path fill-rule="evenodd" clip-rule="evenodd" d="M0.943786 0.520769C0.870647 0.593722 0.812621 0.680388 0.773028 0.775802C0.733437 0.871216 0.713057 0.973503 0.713057 1.07681C0.713057 1.18011 0.733437 1.2824 0.773028 1.37781C0.812621 1.47322 0.870647 1.55989 0.943786 1.63284L9.81367 10.5012L0.943786 19.3695C0.796315 19.5169 0.713469 19.7169 0.713469 19.9255C0.713469 20.1341 0.796315 20.3341 0.943786 20.4815C1.09126 20.629 1.29127 20.7119 1.49982 20.7119C1.70838 20.7119 1.90839 20.629 2.05586 20.4815L11.4802 11.0572C11.5533 10.9842 11.6114 10.8976 11.651 10.8022C11.6906 10.7067 11.7109 10.6045 11.7109 10.5012C11.7109 10.3979 11.6906 10.2956 11.651 10.2002C11.6114 10.1047 11.5533 10.0181 11.4802 9.94512L2.05586 0.520769C1.98291 0.447631 1.89624 0.389604 1.80083 0.350011C1.70541 0.310419 1.60312 0.290039 1.49982 0.290039C1.39652 0.290039 1.29423 0.310419 1.19882 0.350011C1.1034 0.389604 1.01674 0.447631 0.943786 0.520769Z" fill="#667085"/>
</svg>
