<svg width="17" height="17" viewBox="0 0 17 17" fill="none" xmlns="http://www.w3.org/2000/svg">
<path fill-rule="evenodd" clip-rule="evenodd" d="M9.21682 4.4339C9.15157 4.29917 9.04968 4.18555 8.92284 4.10604C8.796 4.02654 8.64933 3.98438 8.49963 3.98438C8.34993 3.98438 8.20326 4.02654 8.07642 4.10604C7.94958 4.18555 7.8477 4.29917 7.78244 4.4339L6.57119 6.94034L3.86607 7.34409C3.72007 7.36601 3.58303 7.42805 3.47024 7.5233C3.35744 7.61855 3.27333 7.74327 3.22727 7.88353C3.18121 8.02379 3.17503 8.1741 3.2094 8.31767C3.24378 8.46125 3.31736 8.59245 3.42194 8.69665L5.38757 10.6516L4.92326 13.4141C4.89839 13.5612 4.91527 13.7122 4.97197 13.8501C5.02867 13.988 5.12293 14.1072 5.24401 14.1942C5.3651 14.2812 5.50816 14.3325 5.65694 14.3422C5.80572 14.3519 5.95424 14.3197 6.08563 14.2493L8.49963 12.952L10.9136 14.2482C11.0449 14.3186 11.1933 14.3508 11.342 14.3411C11.4907 14.3313 11.6336 14.2802 11.7547 14.1933C11.8757 14.1065 11.97 13.9874 12.0268 13.8497C12.0836 13.712 12.1006 13.5611 12.076 13.4141L11.6117 10.6495L13.5773 8.69559C13.6819 8.59139 13.7555 8.46019 13.7899 8.31661C13.8242 8.17303 13.818 8.02273 13.772 7.88247C13.7259 7.7422 13.6418 7.61749 13.529 7.52224C13.4162 7.42699 13.2792 7.36494 13.1332 7.34302L10.4291 6.93928L9.21788 4.43284L9.21682 4.4339ZM7.82176 8.01346L8.49963 6.61096L9.17751 8.01346C9.23409 8.1303 9.31835 8.23154 9.42297 8.30839C9.5276 8.38523 9.64941 8.43536 9.77782 8.4544L11.328 8.68603L10.1954 9.81121C10.1052 9.90111 10.0379 10.0113 9.99907 10.1326C9.96025 10.2539 9.95106 10.3827 9.97226 10.5082L10.2347 12.0765L8.87682 11.3476C8.76086 11.2853 8.63127 11.2527 8.49963 11.2527C8.36799 11.2527 8.2384 11.2853 8.12244 11.3476L6.76457 12.0765L7.02807 10.5082C7.04913 10.3826 7.03977 10.2537 7.00076 10.1324C6.96176 10.0112 6.89424 9.90101 6.80388 9.81121L5.67126 8.68496L7.22251 8.4544C7.35073 8.4352 7.47232 8.385 7.57675 8.30816C7.68118 8.23132 7.76528 8.13016 7.82176 8.01346Z" fill="#002C32"/>
<path fill-rule="evenodd" clip-rule="evenodd" d="M12.75 0.796875C12.75 0.585531 12.666 0.382842 12.5166 0.233399C12.3672 0.0839562 12.1645 0 11.9531 0C11.7418 0 11.5391 0.0839562 11.3896 0.233399C11.2402 0.382842 11.1562 0.585531 11.1562 0.796875V1.0625H5.84375V0.796875C5.84375 0.585531 5.75979 0.382842 5.61035 0.233399C5.46091 0.0839562 5.25822 0 5.04688 0C4.83553 0 4.63284 0.0839562 4.4834 0.233399C4.33396 0.382842 4.25 0.585531 4.25 0.796875V1.0625H2.39062C1.75659 1.0625 1.14853 1.31437 0.700198 1.7627C0.251869 2.21103 0 2.81909 0 3.45312L0 14.6094C0 15.2434 0.251869 15.8515 0.700198 16.2998C1.14853 16.7481 1.75659 17 2.39062 17H14.6094C15.2434 17 15.8515 16.7481 16.2998 16.2998C16.7481 15.8515 17 15.2434 17 14.6094V3.45312C17 2.81909 16.7481 2.21103 16.2998 1.7627C15.8515 1.31437 15.2434 1.0625 14.6094 1.0625H12.75V0.796875ZM4.25 3.45312V2.65625H2.39062C2.17928 2.65625 1.97659 2.74021 1.82715 2.88965C1.67771 3.03909 1.59375 3.24178 1.59375 3.45312V14.6094C1.59375 15.0492 1.95075 15.4062 2.39062 15.4062H14.6094C14.8207 15.4062 15.0234 15.3223 15.1728 15.1728C15.3223 15.0234 15.4062 14.8207 15.4062 14.6094V3.45312C15.4062 3.24178 15.3223 3.03909 15.1728 2.88965C15.0234 2.74021 14.8207 2.65625 14.6094 2.65625H12.75V3.45312C12.75 3.66447 12.666 3.86716 12.5166 4.0166C12.3672 4.16604 12.1645 4.25 11.9531 4.25C11.7418 4.25 11.5391 4.16604 11.3896 4.0166C11.2402 3.86716 11.1562 3.66447 11.1562 3.45312V2.65625H5.84375V3.45312C5.84375 3.66447 5.75979 3.86716 5.61035 4.0166C5.46091 4.16604 5.25822 4.25 5.04688 4.25C4.83553 4.25 4.63284 4.16604 4.4834 4.0166C4.33396 3.86716 4.25 3.66447 4.25 3.45312Z" fill="#002C32"/>
</svg>
