<svg width="32" height="32" viewBox="0 0 32 32" fill="none" xmlns="http://www.w3.org/2000/svg">
<g clip-path="url(#clip0_167_4306)">
<path fill-rule="evenodd" clip-rule="evenodd" d="M17.3356 8.44169C17.2181 8.19926 17.0348 7.99481 16.8066 7.85175C16.5783 7.70869 16.3144 7.63281 16.045 7.63281C15.7757 7.63281 15.5117 7.70869 15.2835 7.85175C15.0553 7.99481 14.8719 8.19926 14.7545 8.44169L12.575 12.9518L7.70735 13.6783C7.44464 13.7178 7.19806 13.8294 6.99509 14.0008C6.79213 14.1722 6.64077 14.3966 6.55789 14.649C6.47502 14.9014 6.46388 15.1718 6.52574 15.4302C6.58759 15.6885 6.72 15.9246 6.90819 16.1121L10.4452 19.63L9.60967 24.6009C9.56493 24.8654 9.5953 25.1372 9.69733 25.3853C9.79936 25.6334 9.96895 25.8479 10.1868 26.0045C10.4047 26.161 10.6621 26.2533 10.9299 26.2708C11.1976 26.2883 11.4648 26.2304 11.7013 26.1036L16.045 23.7692L20.3888 26.1017C20.6251 26.2283 20.8921 26.2862 21.1596 26.2687C21.4271 26.2513 21.6844 26.1592 21.9022 26.0029C22.12 25.8466 22.2896 25.6324 22.3918 25.3846C22.494 25.1368 22.5247 24.8652 22.4804 24.6009L21.6449 19.6262L25.1819 16.1102C25.3701 15.9227 25.5025 15.6866 25.5643 15.4283C25.6262 15.1699 25.6151 14.8995 25.5322 14.6471C25.4493 14.3947 25.298 14.1703 25.095 13.9989C24.892 13.8275 24.6454 13.7158 24.3827 13.6764L19.517 12.9499L17.3375 8.43978L17.3356 8.44169ZM14.8253 14.8828L16.045 12.3591L17.2648 14.8828C17.3666 15.093 17.5183 15.2752 17.7065 15.4135C17.8948 15.5518 18.114 15.642 18.345 15.6762L21.1345 16.093L19.0964 18.1177C18.9341 18.2795 18.813 18.4778 18.7432 18.696C18.6733 18.9142 18.6568 19.146 18.6949 19.3719L19.1671 22.1938L16.7238 20.8823C16.5151 20.7701 16.2819 20.7115 16.045 20.7115C15.8082 20.7115 15.575 20.7701 15.3663 20.8823L12.9229 22.1938L13.3971 19.3719C13.435 19.1458 13.4182 18.9139 13.348 18.6957C13.2778 18.4775 13.1563 18.2793 12.9937 18.1177L10.9556 16.0911L13.747 15.6762C13.9777 15.6417 14.1965 15.5513 14.3844 15.4131C14.5723 15.2748 14.7236 15.0928 14.8253 14.8828Z" fill="#028193"/>
<path fill-rule="evenodd" clip-rule="evenodd" d="M23.6925 1.89729C23.6925 1.51699 23.5414 1.15227 23.2725 0.88336C23.0036 0.614451 22.6389 0.463379 22.2586 0.463379C21.8783 0.463379 21.5136 0.614451 21.2447 0.88336C20.9758 1.15227 20.8247 1.51699 20.8247 1.89729V2.37525H11.2653V1.89729C11.2653 1.51699 11.1142 1.15227 10.8453 0.88336C10.5764 0.614451 10.2117 0.463379 9.83141 0.463379C9.45111 0.463379 9.08639 0.614451 8.81748 0.88336C8.54857 1.15227 8.3975 1.51699 8.3975 1.89729V2.37525H5.05172C3.91083 2.37525 2.81667 2.82847 2.00994 3.6352C1.20322 4.44193 0.75 5.53609 0.75 6.67697L0.75 26.7517C0.75 27.8925 1.20322 28.9867 2.00994 29.7934C2.81667 30.6002 3.91083 31.0534 5.05172 31.0534H27.0383C28.1792 31.0534 29.2733 30.6002 30.0801 29.7934C30.8868 28.9867 31.34 27.8925 31.34 26.7517V6.67697C31.34 5.53609 30.8868 4.44193 30.0801 3.6352C29.2733 2.82847 28.1792 2.37525 27.0383 2.37525H23.6925V1.89729ZM8.3975 6.67697V5.24307H5.05172C4.67142 5.24307 4.3067 5.39414 4.03779 5.66305C3.76888 5.93196 3.61781 6.29668 3.61781 6.67697V26.7517C3.61781 27.5432 4.2602 28.1856 5.05172 28.1856H27.0383C27.4186 28.1856 27.7833 28.0345 28.0522 27.7656C28.3211 27.4967 28.4722 27.132 28.4722 26.7517V6.67697C28.4722 6.29668 28.3211 5.93196 28.0522 5.66305C27.7833 5.39414 27.4186 5.24307 27.0383 5.24307H23.6925V6.67697C23.6925 7.05727 23.5414 7.42199 23.2725 7.6909C23.0036 7.95981 22.6389 8.11088 22.2586 8.11088C21.8783 8.11088 21.5136 7.95981 21.2447 7.6909C20.9758 7.42199 20.8247 7.05727 20.8247 6.67697V5.24307H11.2653V6.67697C11.2653 7.05727 11.1142 7.42199 10.8453 7.6909C10.5764 7.95981 10.2117 8.11088 9.83141 8.11088C9.45111 8.11088 9.08639 7.95981 8.81748 7.6909C8.54857 7.42199 8.3975 7.05727 8.3975 6.67697Z" fill="#028193"/>
</g>
<defs>
<clipPath id="clip0_167_4306">
<rect width="30.59" height="30.59" fill="white" transform="translate(0.753906 0.463379)"/>
</clipPath>
</defs>
</svg>
