<svg width="27" height="27" viewBox="0 0 27 27" fill="none" xmlns="http://www.w3.org/2000/svg">
<path fill-rule="evenodd" clip-rule="evenodd" d="M14.6385 7.04208C14.5348 6.8281 14.373 6.64763 14.1716 6.52137C13.9701 6.3951 13.7372 6.32812 13.4994 6.32812C13.2617 6.32813 13.0287 6.3951 12.8273 6.52137C12.6258 6.64763 12.464 6.8281 12.3604 7.04208L10.4366 11.0229L6.14023 11.6641C5.90835 11.699 5.6907 11.7975 5.51156 11.9488C5.33241 12.1001 5.19881 12.2981 5.12567 12.5209C5.05252 12.7437 5.04269 12.9824 5.09728 13.2104C5.15188 13.4385 5.26875 13.6468 5.43485 13.8123L8.55673 16.9173L7.81929 21.3048C7.7798 21.5383 7.80661 21.7782 7.89666 21.9972C7.98672 22.2162 8.13641 22.4056 8.32872 22.5437C8.52103 22.6819 8.74825 22.7633 8.98455 22.7788C9.22084 22.7943 9.45674 22.7431 9.66542 22.6312L13.4994 20.5708L17.3334 22.6295C17.542 22.7413 17.7777 22.7924 18.0138 22.777C18.2499 22.7616 18.4769 22.6803 18.6692 22.5423C18.8614 22.4044 19.0111 22.2153 19.1014 21.9966C19.1916 21.7778 19.2187 21.5382 19.1795 21.3048L18.4421 16.914L21.564 13.8106C21.7301 13.6451 21.847 13.4368 21.9015 13.2087C21.9561 12.9807 21.9463 12.742 21.8732 12.5192C21.8 12.2964 21.6664 12.0984 21.4873 11.9471C21.3081 11.7958 21.0905 11.6973 20.8586 11.6625L16.5639 11.0212L14.6402 7.04039L14.6385 7.04208ZM12.4228 12.7273L13.4994 10.4998L14.576 12.7273C14.6659 12.9128 14.7997 13.0736 14.9659 13.1957C15.1321 13.3177 15.3255 13.3973 15.5295 13.4276L17.9915 13.7955L16.1927 15.5825C16.0494 15.7253 15.9425 15.9003 15.8809 16.0929C15.8192 16.2855 15.8046 16.4901 15.8383 16.6895L16.2551 19.1803L14.0985 18.0226C13.9143 17.9237 13.7085 17.8719 13.4994 17.8719C13.2903 17.8719 13.0845 17.9237 12.9004 18.0226L10.7437 19.1803L11.1622 16.6895C11.1957 16.49 11.1808 16.2853 11.1189 16.0927C11.0569 15.9001 10.9497 15.7251 10.8062 15.5825L9.00729 13.7938L11.471 13.4276C11.6747 13.3971 11.8678 13.3173 12.0337 13.1953C12.1995 13.0733 12.3331 12.9126 12.4228 12.7273Z" fill="#028193"/>
<path fill-rule="evenodd" clip-rule="evenodd" d="M20.25 1.26562C20.25 0.92996 20.1167 0.608044 19.8793 0.370693C19.642 0.133342 19.32 0 18.9844 0C18.6487 0 18.3268 0.133342 18.0894 0.370693C17.8521 0.608044 17.7188 0.92996 17.7188 1.26562V1.6875H9.28125V1.26562C9.28125 0.92996 9.14791 0.608044 8.91056 0.370693C8.67321 0.133342 8.35129 0 8.01562 0C7.67996 0 7.35804 0.133342 7.12069 0.370693C6.88334 0.608044 6.75 0.92996 6.75 1.26562V1.6875H3.79688C2.78988 1.6875 1.82413 2.08753 1.11208 2.79958C0.400027 3.51163 0 4.47738 0 5.48438L0 23.2031C0 24.2101 0.400027 25.1759 1.11208 25.8879C1.82413 26.6 2.78988 27 3.79688 27H23.2031C24.2101 27 25.1759 26.6 25.8879 25.8879C26.6 25.1759 27 24.2101 27 23.2031V5.48438C27 4.47738 26.6 3.51163 25.8879 2.79958C25.1759 2.08753 24.2101 1.6875 23.2031 1.6875H20.25V1.26562ZM6.75 5.48438V4.21875H3.79688C3.46121 4.21875 3.13929 4.35209 2.90194 4.58944C2.66459 4.82679 2.53125 5.14871 2.53125 5.48438V23.2031C2.53125 23.9018 3.09825 24.4688 3.79688 24.4688H23.2031C23.5388 24.4688 23.8607 24.3354 24.0981 24.0981C24.3354 23.8607 24.4688 23.5388 24.4688 23.2031V5.48438C24.4688 5.14871 24.3354 4.82679 24.0981 4.58944C23.8607 4.35209 23.5388 4.21875 23.2031 4.21875H20.25V5.48438C20.25 5.82004 20.1167 6.14196 19.8793 6.37931C19.642 6.61666 19.32 6.75 18.9844 6.75C18.6487 6.75 18.3268 6.61666 18.0894 6.37931C17.8521 6.14196 17.7188 5.82004 17.7188 5.48438V4.21875H9.28125V5.48438C9.28125 5.82004 9.14791 6.14196 8.91056 6.37931C8.67321 6.61666 8.35129 6.75 8.01562 6.75C7.67996 6.75 7.35804 6.61666 7.12069 6.37931C6.88334 6.14196 6.75 5.82004 6.75 5.48438Z" fill="#028193"/>
</svg>
