<svg width="183" height="154" viewBox="0 0 183 154" fill="none" xmlns="http://www.w3.org/2000/svg">
<mask id="path-1-inside-1_251_8935" fill="white">
<path d="M0 10.7449C0 5.22202 4.47715 0.744873 10 0.744873H172.883C178.406 0.744873 182.883 5.22203 182.883 10.7449V143.745C182.883 149.268 178.406 153.745 172.883 153.745H10C4.47715 153.745 0 149.268 0 143.745V10.7449Z"/>
</mask>
<path d="M-7 10.7449C-7 1.35603 0.611159 -6.25513 10 -6.25513H165.883C175.272 -6.25513 182.883 1.35603 182.883 10.7449C182.883 9.08802 178.406 7.74487 172.883 7.74487H10C8.34315 7.74487 7 9.08802 7 10.7449H-7ZM182.883 153.745H0H182.883ZM10 153.745C0.611159 153.745 -7 146.134 -7 136.745V10.7449C-7 1.35603 0.611159 -6.25513 10 -6.25513V7.74487C8.34315 7.74487 7 9.08802 7 10.7449V143.745C7 149.268 8.34315 153.745 10 153.745ZM182.883 0.744873V153.745V0.744873Z" fill="url(#paint0_linear_251_8935)" mask="url(#path-1-inside-1_251_8935)"/>
<defs>
<linearGradient id="paint0_linear_251_8935" x1="6" y1="0.617432" x2="91" y2="69.1174" gradientUnits="userSpaceOnUse">
<stop stop-color="#038D9F"/>
<stop offset="1" stop-color="#FF7D73"/>
</linearGradient>
</defs>
</svg>
