<svg width="32" height="32" viewBox="0 0 32 32" fill="none" xmlns="http://www.w3.org/2000/svg">
<g clip-path="url(#clip0_385_8555)">
<path d="M30.7766 1.79102H1.29701C0.715515 1.79102 0.244141 2.26245 0.244141 2.84388V29.3756C0.244141 29.957 0.715515 30.4284 1.29701 30.4284H30.7767C31.3581 30.4284 31.8296 29.9571 31.8296 29.3756V2.84388C31.8295 2.26245 31.3581 1.79102 30.7766 1.79102ZM8.80729 28.3227H2.34981V9.51191H8.80729V28.3227ZM29.7238 28.3227H10.913V9.51191H29.7238V28.3227H29.7238ZM29.7238 7.40624H9.86077H2.34981V3.89675H29.7238V7.40624H29.7238Z" fill="#028193"/>
<path d="M4.24683 6.35109C4.63449 6.35109 4.94874 6.03683 4.94874 5.64918C4.94874 5.26152 4.63449 4.94727 4.24683 4.94727C3.85918 4.94727 3.54492 5.26152 3.54492 5.64918C3.54492 6.03683 3.85918 6.35109 4.24683 6.35109Z" fill="#028193"/>
<path d="M7.04761 6.35084C7.43527 6.35084 7.74953 6.03659 7.74953 5.64893C7.74953 5.26128 7.43527 4.94702 7.04761 4.94702C6.65996 4.94702 6.3457 5.26128 6.3457 5.64893C6.3457 6.03659 6.65996 6.35084 7.04761 6.35084Z" fill="#028193"/>
<path d="M9.86011 6.35109C10.2478 6.35109 10.562 6.03683 10.562 5.64918C10.562 5.26152 10.2478 4.94727 9.86011 4.94727C9.47246 4.94727 9.1582 5.26152 9.1582 5.64918C9.1582 6.03683 9.47246 6.35109 9.86011 6.35109Z" fill="#028193"/>
<path d="M6.81486 12.74H4.36372C3.82325 12.74 3.3491 13.1359 3.28982 13.6731C3.2198 14.3082 3.71511 14.8457 4.33608 14.8457H6.78716C7.32762 14.8457 7.80177 14.4498 7.86106 13.9126C7.93114 13.2775 7.43571 12.74 6.81486 12.74Z" fill="#028193"/>
<path d="M6.81486 17.864H4.36372C3.82325 17.864 3.3491 18.2599 3.28982 18.7971C3.2198 19.4322 3.71511 19.9697 4.33608 19.9697H6.78716C7.32762 19.9697 7.80177 19.5738 7.86106 19.0366C7.93114 18.4016 7.43571 17.864 6.81486 17.864Z" fill="#028193"/>
<path d="M6.81486 22.9878H4.36372C3.82325 22.9878 3.3491 23.3837 3.28982 23.9209C3.2198 24.556 3.71511 25.0935 4.33608 25.0935H6.78716C7.32762 25.0935 7.80177 24.6976 7.86106 24.1604C7.93114 23.5253 7.43571 22.9878 6.81486 22.9878Z" fill="#028193"/>
<path d="M22.9307 18.8921C25.5003 16.5149 23.8154 12.1987 20.3118 12.1987C16.8067 12.1987 15.1239 16.5154 17.6928 18.8921C16.93 19.5978 16.4513 20.6064 16.4513 21.725V24.5326C16.4513 25.1141 16.9227 25.5855 17.5042 25.5855H23.1194C23.7008 25.5855 24.1722 25.1141 24.1722 24.5326V21.725C24.1722 20.6064 23.6936 19.5978 22.9307 18.8921ZM20.3121 14.3293C22.631 14.3293 22.631 17.8388 20.3121 17.8388C17.9931 17.8388 17.9931 14.3293 20.3121 14.3293ZM22.0665 23.4798H18.5571V21.7613C18.5571 20.866 19.2844 20.0424 20.1772 19.9754C21.2053 19.8983 22.0665 20.713 22.0665 21.7251V23.4798Z" fill="#028193"/>
</g>
<defs>
<clipPath id="clip0_385_8555">
<rect width="31.5854" height="31.5854" fill="white" transform="translate(0.244141 0.31665)"/>
</clipPath>
</defs>
</svg>
