<svg width="19" height="19" viewBox="0 0 19 19" fill="none" xmlns="http://www.w3.org/2000/svg">
<g clip-path="url(#clip0_350_1981)">
<path d="M18.3667 0.886719H0.633346C0.283553 0.886719 0 1.17031 0 1.52006V17.4801C0 17.8298 0.283553 18.1134 0.633346 18.1134H18.3667C18.7164 18.1134 19 17.8299 19 17.4801V1.52006C19 1.17031 18.7164 0.886719 18.3667 0.886719ZM5.15112 16.8467H1.26665V5.53118H5.15112V16.8467ZM17.7333 16.8467H6.41777V5.53118H17.7333V16.8467H17.7333ZM17.7333 4.26452H5.78483H1.26665V2.15341H17.7333V4.26452H17.7333Z" fill="#002C32"/>
<path d="M2.40661 3.63011C2.6398 3.63011 2.82884 3.44107 2.82884 3.20788C2.82884 2.97468 2.6398 2.78564 2.40661 2.78564C2.17341 2.78564 1.98438 2.97468 1.98438 3.20788C1.98438 3.44107 2.17341 3.63011 2.40661 3.63011Z" fill="#002C32"/>
<path d="M4.09411 3.63011C4.3273 3.63011 4.51634 3.44107 4.51634 3.20788C4.51634 2.97468 4.3273 2.78564 4.09411 2.78564C3.86091 2.78564 3.67188 2.97468 3.67188 3.20788C3.67188 3.44107 3.86091 3.63011 4.09411 3.63011Z" fill="#002C32"/>
<path d="M5.78551 3.63011C6.0187 3.63011 6.20774 3.44107 6.20774 3.20788C6.20774 2.97468 6.0187 2.78564 5.78551 2.78564C5.55232 2.78564 5.36328 2.97468 5.36328 3.20788C5.36328 3.44107 5.55232 3.63011 5.78551 3.63011Z" fill="#002C32"/>
<path d="M3.95648 7.47363H2.48201C2.15689 7.47363 1.87167 7.7118 1.83601 8.03495C1.79389 8.41699 2.09184 8.74032 2.46538 8.74032H3.93981C4.26493 8.74032 4.55015 8.50216 4.58582 8.17901C4.62797 7.79697 4.32995 7.47363 3.95648 7.47363Z" fill="#002C32"/>
<path d="M3.95648 10.5557H2.48201C2.15689 10.5557 1.87167 10.7938 1.83601 11.117C1.79389 11.499 2.09184 11.8224 2.46538 11.8224H3.93981C4.26493 11.8224 4.55015 11.5842 4.58582 11.261C4.62797 10.879 4.32995 10.5557 3.95648 10.5557Z" fill="#002C32"/>
<path d="M3.95648 13.6377H2.48201C2.15689 13.6377 1.87167 13.8759 1.83601 14.199C1.79389 14.5811 2.09184 14.9044 2.46538 14.9044H3.93981C4.26493 14.9044 4.55015 14.6662 4.58582 14.3431C4.62797 13.961 4.32995 13.6377 3.95648 13.6377Z" fill="#002C32"/>
<path d="M13.6516 11.1736C15.1973 9.74357 14.1838 7.14722 12.0762 7.14722C9.96775 7.14722 8.95552 9.74387 10.5008 11.1736C10.042 11.5981 9.754 12.2048 9.754 12.8777V14.5666C9.754 14.9164 10.0376 15.2 10.3873 15.2H13.7651C14.1149 15.2 14.3985 14.9164 14.3985 14.5666V12.8777C14.3985 12.2048 14.1105 11.5981 13.6516 11.1736ZM12.0764 8.42883C13.4714 8.42883 13.4714 10.5399 12.0764 10.5399C10.6815 10.5399 10.6814 8.42883 12.0764 8.42883ZM13.1318 13.9333H11.0207V12.8995C11.0207 12.361 11.4582 11.8655 11.9953 11.8252C12.6137 11.7789 13.1318 12.2689 13.1318 12.8778V13.9333Z" fill="#002C32"/>
</g>
<defs>
<clipPath id="clip0_350_1981">
<rect width="19" height="19" fill="white"/>
</clipPath>
</defs>
</svg>
