<svg width="26" height="26" viewBox="0 0 26 26" fill="none" xmlns="http://www.w3.org/2000/svg">
<g clip-path="url(#clip0_380_3729)">
<path d="M25.1333 1.21338H0.866683C0.38802 1.21338 0 1.60145 0 2.08006V23.9201C0 24.3987 0.38802 24.7867 0.866683 24.7867H25.1334C25.612 24.7867 26 24.3987 26 23.9201V2.08006C26 1.60145 25.612 1.21338 25.1333 1.21338ZM7.04889 23.0534H1.73332V7.56896H7.04889V23.0534ZM24.2667 23.0534H8.78221V7.56896H24.2666V23.0534H24.2667ZM24.2667 5.83564H7.91609H1.73332V2.94675H24.2666V5.83564H24.2667Z" fill="#028193"/>
<path d="M3.29263 4.96735C3.61174 4.96735 3.87042 4.70866 3.87042 4.38956C3.87042 4.07045 3.61174 3.81177 3.29263 3.81177C2.97353 3.81177 2.71484 4.07045 2.71484 4.38956C2.71484 4.70866 2.97353 4.96735 3.29263 4.96735Z" fill="#028193"/>
<path d="M5.60513 4.96735C5.92424 4.96735 6.18292 4.70866 6.18292 4.38956C6.18292 4.07045 5.92424 3.81177 5.60513 3.81177C5.28603 3.81177 5.02734 4.07045 5.02734 4.38956C5.02734 4.70866 5.28603 4.96735 5.60513 4.96735Z" fill="#028193"/>
<path d="M7.91763 4.96735C8.23674 4.96735 8.49542 4.70866 8.49542 4.38956C8.49542 4.07045 8.23674 3.81177 7.91763 3.81177C7.59853 3.81177 7.33984 4.07045 7.33984 4.38956C7.33984 4.70866 7.59853 4.96735 7.91763 4.96735Z" fill="#028193"/>
<path d="M5.41104 10.2268H3.39335C2.94846 10.2268 2.55815 10.5527 2.50935 10.9949C2.45171 11.5177 2.85944 11.9602 3.3706 11.9602H5.38824C5.83314 11.9602 6.22344 11.6343 6.27224 11.1921C6.32993 10.6693 5.92211 10.2268 5.41104 10.2268Z" fill="#028193"/>
<path d="M5.41104 14.4443H3.39335C2.94846 14.4443 2.55815 14.7703 2.50935 15.2125C2.45171 15.7352 2.85944 16.1777 3.3706 16.1777H5.38824C5.83314 16.1777 6.22344 15.8518 6.27224 15.4096C6.32993 14.8868 5.92211 14.4443 5.41104 14.4443Z" fill="#028193"/>
<path d="M5.41104 18.6621H3.39335C2.94846 18.6621 2.55815 18.988 2.50935 19.4302C2.45171 19.953 2.85944 20.3955 3.3706 20.3955H5.38824C5.83314 20.3955 6.22344 20.0696 6.27224 19.6274C6.32993 19.1046 5.92211 18.6621 5.41104 18.6621Z" fill="#028193"/>
<path d="M18.6814 15.2903C20.7966 13.3334 19.4096 9.78052 16.5256 9.78052C13.6403 9.78052 12.2551 13.3338 14.3698 15.2903C13.7418 15.8712 13.3478 16.7014 13.3478 17.6223V19.9334C13.3478 20.412 13.7358 20.8 14.2145 20.8H18.8367C19.3153 20.8 19.7034 20.412 19.7034 19.9334V17.6223C19.7034 16.7014 19.3093 15.8712 18.6814 15.2903ZM16.5258 11.5343C18.4347 11.5343 18.4347 14.4232 16.5258 14.4232C14.617 14.4232 14.6169 11.5343 16.5258 11.5343ZM17.97 19.0667H15.0812V17.6521C15.0812 16.9151 15.6799 16.2372 16.4148 16.182C17.2611 16.1186 17.97 16.7892 17.97 17.6223V19.0667Z" fill="#028193"/>
</g>
<defs>
<clipPath id="clip0_380_3729">
<rect width="26" height="26" fill="white"/>
</clipPath>
</defs>
</svg>
