<svg width="36" height="39" viewBox="0 0 36 39" fill="none" xmlns="http://www.w3.org/2000/svg">
<path d="M17.7183 19.5095L14.5944 16.3855C14.5133 16.2976 14.415 16.2275 14.3055 16.1795C14.196 16.1315 14.0777 16.1067 13.9581 16.1067C13.8386 16.1067 13.7203 16.1315 13.6108 16.1795C13.5013 16.2275 13.4029 16.2976 13.3219 16.3855L12.0876 17.658C12.0032 17.7372 11.936 17.8328 11.89 17.9389C11.844 18.0451 11.8203 18.1595 11.8203 18.2752C11.8203 18.3909 11.844 18.5053 11.89 18.6114C11.936 18.7176 12.0032 18.8132 12.0876 18.8923L16.5031 23.2252C16.6636 23.3923 16.8562 23.5253 17.0695 23.616C17.2827 23.7068 17.5121 23.7534 17.7438 23.7532C17.9746 23.7537 18.2031 23.7071 18.4153 23.6163C18.6275 23.5255 18.819 23.3924 18.9781 23.2252L27.9555 14.2096C28.0452 14.1296 28.1169 14.0316 28.166 13.9219C28.2152 13.8123 28.2406 13.6935 28.2406 13.5733C28.2406 13.4532 28.2152 13.3344 28.166 13.2247C28.1169 13.1151 28.0452 13.0171 27.9555 12.9371L26.7212 11.7028C26.6415 11.6182 26.5453 11.5509 26.4387 11.5048C26.332 11.4588 26.217 11.4351 26.1008 11.4351C25.9847 11.4351 25.8697 11.4588 25.763 11.5048C25.6564 11.5509 25.5602 11.6182 25.4805 11.7028L17.7183 19.5095Z" fill="white"/>
<path d="M31.6515 21.7681C31.9909 19.96 31.9909 18.1045 31.6515 16.2964L34.5782 13.815C35.055 13.4113 35.3785 12.8558 35.4943 12.2418C35.6102 11.6278 35.5114 10.9927 35.2145 10.4429L33.942 8.21609C33.7059 7.82125 33.3698 7.49569 32.9676 7.27227C32.5655 7.04885 32.1115 6.93548 31.6515 6.9436C31.344 6.93891 31.0394 7.00418 30.7608 7.13447L27.0705 8.47059C25.692 7.26386 24.0933 6.33488 22.3623 5.73474L21.7261 1.9809C21.6018 1.39306 21.2694 0.869863 20.7902 0.507495C20.3109 0.145127 19.717 -0.0320503 19.1175 0.00853977H16.5725C15.9711 -0.0417982 15.3723 0.131659 14.8909 0.495646C14.4095 0.859633 14.0794 1.38853 13.9639 1.9809L13.3277 5.67111C11.5689 6.25202 9.94573 7.18262 8.55584 8.40696L4.802 7.07085C4.51239 6.97695 4.21392 6.91299 3.91126 6.87998C3.45234 6.87755 3.00053 6.99335 2.59935 7.21622C2.19818 7.43909 1.86117 7.76153 1.62078 8.15247L0.348293 10.3793C0.0365136 10.9254 -0.0706852 11.5646 0.0458961 12.1824C0.162477 12.8003 0.495223 13.3565 0.984537 13.7514L3.91126 16.2328C3.73205 17.1335 3.64676 18.0503 3.65676 18.9686C3.64378 19.887 3.7291 20.8042 3.91126 21.7045L0.984537 24.2176C0.507725 24.6214 0.184266 25.1769 0.0684218 25.7909C-0.0474227 26.4048 0.0513934 27.04 0.348293 27.5897L1.62078 29.8166C1.85689 30.2114 2.19299 30.537 2.59514 30.7604C2.9973 30.9838 3.45128 31.0972 3.91126 31.0891C4.2188 31.0938 4.52339 31.0285 4.802 30.8982L8.49222 29.5621C9.87073 30.7688 11.4694 31.6978 13.2004 32.2979L13.8367 36.1154C13.9427 36.7275 14.2636 37.2817 14.7419 37.6783C15.2201 38.0749 15.8241 38.2877 16.4453 38.2786H18.9902C19.6179 38.275 20.2241 38.0494 20.7015 37.6419C21.1789 37.2344 21.4967 36.6711 21.5988 36.0518L22.2351 32.2343C24.0739 31.6124 25.7637 30.6158 27.1978 29.3076L30.6335 30.6437C30.9448 30.7377 31.2644 30.8016 31.5879 30.8346C32.0468 30.837 32.4986 30.7212 32.8998 30.4983C33.301 30.2755 33.638 29.953 33.8784 29.5621L35.0872 27.4625C35.4272 26.9683 35.564 26.3623 35.4692 25.77C35.3745 25.1778 35.0554 24.6447 34.5782 24.2813L31.6515 21.7681ZM29.4946 15.8256L26.5997 18.7268V19.2231C26.607 21.1714 25.9684 23.0673 24.7837 24.6141C23.5991 26.1609 21.9352 27.2714 20.0522 27.7721C18.1693 28.2728 16.1736 28.1353 14.3771 27.3812C12.5806 26.6271 11.0847 25.2989 10.1233 23.6042C9.16193 21.9096 8.78927 19.9441 9.06363 18.0152C9.33798 16.0863 10.2439 14.3027 11.6396 12.9433C13.0354 11.5839 14.8423 10.7255 16.7778 10.5021C18.7133 10.2788 20.6682 10.7033 22.3369 11.7091L23.8957 10.1566C24.1822 9.86635 24.5234 9.63586 24.8997 9.47854C25.276 9.32123 25.6797 9.24022 26.0875 9.24022C26.4954 9.24022 26.8991 9.32123 27.2754 9.47854C27.6517 9.63586 27.993 9.86635 28.2794 10.1566L29.5519 11.4291C29.8593 11.7364 30.099 12.1046 30.2557 12.51C30.4124 12.9154 30.4826 13.3491 30.4617 13.7832C30.4216 14.565 30.074 15.2991 29.4946 15.8256Z" fill="white"/>
</svg>
