<svg width="19" height="21" viewBox="0 0 19 21" fill="none" xmlns="http://www.w3.org/2000/svg">
<path d="M10.1043 3.73647V1.15317C10.1043 0.970052 9.9604 0.826172 9.77728 0.826172C9.59416 0.826172 9.45028 0.970052 9.45028 1.15317V3.73647C8.34502 3.89343 7.48828 4.84826 7.48828 5.9993C7.48828 7.15034 8.34502 8.10518 9.45028 8.26214V19.7333C9.45028 19.9164 9.59416 20.0603 9.77728 20.0603C9.9604 20.0603 10.1043 19.9164 10.1043 19.7333V8.26214C11.2095 8.10518 12.0663 7.15034 12.0663 5.9993C12.0663 4.84826 11.2095 3.89343 10.1043 3.73647ZM9.77728 7.6343C8.87476 7.6343 8.14228 6.90182 8.14228 5.9993C8.14228 5.09678 8.87476 4.3643 9.77728 4.3643C10.6798 4.3643 11.4123 5.09678 11.4123 5.9993C11.4123 6.90182 10.6798 7.6343 9.77728 7.6343Z" fill="#6941C6"/>
<path d="M9.77731 4.85498C9.14947 4.85498 8.63281 5.37164 8.63281 5.99948C8.63281 6.09104 8.70475 6.16298 8.79631 6.16298C8.88787 6.16298 8.95981 6.09104 8.95981 5.99948C8.95981 5.54822 9.32605 5.18198 9.77731 5.18198C9.86887 5.18198 9.94081 5.11004 9.94081 5.01848C9.94081 4.92692 9.86887 4.85498 9.77731 4.85498Z" fill="#6941C6"/>
<path d="M18.6053 15.1552C18.6053 14.0042 17.7486 13.0493 16.6433 12.8924V1.42124C16.6433 1.23812 16.4995 1.09424 16.3163 1.09424C16.1332 1.09424 15.9893 1.23812 15.9893 1.42124V12.8924C14.8841 13.0493 14.0273 14.0042 14.0273 15.1552C14.0273 16.3062 14.8841 17.2611 15.9893 17.418V19.7332C15.9893 19.9163 16.1332 20.0602 16.3163 20.0602C16.4995 20.0602 16.6433 19.9163 16.6433 19.7332V17.418C17.7486 17.2611 18.6053 16.3062 18.6053 15.1552ZM16.3163 16.7902C15.4138 16.7902 14.6813 16.0577 14.6813 15.1552C14.6813 14.2527 15.4138 13.5202 16.3163 13.5202C17.2189 13.5202 17.9513 14.2527 17.9513 15.1552C17.9513 16.0577 17.2189 16.7902 16.3163 16.7902Z" fill="#6941C6"/>
<path d="M16.3164 14.0107C15.6885 14.0107 15.1719 14.5274 15.1719 15.1552C15.1719 15.2468 15.2438 15.3187 15.3354 15.3187C15.4269 15.3187 15.4989 15.2468 15.4989 15.1552C15.4989 14.704 15.8651 14.3377 16.3164 14.3377C16.4079 14.3377 16.4799 14.2658 16.4799 14.1742C16.4799 14.0827 16.4079 14.0107 16.3164 14.0107Z" fill="#6941C6"/>
<path d="M3.56521 12.8924V1.4213C3.56521 1.23818 3.42133 1.0943 3.23821 1.0943C3.05509 1.0943 2.91122 1.23818 2.91122 1.4213V12.8924C1.80596 13.0494 0.949219 14.0042 0.949219 15.1553C0.949219 16.3063 1.80596 17.2611 2.91122 17.4181V19.7333C2.91122 19.9164 3.05509 20.0603 3.23821 20.0603C3.42133 20.0603 3.56521 19.9164 3.56521 19.7333V17.4181C4.67047 17.2611 5.52721 16.3063 5.52721 15.1553C5.52721 14.0042 4.67047 13.0494 3.56521 12.8924ZM3.23821 16.7903C2.3357 16.7903 1.60322 16.0578 1.60322 15.1553C1.60322 14.2528 2.3357 13.5203 3.23821 13.5203C4.14073 13.5203 4.87321 14.2528 4.87321 15.1553C4.87321 16.0578 4.14073 16.7903 3.23821 16.7903Z" fill="#6941C6"/>
<path d="M3.23825 14.0109C2.61041 14.0109 2.09375 14.5276 2.09375 15.1554C2.09375 15.247 2.16569 15.3189 2.25725 15.3189C2.34881 15.3189 2.42075 15.247 2.42075 15.1554C2.42075 14.7042 2.78699 14.3379 3.23825 14.3379C3.32981 14.3379 3.40175 14.266 3.40175 14.1744C3.40175 14.0829 3.32981 14.0109 3.23825 14.0109Z" fill="#6941C6"/>
</svg>
