<svg width="36" height="36" viewBox="0 0 36 36" fill="none" xmlns="http://www.w3.org/2000/svg">
<path d="M26.357 19.2903L20.5703 22.5036V28.9336L26.357 32.1469L32.1438 28.9336V22.5036L26.357 19.2903ZM29.5703 27.4219L26.357 29.2079L23.1438 27.4219V24.0188L26.357 22.2329L29.5703 24.0188V27.4219Z" fill="#028193"/>
<path d="M25.0908 25.9263C25.1179 26.0931 25.1775 26.253 25.2663 26.3967C25.3552 26.5404 25.4714 26.6653 25.6085 26.7641C25.7456 26.8629 25.9008 26.9338 26.0652 26.9726C26.2297 27.0114 26.4002 27.0175 26.5669 26.9904C26.7337 26.9634 26.8936 26.9037 27.0373 26.8149C27.1811 26.7261 27.3059 26.6098 27.4047 26.4728C27.5035 26.3357 27.5744 26.1805 27.6132 26.016C27.652 25.8516 27.6581 25.6811 27.6311 25.5143C27.604 25.3475 27.5444 25.1877 27.4555 25.0439C27.3667 24.9002 27.2504 24.7753 27.1134 24.6765C26.9763 24.5777 26.8211 24.5069 26.6567 24.468C26.4922 24.4292 26.3217 24.4231 26.1549 24.4502C25.9881 24.4772 25.8283 24.5369 25.6846 24.6257C25.5408 24.7145 25.416 24.8308 25.3172 24.9679C25.2183 25.1049 25.1475 25.2601 25.1087 25.4246C25.0698 25.589 25.0638 25.7595 25.0908 25.9263Z" fill="#028193"/>
<path d="M24.2109 16.868C23.7645 16.65 23.3074 16.4532 22.8434 16.2844C24.5941 14.8676 25.7121 12.7055 25.7121 10.2868C25.7121 6.03286 22.2527 2.57349 17.9988 2.57349C13.7449 2.57349 10.2855 6.03286 10.2855 10.2868C10.2855 12.709 11.407 14.8747 13.1578 16.2879C7.73672 18.2708 3.85547 23.4774 3.85547 29.577H6.42539C6.42539 23.1961 11.618 18.0071 17.9953 18.0071C19.7777 18.0071 21.4863 18.4008 23.0754 19.1778L24.2109 16.868ZM17.9988 5.14341C20.8359 5.14341 23.1422 7.44966 23.1422 10.2868C23.1422 13.1239 20.8359 15.4301 17.9988 15.4301C15.1617 15.4301 12.8555 13.1239 12.8555 10.2868C12.8555 7.44966 15.1652 5.14341 17.9988 5.14341Z" fill="#028193"/>
</svg>
