<svg width="24" height="24" viewBox="0 0 24 24" fill="none" xmlns="http://www.w3.org/2000/svg">
<path d="M17.5707 12.8601L13.7129 15.0023V19.289L17.5707 21.4312L21.4285 19.289V15.0023L17.5707 12.8601ZM19.7129 18.2812L17.5707 19.4718L15.4285 18.2812V16.0125L17.5707 14.8218L19.7129 16.0125V18.2812Z" fill="#002C32"/>
<path d="M16.7259 17.2842C16.7439 17.3954 16.7837 17.502 16.8429 17.5978C16.9021 17.6936 16.9796 17.7769 17.071 17.8427C17.1624 17.9086 17.2659 17.9558 17.3755 17.9817C17.4851 18.0076 17.5988 18.0117 17.71 17.9936C17.8212 17.9756 17.9277 17.9358 18.0236 17.8766C18.1194 17.8174 18.2026 17.7399 18.2685 17.6485C18.3344 17.5571 18.3816 17.4537 18.4075 17.344C18.4334 17.2344 18.4374 17.1207 18.4194 17.0095C18.4014 16.8983 18.3616 16.7918 18.3024 16.696C18.2432 16.6001 18.1657 16.5169 18.0743 16.451C17.9829 16.3851 17.8794 16.3379 17.7698 16.312C17.6602 16.2861 17.5465 16.2821 17.4353 16.3001C17.3241 16.3182 17.2176 16.3579 17.1217 16.4171C17.0259 16.4764 16.9427 16.5539 16.8768 16.6452C16.8109 16.7366 16.7637 16.8401 16.7378 16.9497C16.7119 17.0594 16.7079 17.173 16.7259 17.2842Z" fill="#002C32"/>
<path d="M16.1406 11.2453C15.843 11.0999 15.5383 10.9687 15.2289 10.8562C16.3961 9.91167 17.1414 8.47026 17.1414 6.85776C17.1414 4.02183 14.8352 1.71558 11.9992 1.71558C9.16328 1.71558 6.85703 4.02183 6.85703 6.85776C6.85703 8.47261 7.60469 9.91636 8.77188 10.8585C5.15781 12.1804 2.57031 15.6515 2.57031 19.7179H4.28359C4.28359 15.464 7.74531 12.0046 11.9969 12.0046C13.1852 12.0046 14.3242 12.2671 15.3836 12.7851L16.1406 11.2453ZM11.9992 3.42886C13.8906 3.42886 15.4281 4.96636 15.4281 6.85776C15.4281 8.74917 13.8906 10.2867 11.9992 10.2867C10.1078 10.2867 8.57031 8.74917 8.57031 6.85776C8.57031 4.96636 10.1102 3.42886 11.9992 3.42886Z" fill="#002C32"/>
</svg>
