<svg width="42" height="42" viewBox="0 0 42 42" fill="none" xmlns="http://www.w3.org/2000/svg">
<path d="M30.0709 22.2979L23.4844 25.9552V33.274L30.0709 36.9314L36.6574 33.274V25.9552L30.0709 22.2979ZM33.7283 31.5534L30.0709 33.5862L26.4135 31.5534V27.6799L30.0709 25.6471L33.7283 27.6799V31.5534Z" fill="#028193"/>
<path d="M28.6322 29.8511C28.663 30.041 28.7309 30.2229 28.832 30.3865C28.9331 30.5501 29.0654 30.6922 29.2214 30.8047C29.3774 30.9172 29.5541 30.9978 29.7412 31.042C29.9284 31.0862 30.1225 31.0931 30.3123 31.0623C30.5022 31.0315 30.6841 30.9636 30.8477 30.8625C31.0113 30.7614 31.1534 30.6291 31.2659 30.4731C31.3784 30.3171 31.459 30.1404 31.5032 29.9533C31.5474 29.7661 31.5543 29.572 31.5235 29.3822C31.4927 29.1923 31.4248 29.0104 31.3237 28.8468C31.2226 28.6832 31.0903 28.5411 30.9343 28.4286C30.7783 28.3161 30.6016 28.2355 30.4144 28.1913C30.2273 28.1471 30.0332 28.1402 29.8434 28.171C29.6535 28.2018 29.4716 28.2697 29.308 28.3708C29.1444 28.4719 29.0023 28.6042 28.8898 28.7602C28.7773 28.9162 28.6967 29.0929 28.6525 29.2801C28.6083 29.4672 28.6014 29.6613 28.6322 29.8511Z" fill="#028193"/>
<path d="M27.6337 19.5407C27.1255 19.2926 26.6053 19.0685 26.0771 18.8765C28.0698 17.2638 29.3423 14.8029 29.3423 12.0499C29.3423 7.20801 25.4048 3.27051 20.563 3.27051C15.7211 3.27051 11.7836 7.20801 11.7836 12.0499C11.7836 14.8069 13.0601 17.2718 15.0529 18.8805C8.88253 21.1373 4.46484 27.0636 4.46484 34.0062H7.38996C7.38996 26.7434 13.3002 20.8372 20.559 20.8372C22.5878 20.8372 24.5325 21.2854 26.3412 22.1697L27.6337 19.5407ZM20.563 6.19562C23.7922 6.19562 26.4172 8.82062 26.4172 12.0499C26.4172 15.2791 23.7922 17.9041 20.563 17.9041C17.3337 17.9041 14.7087 15.2791 14.7087 12.0499C14.7087 8.82062 17.3377 6.19562 20.563 6.19562Z" fill="#028193"/>
</svg>
