<svg width="64" height="53" viewBox="0 0 64 53" fill="none" xmlns="http://www.w3.org/2000/svg">
<path d="M57.9737 0H6.0253C2.71459 0 0.03125 2.73765 0.03125 6.11538V38.7308C0.03125 42.1085 2.71459 44.8462 6.0253 44.8462H24.0074V50.9615H21.0104C20.459 50.9615 20.0114 51.4182 20.0114 51.9808C20.0114 52.5434 20.459 53 21.0104 53H42.9886C43.54 53 43.9876 52.5434 43.9876 51.9808C43.9876 51.4182 43.54 50.9615 42.9886 50.9615H39.9916V44.8462H57.9737C61.2844 44.8462 63.9678 42.1085 63.9678 38.7308V6.11538C63.9678 2.73765 61.2844 0 57.9737 0ZM37.9936 50.9615H26.0055V44.8462H37.9936V50.9615ZM61.9697 38.7308C61.9697 40.9833 60.1815 42.8077 57.9737 42.8077H6.0253C3.81749 42.8077 2.02927 40.9833 2.02927 38.7308V6.11538C2.02927 3.86288 3.81749 2.03846 6.0253 2.03846H57.9737C60.1815 2.03846 61.9697 3.86288 61.9697 6.11538V38.7308ZM51.59 10.2535C50.0276 9.93954 48.643 10.865 48.1674 12.2308H35.9955V10.1923H28.0035V12.2308H15.8316C15.356 10.865 13.9694 9.93954 12.409 10.2535C11.2641 10.4838 10.331 11.4195 10.0913 12.5855C9.68167 14.5648 11.1502 16.3077 13.0184 16.3077C14.3211 16.3077 15.42 15.4536 15.8316 14.2692H28.0035V14.7258C19.2362 16.5543 12.5288 24.221 12.0473 33.5735C12.0173 34.1585 12.4729 34.6538 13.0483 34.6538C13.5738 34.6538 14.0154 34.238 14.0413 33.7019C14.4589 25.4155 20.3031 18.5969 28.0035 16.8051V18.3462H35.9955V16.803C43.6959 18.5969 49.5401 25.4155 49.9577 33.6998C49.9856 34.238 50.4252 34.6538 50.9507 34.6538C51.5261 34.6538 51.9817 34.1585 51.9517 33.5735C51.4702 24.221 44.7628 16.5543 35.9955 14.7258V14.2692H48.1674C48.581 15.4536 49.6779 16.3077 50.9807 16.3077C52.8488 16.3077 54.3173 14.5648 53.9097 12.5855C53.668 11.4195 52.7349 10.4838 51.59 10.2535ZM13.0184 14.2692C12.4669 14.2692 12.0193 13.8126 12.0193 13.25C12.0193 12.6874 12.4669 12.2308 13.0184 12.2308C13.5698 12.2308 14.0174 12.6874 14.0174 13.25C14.0174 13.8126 13.5698 14.2692 13.0184 14.2692ZM33.9975 16.3077H30.0015V12.2308H33.9975V16.3077ZM50.9807 14.2692C50.4292 14.2692 49.9816 13.8126 49.9816 13.25C49.9816 12.6874 50.4292 12.2308 50.9807 12.2308C51.5321 12.2308 51.9797 12.6874 51.9797 13.25C51.9797 13.8126 51.5321 14.2692 50.9807 14.2692Z" fill="url(#paint0_linear_251_8826)"/>
<defs>
<linearGradient id="paint0_linear_251_8826" x1="31.9995" y1="0" x2="31.9995" y2="53" gradientUnits="userSpaceOnUse">
<stop stop-color="#028193"/>
<stop offset="1" stop-color="#FC6E63"/>
</linearGradient>
</defs>
</svg>
