<svg width="15" height="9" viewBox="0 0 15 9" fill="none" xmlns="http://www.w3.org/2000/svg">
<path fill-rule="evenodd" clip-rule="evenodd" d="M14.8305 0.841495C14.7769 0.786077 14.7133 0.742108 14.6432 0.712109C14.5731 0.682108 14.498 0.666666 14.4221 0.666666C14.3462 0.666666 14.2711 0.682108 14.201 0.712109C14.1309 0.742108 14.0673 0.786077 14.0137 0.841495L7.49985 7.5624L0.985996 0.841495C0.877679 0.729753 0.730767 0.666979 0.577582 0.666979C0.424397 0.666979 0.277487 0.729753 0.169168 0.841495C0.0608501 0.953236 0 1.10479 0 1.26282C0 1.42084 0.0608501 1.5724 0.169168 1.68414L7.09143 8.82517C7.14502 8.88059 7.20868 8.92456 7.27876 8.95456C7.34884 8.98456 7.42397 9 7.49985 9C7.57573 9 7.65086 8.98456 7.72094 8.95456C7.79102 8.92456 7.85468 8.88059 7.90826 8.82517L14.8305 1.68414C14.8842 1.62886 14.9269 1.56319 14.9559 1.49089C14.985 1.4186 15 1.34109 15 1.26282C15 1.18454 14.985 1.10704 14.9559 1.03474C14.9269 0.962442 14.8842 0.896773 14.8305 0.841495Z" fill="#667085"/>
</svg>
