<svg width="17" height="10" viewBox="0 0 17 10" fill="none" xmlns="http://www.w3.org/2000/svg">
<path fill-rule="evenodd" clip-rule="evenodd" d="M16.8154 1.05437C16.757 0.995852 16.6877 0.949423 16.6113 0.917745C16.535 0.886065 16.4531 0.869759 16.3705 0.869759C16.2878 0.869759 16.206 0.886065 16.1296 0.917745C16.0533 0.949423 15.984 0.995852 15.9256 1.05437L8.82984 8.15138L1.73408 1.05437C1.61609 0.936377 1.45605 0.870089 1.28918 0.870089C1.12231 0.870089 0.962278 0.936377 0.844282 1.05437C0.726288 1.17237 0.66 1.3324 0.66 1.49927C0.66 1.66614 0.726288 1.82617 0.844282 1.94417L8.38494 9.48482C8.44331 9.54334 8.51265 9.58977 8.589 9.62145C8.66534 9.65313 8.74718 9.66943 8.82984 9.66943C8.91249 9.66943 8.99433 9.65313 9.07068 9.62145C9.14702 9.58977 9.21636 9.54334 9.27473 9.48482L16.8154 1.94417C16.8739 1.8858 16.9203 1.81645 16.952 1.74011C16.9837 1.66377 17 1.58192 17 1.49927C17 1.41662 16.9837 1.33477 16.952 1.25843C16.9203 1.18209 16.8739 1.11274 16.8154 1.05437Z" fill="white"/>
</svg>
