<svg width="28" height="33" viewBox="0 0 28 33" fill="none" xmlns="http://www.w3.org/2000/svg">
<path d="M26.3963 18.5588C26.9121 17.9704 27.2519 17.2198 27.2519 16.3917C27.2519 14.259 25.5171 12.5241 23.3854 12.5241H18.448C17.3635 12.474 17.0993 12.2687 17.0885 12.2599L17.0796 12.248C17.1091 11.9612 17.6061 11.2598 17.8498 10.9179C18.1995 10.4267 18.5296 9.96211 18.7182 9.44638L18.8017 9.22042C19.284 7.9227 20.1829 5.50707 19.2084 2.73093C18.618 1.04718 17.3045 0 15.7819 0C14.0088 0 12.5343 1.41856 12.1973 3.45106C12.0843 4.13478 10.5852 6.71249 7.72362 10.0771C6.93182 11.0084 6.03886 11.7825 5.09385 12.6018C4.34725 13.2481 3.57513 13.9161 2.7568 14.7345C0.610321 16.8799 -0.411335 20.5176 0.153562 23.9991C0.641819 27.013 2.21454 29.3235 4.58208 30.5073C6.52127 31.4769 10.2866 32.0191 13.1581 32.1252C14.3595 32.1694 15.2653 32.19 16.0079 32.19C17.4284 32.19 18.1347 32.1104 19.0287 32.0092L19.3303 31.9759L19.3814 31.9699L20.8323 31.7597L20.8598 31.7557C22.7391 31.4493 24.1026 29.848 24.1026 27.9481L24.0997 27.8115C25.197 27.1308 25.9112 25.9205 25.9112 24.5403C25.9112 24.0726 25.8394 23.666 25.7157 23.3133C26.4652 22.6079 26.9319 21.6089 26.9319 20.5087C26.9317 19.8063 26.7382 19.1364 26.3963 18.5588ZM23.4865 18.8142H24.6182C25.0809 19.2326 25.3737 19.8339 25.3737 20.5087C25.3737 21.2288 25.0367 21.8634 24.5181 22.2838H23.0013C22.7144 22.2838 22.4826 22.5157 22.4826 22.8025C22.4826 23.0893 22.7145 23.3222 23.0013 23.3222H23.9483C24.2627 23.6749 24.3531 24.0914 24.3531 24.5403C24.3531 25.2565 24.0201 25.8891 23.5063 26.3086H22.0475C21.7597 26.3086 21.5278 26.5414 21.5278 26.8283C21.5278 27.1152 21.7597 27.347 22.0475 27.347H22.4581C22.5131 27.5385 22.5445 27.7389 22.5445 27.9482C22.5445 29.0956 21.7066 30.0387 20.6093 30.2175L19.1584 30.4277C18.1072 30.5437 17.4903 30.6321 16.008 30.6321C15.3124 30.6321 14.4264 30.6124 13.2161 30.5672C10.4723 30.4661 6.95257 29.9503 5.27862 29.1133C0.592779 26.7704 0.589824 19.105 3.85912 15.8357C5.70495 13.9899 7.40939 12.8532 8.91044 11.087C11.2298 8.35896 13.501 5.12016 13.7348 3.70556C13.9646 2.31843 14.8655 1.55813 15.7821 1.55813C16.5522 1.55813 17.3342 2.09549 17.7389 3.24779C18.5818 5.65067 17.6633 7.79023 17.2556 8.91015C16.845 10.032 14.5806 11.8533 15.9608 13.3337C16.4736 13.8838 17.4805 14.0429 18.4138 14.0833H23.3855C24.6616 14.0833 25.6941 15.1167 25.6941 16.3918C25.6941 16.937 25.3856 17.4272 24.977 17.775H23.4867C23.1998 17.775 22.967 18.0068 22.967 18.2937C22.967 18.5805 23.1997 18.8142 23.4865 18.8142Z" fill="#FB8D1F"/>
</svg>
