<svg width="42" height="43" viewBox="0 0 42 43" fill="none" xmlns="http://www.w3.org/2000/svg">
<circle cx="21" cy="21.1406" r="21" fill="#028193"/>
<path d="M25.9 15.5352H16.1C15.543 15.5352 15.0089 15.7564 14.6151 16.1502C14.2212 16.5441 14 17.0782 14 17.6352V24.6352C14 25.1921 14.2212 25.7263 14.6151 26.1201C15.0089 26.5139 15.543 26.7352 16.1 26.7352H25.9C26.457 26.7352 26.9911 26.5139 27.3849 26.1201C27.7787 25.7263 28 25.1921 28 24.6352V17.6352C28 17.0782 27.7787 16.5441 27.3849 16.1502C26.9911 15.7564 26.457 15.5352 25.9 15.5352ZM25.9 16.9352L21.35 20.0642C21.2436 20.1256 21.1229 20.1579 21 20.1579C20.8771 20.1579 20.7564 20.1256 20.65 20.0642L16.1 16.9352H25.9Z" fill="white"/>
</svg>
