<svg width="29" height="28" viewBox="0 0 29 28" fill="none" xmlns="http://www.w3.org/2000/svg">
<path d="M18.1168 19.6532H20.2869V23.8941H8.71312V19.6532H10.8832V20.3601H12.3298V19.6532H16.6699V20.3601H18.1166V19.6532H18.1168ZM20.2869 16.119V18.9463H8.71312V16.119H12.3299V13.9985H16.6701V16.119H20.2869ZM13.2341 16.119H15.7659V14.8821H13.2341V16.119ZM0 7.53414C0 9.07223 1.10764 10.3793 2.53175 10.86V25.9759H0V28H29V25.9759H26.4683V10.8575C27.9516 10.4139 28.9654 9.1262 29 7.53414V6.63454H0V7.53414ZM7.28337 7.46059C7.28337 8.18893 8.06073 10.9994 10.9345 10.9994C13.4305 10.9994 14.5252 8.79369 14.5252 7.46059C14.5252 8.70339 15.3779 10.9968 18.1461 10.9968C20.6471 10.9968 21.7553 8.63547 21.7553 7.46059C21.7553 9.08268 22.8746 10.4311 24.3968 10.8514V25.9759H4.60317V10.862C6.14547 10.454 7.28337 9.09663 7.28337 7.46059ZM25.4132 2.249H25.4325V0H3.68254V2.249L0 5.84739H29L25.4132 2.249Z" fill="#028193"/>
</svg>
