<svg width="31" height="29" viewBox="0 0 31 29" fill="none" xmlns="http://www.w3.org/2000/svg">
<path d="M19.4006 20.3551H21.6481V24.7475H9.66102V20.3551H11.9086V21.0872H13.4069V20.3551H17.902V21.0872H19.4003V20.3551H19.4006ZM21.6481 16.6947V19.623H9.66102V16.6947H13.407V14.4985H17.9021V16.6947H21.6481ZM14.3435 16.6947H16.9657V15.4136H14.3435V16.6947ZM0.636719 7.80321C0.636719 9.39623 1.78392 10.75 3.25888 11.2478V26.9036H0.636719V29H30.6724V26.9036H28.0503V11.2452C29.5866 10.7858 30.6366 9.45214 30.6724 7.80321V6.87149H0.636719V7.80321ZM8.18021 7.72704C8.18021 8.48139 8.98534 11.3922 11.9617 11.3922C14.5468 11.3922 15.6807 9.10775 15.6807 7.72704C15.6807 9.01423 16.5639 11.3895 19.4309 11.3895C22.0212 11.3895 23.169 8.94388 23.169 7.72704C23.169 9.40706 24.3282 10.8036 25.9049 11.239V26.9036H5.40429V11.2499C7.00167 10.8274 8.18021 9.42151 8.18021 7.72704ZM26.9575 2.32932H26.9776V0H4.45078V2.32932L0.636719 6.05622H30.6724L26.9575 2.32932Z" fill="#028193"/>
</svg>
