<svg width="19" height="18" viewBox="0 0 19 18" fill="none" xmlns="http://www.w3.org/2000/svg">
<path d="M11.8696 12.6342H13.2914V15.3605H5.7086V12.6342H7.13035V13.0886H8.07817V12.6342H10.9217V13.0886H11.8695L11.8696 12.6342ZM13.2914 10.3622V12.1798H5.7086V10.3622H8.07824V8.99906H10.9218V10.3622H13.2914ZM8.67064 10.3622H10.3294V9.56704H8.67064V10.3622ZM0 4.84337C0 5.83214 0.725695 6.67243 1.65873 6.9814V16.6988H0V18H19V16.6988H17.3413V6.97981C18.3131 6.69463 18.9773 5.86684 19 4.84337V4.26506H0V4.84337ZM4.77187 4.7961C4.77187 5.26431 5.28117 7.07104 7.16398 7.07104C8.79926 7.07104 9.51651 5.65308 9.51651 4.7961C9.51651 5.59504 10.0752 7.06937 11.8888 7.06937C13.5274 7.06937 14.2535 5.55137 14.2535 4.7961C14.2535 5.83887 14.9868 6.70569 15.9841 6.9759V16.6988H3.01587V6.9827C4.02634 6.72043 4.77187 5.84783 4.77187 4.7961ZM16.65 1.44578H16.6627V0H2.4127V1.44578L0 3.75904H19L16.65 1.44578Z" fill="#002C32"/>
</svg>
