<svg width="54" height="47" viewBox="0 0 54 47" fill="none" xmlns="http://www.w3.org/2000/svg">
<path d="M40.8151 23.6588C43.7807 23.3477 46.3068 25.6889 46.4643 28.6666C46.68 32.7439 42.5076 35.5255 38.546 34.5374C31.6671 32.8216 25.9008 33.8713 17.6303 38.4091C17.086 38.7077 16.4326 38.2219 16.5786 37.6185C16.6052 37.5084 16.6597 37.4043 16.7342 37.319C25.0575 27.7871 31.1469 24.6731 40.8151 23.6588Z" fill="url(#paint0_linear_380_1801)"/>
<path d="M32.5344 9.03563C34.8123 8.21977 37.254 9.5792 37.9511 11.8961C38.9056 15.0686 36.1519 18.064 32.839 18.0473C27.0865 18.0184 22.7432 19.9553 17.097 25.1236C16.7254 25.4637 16.1169 25.2065 16.1159 24.7028C16.1157 24.6109 16.1386 24.5183 16.1809 24.4368C20.9077 15.3217 25.1086 11.6954 32.5344 9.03563Z" fill="url(#paint1_linear_380_1801)"/>
<path d="M17.6043 5.39301C17.4653 3.56892 15.774 2.30231 13.9595 2.53534C11.475 2.85441 10.256 5.67901 11.2889 7.96104C13.0823 11.9235 13.0842 15.5193 11.2568 21.0107C11.1365 21.3721 11.5017 21.7129 11.8498 21.5583C11.9133 21.5301 11.9702 21.4858 12.0134 21.4314C16.849 15.3579 18.0574 11.3397 17.6043 5.39301Z" fill="url(#paint2_linear_380_1801)"/>
<defs>
<linearGradient id="paint0_linear_380_1801" x1="46.5581" y1="30.4392" x2="15.8129" y2="32.0656" gradientUnits="userSpaceOnUse">
<stop stop-color="#FF4D35"/>
<stop offset="0.447917" stop-color="#C58D81"/>
<stop offset="1" stop-color="#18F3FF"/>
</linearGradient>
<linearGradient id="paint1_linear_380_1801" x1="38.3661" y1="13.2753" x2="14.4439" y2="20.473" gradientUnits="userSpaceOnUse">
<stop stop-color="#FF4D35"/>
<stop offset="0.447917" stop-color="#C58D81"/>
<stop offset="1" stop-color="#18F3FF"/>
</linearGradient>
<linearGradient id="paint2_linear_380_1801" x1="12.8794" y1="2.67405" x2="15.2854" y2="21.4086" gradientUnits="userSpaceOnUse">
<stop stop-color="#FF4D35"/>
<stop offset="0.447917" stop-color="#C58D81"/>
<stop offset="1" stop-color="#18F3FF"/>
</linearGradient>
</defs>
</svg>
