<svg width="30" height="30" viewBox="0 0 30 30" fill="none" xmlns="http://www.w3.org/2000/svg">
<g clip-path="url(#clip0_380_3768)">
<path d="M0.866556 9.37018C0.737161 8.31549 0.952005 7.41461 1.39634 6.68951C1.71861 6.15973 2.1605 5.73004 2.67808 5.40533C3.18833 5.08551 3.76939 4.86823 4.37974 4.76569C5.34654 4.60211 6.39634 4.7193 7.34361 5.14899C7.68052 4.50446 8.15904 3.95514 8.77915 3.54498C9.49448 3.07379 10.3905 2.79547 11.4671 2.79547C12.6341 2.79547 13.7376 3.29108 14.5458 4.08942C15.1439 4.68268 15.5785 5.4444 15.7543 6.29401C16.4501 5.93268 17.0995 5.76666 17.6854 5.7691C18.1664 5.7691 18.6058 5.88385 18.9916 6.09137C19.3749 6.30133 19.702 6.60162 19.9632 6.98492C20.4027 7.62457 20.6566 8.49615 20.6859 9.5191C20.8104 9.69977 20.8836 9.91705 20.9032 10.171C20.9105 10.2711 20.9081 10.3736 20.9007 10.481C20.8959 10.5176 20.891 10.5543 20.8812 10.586L19.1161 18.313C18.474 18.8575 17.7977 19.3311 17.0995 19.751L19.8485 10.3589C19.8534 10.315 19.8534 10.2735 19.8485 10.2418C19.8436 10.1954 19.8387 10.1588 19.8265 10.1368C19.807 10.1221 19.7899 10.1026 19.7728 10.0831C19.7337 10.066 19.6751 10.0538 19.5995 10.0464C19.536 10.0416 19.4652 10.0416 19.3895 10.044C19.3675 10.0464 19.348 10.0489 19.326 10.0489H1.70396C1.67954 10.0538 1.6649 10.0611 1.66001 10.0684C1.61607 10.1661 1.61118 10.3345 1.63072 10.5445L4.33579 22.168C4.85337 22.4024 4.58726 22.3292 5.16099 22.3682C6.30357 22.4463 7.52183 22.1656 8.67661 21.5894C11.2328 20.3101 13.4593 17.5953 13.8744 14.0845C13.3763 13.8428 13.0345 13.335 13.0345 12.7442C13.0394 11.9263 13.7035 11.2574 14.5262 11.2574C15.349 11.2574 16.0155 11.9239 16.0155 12.7466C16.0155 13.4302 15.5541 14.0064 14.9266 14.1797C14.475 18.0811 11.9969 21.106 9.15269 22.5294C7.82945 23.191 6.42076 23.5108 5.09507 23.418C4.65562 23.3863 5.04868 23.5181 4.63365 23.3961C5.27574 25.8106 5.81773 25.8008 7.79771 25.7642C8.16636 25.7593 8.57163 25.7496 8.8524 25.7496H8.97202C8.98911 25.7813 9.00376 25.813 9.02085 25.8448C9.2064 26.1915 9.49693 26.5113 9.85337 26.8043H8.8524C8.36656 26.8043 8.07603 26.8091 7.81236 26.814C4.99986 26.8677 4.3773 26.8775 3.46909 23.0714V23.0689H3.46665L3.42271 22.8785C3.01255 22.6417 2.62437 22.3463 2.26548 21.9898C0.273294 20.0049 -0.727683 16.106 0.610208 9.75836C0.637063 9.62653 0.712747 9.51422 0.812845 9.44098C0.829934 9.41412 0.847024 9.39215 0.866556 9.37018ZM3.05161 21.2891L1.14488 13.1055C0.744485 17.2071 1.577 19.8218 3.00523 21.2476C3.02232 21.2623 3.03697 21.2769 3.05161 21.2891ZM19.5897 8.98688C19.5116 8.41803 19.3431 7.93951 19.0917 7.5733C18.9232 7.32916 18.7206 7.13873 18.4862 7.01178C18.2543 6.88483 17.9833 6.81891 17.6805 6.81891C17.0995 6.81891 16.3988 7.06305 15.6053 7.60748C15.5199 7.66608 15.4149 7.70026 15.3026 7.70026C15.0145 7.69537 14.7826 7.461 14.7826 7.17291C14.7801 7.15826 14.7801 7.14606 14.7801 7.13141C14.7801 6.23785 14.3993 5.42487 13.8011 4.83405C13.1883 4.22614 12.3485 3.84772 11.4671 3.84772C10.6053 3.84772 9.9022 4.06012 9.35533 4.41901C8.76451 4.80719 8.34458 5.37848 8.09068 6.04987C8.07847 6.08405 8.06382 6.11578 8.04429 6.14508C7.89292 6.3941 7.56822 6.47223 7.32163 6.31842C6.47202 5.7984 5.47105 5.63971 4.55552 5.7984C4.07945 5.87897 3.63023 6.04498 3.2396 6.28912C2.85874 6.53082 2.53159 6.84576 2.29478 7.23151C2.00425 7.70758 1.85044 8.29596 1.89195 8.98932H19.3236C19.4139 8.98688 19.5018 8.98444 19.5897 8.98688ZM21.8919 15.3516C22.0775 15.1563 22.3387 15.0391 22.6854 15.0098L25.6712 15.4371C26.3207 15.5298 26.953 15.7276 26.9969 16.5284C27.0116 16.7994 26.9481 17.1094 26.9066 17.5001L26.8846 17.7125C26.7992 18.4986 26.5794 18.4083 25.9349 18.7232C27.5462 21.3648 29.4042 24.1578 29.9779 27.2901C30.1048 27.9346 29.6922 28.357 28.8744 28.6158L27.412 28.8892C27.556 27.1876 27.1068 25.398 26.1522 23.5352C26.4134 25.6592 26.6747 27.7296 26.328 28.9527L24.8241 29.2359C24.6068 28.5499 24.4286 28.0201 24.121 27.8004L23.7718 29.1138L21.2401 28.9893C22.1507 27.5977 22.7098 26.0963 22.8587 24.4629C22.0653 26.2256 21.1839 27.5318 20.1952 28.313C19.7313 28.7891 19.326 28.8868 18.9793 28.5816C18.7328 28.3643 18.7718 28.23 18.8231 27.9127C18.889 27.5025 19.0526 27.0801 19.2796 26.6578C18.7694 27.2315 18.4471 27.3707 18.159 27.6758C17.346 28.5474 15.9398 28.4131 15.7152 27.2047C15.5711 26.4307 16.0863 26.1817 16.6087 25.6348L17.5169 24.6851C16.4989 25.3223 15.4784 25.9327 14.4505 26.316C13.2689 26.7579 13.264 26.7115 12.18 26.15C10.7201 25.3956 9.63365 24.5338 11.6649 24.0137C15.4051 22.7833 19.0526 21.3355 21.9261 18.0762C21.6234 17.8931 21.4574 17.6563 21.4061 17.378C21.3255 16.963 21.599 15.6592 21.8919 15.3516ZM25.9447 1.91412L23.7279 13.1446C23.5228 15.0245 25.7103 15.1954 26.057 13.3472L28.225 2.09967C28.1737 0.532288 26.3988 0.18805 25.9447 1.91412Z" fill="#028193"/>
</g>
<defs>
<clipPath id="clip0_380_3768">
<rect width="30" height="30" fill="white"/>
</clipPath>
</defs>
</svg>
