<svg width="33" height="33" viewBox="0 0 33 33" fill="none" xmlns="http://www.w3.org/2000/svg">
<g clip-path="url(#clip0_393_9789)">
<path d="M0.953211 10.3071C0.810877 9.14694 1.04721 8.15598 1.53597 7.35837C1.89047 6.77561 2.37655 6.30295 2.94589 5.94577C3.50717 5.59396 4.14633 5.35495 4.81771 5.24216C5.88119 5.06223 7.03598 5.19113 8.07797 5.66379C8.44857 4.9548 8.97494 4.35056 9.65707 3.89938C10.4439 3.38107 11.4295 3.07492 12.6139 3.07492C13.8975 3.07492 15.1114 3.62009 16.0003 4.49826C16.6583 5.15085 17.1363 5.98874 17.3297 6.92331C18.0951 6.52585 18.8094 6.34323 19.4539 6.34592C19.983 6.34592 20.4664 6.47214 20.8907 6.70041C21.3123 6.93137 21.6722 7.26169 21.9596 7.68332C22.443 8.38693 22.7223 9.34567 22.7545 10.4709C22.8914 10.6696 22.972 10.9087 22.9935 11.188C23.0016 11.2981 22.9989 11.4109 22.9908 11.529C22.9854 11.5693 22.9801 11.6096 22.9693 11.6445L21.0277 20.1443C20.3214 20.7431 19.5775 21.2641 18.8094 21.726L21.8333 11.3947C21.8387 11.3464 21.8387 11.3008 21.8333 11.2658C21.828 11.2148 21.8226 11.1745 21.8092 11.1504C21.7877 11.1342 21.7689 11.1128 21.7501 11.0913C21.7071 11.0725 21.6427 11.0591 21.5594 11.051C21.4896 11.0456 21.4117 11.0456 21.3285 11.0483C21.3043 11.051 21.2828 11.0537 21.2586 11.0537H1.87435C1.8475 11.0591 1.83139 11.0671 1.82601 11.0752C1.77767 11.1826 1.7723 11.3679 1.79379 11.5988L4.76937 24.3847C5.33871 24.6425 5.04599 24.562 5.67709 24.6049C6.93392 24.6909 8.27401 24.3821 9.54428 23.7483C12.356 22.341 14.8053 19.3547 15.2618 15.4929C14.714 15.227 14.338 14.6684 14.338 14.0185C14.3433 13.1189 15.0738 12.383 15.9788 12.383C16.8839 12.383 17.617 13.1162 17.617 14.0212C17.617 14.7732 17.1095 15.407 16.4193 15.5976C15.9225 19.8891 13.1966 23.2165 10.068 24.7822C8.61239 25.51 7.06283 25.8618 5.60458 25.7597C5.12118 25.7248 5.55355 25.8698 5.09701 25.7356C5.80331 28.3916 6.3995 28.3808 8.57748 28.3405C8.983 28.3352 9.4288 28.3244 9.73764 28.3244H9.86923C9.88803 28.3593 9.90414 28.3943 9.92294 28.4292C10.127 28.8105 10.4466 29.1623 10.8387 29.4846H9.73764C9.20321 29.4846 8.88363 29.49 8.59359 29.4953C5.49984 29.5544 4.81503 29.5652 3.816 25.3784V25.3757H3.81332L3.76498 25.1662C3.31381 24.9057 2.88681 24.5808 2.49203 24.1887C0.300623 22.0053 -0.800451 17.7165 0.671229 10.7341C0.70077 10.5891 0.784022 10.4655 0.894129 10.385C0.912928 10.3554 0.931727 10.3313 0.953211 10.3071ZM3.35678 23.4179L1.25936 14.416C0.818934 18.9277 1.73471 21.8039 3.30575 23.3723C3.32455 23.3884 3.34066 23.4045 3.35678 23.4179ZM21.5487 9.88547C21.4627 9.25974 21.2774 8.73337 21.0008 8.33054C20.8155 8.06198 20.5926 7.85251 20.3348 7.71286C20.0797 7.57321 19.7816 7.5007 19.4486 7.5007C18.8094 7.5007 18.0387 7.76926 17.1659 8.36813C17.0719 8.43259 16.9564 8.47019 16.8329 8.47019C16.516 8.46481 16.2608 8.207 16.2608 7.89011C16.2581 7.87399 16.2581 7.86057 16.2581 7.84445C16.2581 6.86154 15.8392 5.96726 15.1812 5.31735C14.5072 4.64865 13.5833 4.23239 12.6139 4.23239C11.6659 4.23239 10.8924 4.46603 10.2909 4.86081C9.64096 5.28781 9.17904 5.91623 8.89974 6.65476C8.88632 6.69235 8.8702 6.72727 8.84872 6.75949C8.68222 7.03342 8.32504 7.11936 8.0538 6.95017C7.11923 6.37814 6.01815 6.20358 5.01107 6.37814C4.48739 6.46677 3.99325 6.64938 3.56356 6.91794C3.14462 7.18381 2.78475 7.53024 2.52426 7.95456C2.20468 8.47824 2.03549 9.12546 2.08114 9.88815H21.2559C21.3553 9.88547 21.452 9.88278 21.5487 9.88547ZM24.0811 16.8867C24.2852 16.6718 24.5726 16.5429 24.9539 16.5107L28.2384 16.9807C28.9527 17.0827 29.6483 17.3003 29.6966 18.1811C29.7127 18.4792 29.6429 18.8203 29.5973 19.25L29.5731 19.4836C29.4791 20.3484 29.2374 20.249 28.5284 20.5954C30.3009 23.5012 32.3446 26.5735 32.9757 30.019C33.1153 30.728 32.6615 31.1926 31.7618 31.4773L30.1532 31.778C30.3116 29.9062 29.8175 27.9377 28.7674 25.8886C29.0548 28.2251 29.3421 30.5024 28.9608 31.8479L27.3065 32.1594C27.0675 31.4048 26.8714 30.822 26.533 30.5803L26.149 32.0251L23.3641 31.8882C24.3658 30.3574 24.9808 28.7058 25.1446 26.9091C24.2718 28.8481 23.3023 30.2849 22.2147 31.1443C21.7044 31.6679 21.2586 31.7754 20.8773 31.4397C20.606 31.2007 20.649 31.0529 20.7054 30.7038C20.7779 30.2527 20.9579 29.7881 21.2076 29.3235C20.6463 29.9546 20.2918 30.1076 19.9749 30.4433C19.0807 31.4021 17.5338 31.2544 17.2867 29.925C17.1283 29.0737 17.6949 28.7998 18.2696 28.1982L19.2686 27.1535C18.1488 27.8545 17.0262 28.5259 15.8956 28.9475C14.5958 29.4336 14.5904 29.3825 13.398 28.7649C11.7921 27.935 10.597 26.987 12.8314 26.415C16.9456 25.0615 20.9579 23.469 24.1187 19.8838C23.7857 19.6823 23.6031 19.4218 23.5467 19.1157C23.4581 18.6592 23.7589 17.2251 24.0811 16.8867ZM28.5392 2.10544L26.1007 14.459C25.8751 16.5268 28.2813 16.7148 28.6627 14.6819L31.0475 2.30954C30.9911 0.585419 29.0387 0.206757 28.5392 2.10544Z" fill="#028193"/>
</g>
<defs>
<clipPath id="clip0_393_9789">
<rect width="33" height="33" fill="white"/>
</clipPath>
</defs>
</svg>
