<svg width="20" height="20" viewBox="0 0 20 20" fill="none" xmlns="http://www.w3.org/2000/svg">
<g clip-path="url(#clip0_383_5341)">
<path d="M0.577704 6.24679C0.491441 5.54366 0.63467 4.94307 0.930894 4.45968C1.14574 4.10649 1.44033 3.82003 1.78539 3.60356C2.12556 3.39034 2.51293 3.24548 2.91983 3.17712C3.56436 3.06807 4.26423 3.1462 4.89574 3.43266C5.12035 3.00297 5.43936 2.63676 5.85277 2.36332C6.32966 2.04919 6.92699 1.86365 7.64476 1.86365C8.42276 1.86365 9.15843 2.19405 9.69717 2.72628C10.0959 3.12179 10.3856 3.6296 10.5028 4.196C10.9667 3.95512 11.3996 3.84444 11.7903 3.84607C12.1109 3.84607 12.4039 3.92257 12.661 4.06091C12.9166 4.20089 13.1347 4.40108 13.3088 4.65662C13.6018 5.08305 13.7711 5.6641 13.7906 6.34607C13.8736 6.46651 13.9224 6.61137 13.9355 6.78064C13.9403 6.84737 13.9387 6.91573 13.9338 6.98735C13.9306 7.01176 13.9273 7.03617 13.9208 7.05733L12.744 12.2087C12.316 12.5717 11.8651 12.8874 11.3996 13.1674L13.2323 6.90596C13.2356 6.87667 13.2356 6.849 13.2323 6.82784C13.2291 6.79692 13.2258 6.7725 13.2177 6.75785C13.2047 6.74809 13.1933 6.73507 13.1819 6.72205C13.1558 6.71065 13.1168 6.70251 13.0663 6.69763C13.024 6.69438 12.9768 6.69438 12.9263 6.696C12.9117 6.69763 12.8987 6.69926 12.884 6.69926H1.13597C1.1197 6.70251 1.10993 6.7074 1.10668 6.71228C1.07738 6.77738 1.07412 6.88969 1.08714 7.02966L2.89053 14.7787C3.23558 14.9349 3.05817 14.8861 3.44066 14.9121C4.20238 14.9642 5.01455 14.7771 5.78441 14.3929C7.48851 13.5401 8.97289 11.7302 9.24958 9.38969C8.91755 9.22856 8.68968 8.89001 8.68968 8.49613C8.69294 7.95089 9.13565 7.50492 9.68415 7.50492C10.2327 7.50492 10.677 7.94926 10.677 8.49776C10.677 8.95349 10.3694 9.33761 9.95108 9.45317C9.64997 12.0541 7.99795 14.0707 6.10179 15.0196C5.21963 15.4607 4.2805 15.6739 3.39671 15.612C3.10375 15.5909 3.36579 15.6788 3.0891 15.5974C3.51716 17.2071 3.87849 17.2006 5.19847 17.1761C5.44424 17.1729 5.71442 17.1664 5.9016 17.1664H5.98135C5.99274 17.1875 6.00251 17.2087 6.0139 17.2299C6.1376 17.461 6.33128 17.6742 6.56891 17.8695H5.9016C5.5777 17.8695 5.38402 17.8728 5.20824 17.876C3.33324 17.9118 2.9182 17.9183 2.31273 15.3809V15.3793H2.3111L2.28181 15.2523C2.00837 15.0944 1.74958 14.8975 1.51032 14.6599C0.182196 13.3366 -0.485122 10.7373 0.406805 6.50557C0.424709 6.41768 0.475165 6.34281 0.541896 6.29399C0.55329 6.27608 0.564683 6.26143 0.577704 6.24679ZM2.03441 14.1927L0.763251 8.73702C0.496324 11.4714 1.05134 13.2146 2.00349 14.1651C2.01488 14.1748 2.02464 14.1846 2.03441 14.1927ZM13.0598 5.99125C13.0077 5.61202 12.8954 5.29301 12.7278 5.04887C12.6155 4.88611 12.4804 4.75916 12.3241 4.67452C12.1695 4.58988 11.9888 4.54594 11.787 4.54594C11.3996 4.54594 10.9325 4.7087 10.4036 5.07166C10.3466 5.11072 10.2766 5.1335 10.2017 5.1335C10.0097 5.13025 9.85505 4.974 9.85505 4.78194C9.85342 4.77218 9.85342 4.76404 9.85342 4.75427C9.85342 4.15857 9.59951 3.61658 9.20075 3.2227C8.79222 2.81742 8.23233 2.56515 7.64476 2.56515C7.07022 2.56515 6.60147 2.70675 6.23688 2.946C5.843 3.20479 5.56306 3.58565 5.39378 4.03324C5.38565 4.05603 5.37588 4.07719 5.36286 4.09672C5.26195 4.26274 5.04548 4.31482 4.88109 4.21228C4.31468 3.8656 3.64737 3.75981 3.03701 3.8656C2.71963 3.91931 2.42015 4.02999 2.15974 4.19275C1.90583 4.35388 1.68773 4.56384 1.52985 4.821C1.33617 5.13839 1.23363 5.53064 1.2613 5.99288H12.8824C12.9426 5.99125 13.0012 5.98962 13.0598 5.99125ZM14.5946 10.2344C14.7183 10.1042 14.8925 10.0261 15.1236 10.0066L17.1142 10.2914C17.5471 10.3532 17.9687 10.4851 17.998 11.0189C18.0077 11.1996 17.9654 11.4063 17.9377 11.6667L17.9231 11.8083C17.8661 12.3324 17.7196 12.2722 17.2899 12.4821C18.3642 14.2432 19.6028 16.1052 19.9853 18.1934C20.0699 18.6231 19.7948 18.9047 19.2496 19.0772L18.2746 19.2595C18.3707 18.125 18.0712 16.932 17.4348 15.6901C17.609 17.1062 17.7831 18.4864 17.552 19.3018L16.5494 19.4906C16.4045 19.0332 16.2857 18.6801 16.0806 18.5336L15.8479 19.4092L14.1601 19.3262C14.7672 18.3985 15.1399 17.3975 15.2392 16.3086C14.7102 17.4838 14.1226 18.3545 13.4634 18.8754C13.1542 19.1927 12.884 19.2579 12.6529 19.0544C12.4885 18.9095 12.5146 18.82 12.5487 18.6084C12.5927 18.335 12.7017 18.0534 12.8531 17.7718C12.5129 18.1543 12.2981 18.2471 12.106 18.4506C11.564 19.0316 10.6265 18.9421 10.4768 18.1364C10.3808 17.6205 10.7242 17.4545 11.0725 17.0899L11.678 16.4567C10.9993 16.8816 10.3189 17.2885 9.63369 17.544C8.84593 17.8386 8.84268 17.8077 8.12002 17.4333C7.14671 16.9304 6.42243 16.3558 7.7766 16.0092C10.2701 15.1888 12.7017 14.2237 14.6174 12.0508C14.4156 11.9288 14.3049 11.7709 14.2707 11.5853C14.217 11.3086 14.3993 10.4395 14.5946 10.2344ZM17.2965 1.27608L15.8186 8.76306C15.6819 10.0163 17.1402 10.1302 17.3713 8.89815L18.8166 1.39978C18.7825 0.354859 17.5992 0.125367 17.2965 1.27608Z" fill="#002C32"/>
</g>
<defs>
<clipPath id="clip0_383_5341">
<rect width="20" height="20" fill="white"/>
</clipPath>
</defs>
</svg>
