<svg width="33" height="36" viewBox="0 0 33 36" fill="none" xmlns="http://www.w3.org/2000/svg">
<path d="M29.6782 33.7733L30.5107 34.804C29.8065 35.3562 28.9335 35.6622 28.015 35.6622C27.8287 35.6622 27.6439 35.6497 27.4614 35.6248L27.6445 34.32C27.7664 34.3366 27.89 34.345 28.015 34.345C28.6284 34.345 29.2086 34.1416 29.6782 33.7733ZM18.5718 27.5974C20.7816 27.5974 22.5729 29.3624 22.5729 31.5397C22.5729 33.717 20.7816 35.482 18.5718 35.482C16.3621 35.482 14.5707 33.717 14.5707 31.5397C14.5707 29.3624 16.3621 27.5974 18.5718 27.5974ZM25.3955 32.2417C25.5445 32.9601 25.9948 33.5842 26.6287 33.9638L25.9343 35.0894C24.9845 34.5206 24.3098 33.5854 24.0857 32.5056L25.3955 32.2417ZM13.5196 0.756104C15.6175 0.756104 17.3927 2.09176 18.0705 3.93623H23.2023C24.9774 3.93623 26.4298 5.36728 26.4298 7.11635V16.6567H23.2023V7.11635H19.9747V11.8865H7.06449V7.11635H3.83693V30.9673H11.9058V34.1474H3.83693C2.06178 34.1474 0.609375 32.7164 0.609375 30.9673V7.11635C0.609375 5.36728 2.06178 3.93623 3.83693 3.93623H8.96874C9.64653 2.09176 11.4217 0.756104 13.5196 0.756104ZM31.7802 30.3471C31.9327 30.756 32.0159 31.1889 32.0249 31.6441C32.0256 32.3345 31.8774 32.9516 31.5844 33.5138L30.3952 32.912C30.5901 32.5382 30.6885 32.1281 30.6881 31.6577C30.6823 31.3616 30.6269 31.0735 30.5254 30.8016L31.7802 30.3471ZM25.9531 28.3206L26.6412 29.4499C26.0052 29.8261 25.5515 30.4479 25.3984 31.1653L24.0902 30.8943C24.3202 29.8161 25.0001 28.8843 25.9531 28.3206ZM28.015 27.7589C29.1453 27.7589 30.2017 28.223 30.9554 29.0233L29.9755 29.9193C29.4722 29.3848 28.7695 29.0761 28.015 29.0761C27.9043 29.0771 27.7697 29.0848 27.6614 29.0989L27.4868 27.793C27.6489 27.7719 27.8499 27.7604 28.015 27.7589ZM27.7659 18.5385C29.9756 18.5385 31.767 20.3035 31.767 22.4808C31.767 24.658 29.9756 26.4231 27.7659 26.4231C25.5561 26.4231 23.7648 24.658 23.7648 22.4808C23.7648 20.3035 25.5561 18.5385 27.7659 18.5385ZM18.5718 18.5385C20.7816 18.5385 22.5729 20.3035 22.5729 22.4808C22.5729 24.658 20.7816 26.4231 18.5718 26.4231C16.3621 26.4231 14.5707 24.658 14.5707 22.4808C14.5707 20.3035 16.3621 18.5385 18.5718 18.5385ZM13.5196 3.93623C12.632 3.93623 11.9058 4.65176 11.9058 5.52629C11.9058 6.40082 12.632 7.11635 13.5196 7.11635C14.4072 7.11635 15.1334 6.40082 15.1334 5.52629C15.1334 4.65176 14.4072 3.93623 13.5196 3.93623Z" fill="#028193"/>
</svg>
