<svg width="19" height="21" viewBox="0 0 19 21" fill="none" xmlns="http://www.w3.org/2000/svg">
<path d="M16.7471 19.0218L17.2267 19.6156C16.8209 19.9337 16.318 20.11 15.7888 20.11C15.6815 20.11 15.575 20.1028 15.4699 20.0884L15.5754 19.3367C15.6456 19.3463 15.7168 19.3511 15.7888 19.3511C16.1423 19.3511 16.4765 19.234 16.7471 19.0218ZM10.3485 15.4637C11.6215 15.4637 12.6536 16.4806 12.6536 17.735C12.6536 18.9893 11.6215 20.0062 10.3485 20.0062C9.07539 20.0062 8.04336 18.9893 8.04336 17.735C8.04336 16.4806 9.07539 15.4637 10.3485 15.4637ZM14.2797 18.1394C14.3656 18.5533 14.625 18.9128 14.9902 19.1315L14.5901 19.78C14.043 19.4523 13.6542 18.9135 13.5251 18.2914L14.2797 18.1394ZM7.4378 0C8.64644 0 9.66914 0.769492 10.0596 1.83212H13.0161C14.0388 1.83212 14.8756 2.65658 14.8756 3.66425V9.16062H13.0161V3.66425H11.1567V6.41243H3.7189V3.66425H1.85945V17.4052H6.50807V19.2373H1.85945C0.836753 19.2373 0 18.4128 0 17.4052V3.66425C0 2.65658 0.836753 1.83212 1.85945 1.83212H4.81598C5.20646 0.769492 6.22916 0 7.4378 0ZM17.958 17.0479C18.0459 17.2834 18.0939 17.5328 18.099 17.7951C18.0994 18.1929 18.0141 18.5484 17.8452 18.8723L17.1601 18.5256C17.2724 18.3102 17.3291 18.0739 17.3289 17.8029C17.3255 17.6323 17.2936 17.4664 17.2352 17.3097L17.958 17.0479ZM14.6009 15.8804L14.9974 16.531C14.631 16.7477 14.3696 17.106 14.2814 17.5192L13.5277 17.3632C13.6602 16.7419 14.0519 16.2051 14.6009 15.8804ZM15.7888 15.5568C16.44 15.5568 17.0487 15.8241 17.4829 16.2852L16.9183 16.8014C16.6283 16.4935 16.2235 16.3157 15.7888 16.3157C15.7251 16.3162 15.6475 16.3207 15.5851 16.3288L15.4845 15.5764C15.5779 15.5643 15.6937 15.5576 15.7888 15.5568ZM15.6453 10.2447C16.9184 10.2447 17.9504 11.2616 17.9504 12.516C17.9504 13.7703 16.9184 14.7872 15.6453 14.7872C14.3722 14.7872 13.3402 13.7703 13.3402 12.516C13.3402 11.2616 14.3722 10.2447 15.6453 10.2447ZM10.3485 10.2447C11.6215 10.2447 12.6536 11.2616 12.6536 12.516C12.6536 13.7703 11.6215 14.7872 10.3485 14.7872C9.07539 14.7872 8.04336 13.7703 8.04336 12.516C8.04336 11.2616 9.07539 10.2447 10.3485 10.2447ZM7.4378 1.83212C6.92645 1.83212 6.50807 2.24435 6.50807 2.74819C6.50807 3.25202 6.92645 3.66425 7.4378 3.66425C7.94915 3.66425 8.36752 3.25202 8.36752 2.74819C8.36752 2.24435 7.94915 1.83212 7.4378 1.83212Z" fill="#002C32"/>
</svg>
