<svg width="27" height="30" viewBox="0 0 27 30" fill="none" xmlns="http://www.w3.org/2000/svg">
<path d="M24.9832 28.3766L25.6986 29.2624C25.0934 29.737 24.3432 30 23.5537 30C23.3936 30 23.2348 29.9892 23.0779 29.9678L23.2353 28.8464C23.34 28.8607 23.4463 28.8679 23.5537 28.8679C24.0809 28.8679 24.5795 28.6931 24.9832 28.3766ZM15.4378 23.0687C17.337 23.0687 18.8766 24.5857 18.8766 26.4569C18.8766 28.3282 17.337 29.8451 15.4378 29.8451C13.5386 29.8451 11.999 28.3282 11.999 26.4569C11.999 24.5857 13.5386 23.0687 15.4378 23.0687ZM21.3024 27.0603C21.4305 27.6777 21.8175 28.2141 22.3623 28.5403L21.7655 29.5077C20.9492 29.0189 20.3693 28.2151 20.1767 27.2871L21.3024 27.0603ZM11.0957 0C12.8987 0 14.4244 1.14792 15.0069 2.73315H19.4174C20.9431 2.73315 22.1913 3.96307 22.1913 5.46631V13.6658H19.4174V5.46631H16.6435V9.56604H5.54784V5.46631H2.77392V25.965H9.70871V28.6981H2.77392C1.24826 28.6981 0 27.4682 0 25.965V5.46631C0 3.96307 1.24826 2.73315 2.77392 2.73315H7.18445C7.76697 1.14792 9.29263 0 11.0957 0ZM26.7897 25.4319C26.9208 25.7833 26.9923 26.1554 27 26.5467C27.0006 27.14 26.8733 27.6704 26.6214 28.1536L25.5994 27.6364C25.7669 27.3151 25.8515 26.9626 25.8512 26.5583C25.8461 26.3038 25.7985 26.0563 25.7113 25.8225L26.7897 25.4319ZM21.7816 23.6903L22.373 24.6608C21.8264 24.9842 21.4365 25.5186 21.3049 26.1351L20.1805 25.9023C20.3782 24.9755 20.9626 24.1747 21.7816 23.6903ZM23.5537 23.2075C24.5252 23.2075 25.4331 23.6064 26.0809 24.2942L25.2386 25.0642C24.8061 24.6049 24.2021 24.3396 23.5537 24.3396C23.4586 24.3405 23.3429 24.3471 23.2499 24.3592L23.0998 23.2368C23.2391 23.2187 23.4118 23.2088 23.5537 23.2075ZM23.3396 15.283C25.2388 15.283 26.7784 16.8 26.7784 18.6712C26.7784 20.5425 25.2388 22.0595 23.3396 22.0595C21.4404 22.0595 19.9009 20.5425 19.9009 18.6712C19.9009 16.8 21.4404 15.283 23.3396 15.283ZM15.4378 15.283C17.337 15.283 18.8766 16.8 18.8766 18.6712C18.8766 20.5425 17.337 22.0595 15.4378 22.0595C13.5386 22.0595 11.999 20.5425 11.999 18.6712C11.999 16.8 13.5386 15.283 15.4378 15.283ZM11.0957 2.73315C10.3328 2.73315 9.70871 3.34811 9.70871 4.09973C9.70871 4.85135 10.3328 5.46631 11.0957 5.46631C11.8585 5.46631 12.4826 4.85135 12.4826 4.09973C12.4826 3.34811 11.8585 2.73315 11.0957 2.73315Z" fill="#028193"/>
</svg>
