<svg width="26" height="27" viewBox="0 0 26 27" fill="none" xmlns="http://www.w3.org/2000/svg">
<path d="M15.75 14.9861C15.75 16.4206 14.5188 17.5833 13 17.5833M19.875 5.89583H19.8888M19.875 14.9861C19.875 18.5721 16.7969 21.4792 13 21.4792C9.20305 21.4792 6.125 18.5721 6.125 14.9861C6.125 11.4001 9.20305 8.49306 13 8.49306C16.7969 8.49306 19.875 11.4001 19.875 14.9861ZM4.75 25.375H21.25C22.7688 25.375 24 24.2122 24 22.7778V4.59722C24 3.16282 22.7688 2 21.25 2H4.75C3.23122 2 2 3.16282 2 4.59722V22.7778C2 24.2122 3.23122 25.375 4.75 25.375Z" stroke="#028193" stroke-width="2.28429" stroke-linecap="round" stroke-linejoin="round"/>
</svg>
