<svg width="17" height="18" viewBox="0 0 17 18" fill="none" xmlns="http://www.w3.org/2000/svg">
<path d="M10.4118 9.88889C10.4118 10.8708 9.56904 11.6667 8.52941 11.6667M13.2353 3.66667H13.2447M13.2353 9.88889C13.2353 12.3435 11.1284 14.3333 8.52941 14.3333C5.93043 14.3333 3.82353 12.3435 3.82353 9.88889C3.82353 7.43431 5.93043 5.44444 8.52941 5.44444C11.1284 5.44444 13.2353 7.43431 13.2353 9.88889ZM2.88235 17H14.1765C15.2161 17 16.0588 16.2041 16.0588 15.2222V2.77778C16.0588 1.79594 15.2161 1 14.1765 1H2.88235C1.84276 1 1 1.79594 1 2.77778V15.2222C1 16.2041 1.84276 17 2.88235 17Z" stroke="#002C32" stroke-width="1.56358" stroke-linecap="round" stroke-linejoin="round"/>
</svg>
