<svg width="31" height="33" viewBox="0 0 31 33" fill="none" xmlns="http://www.w3.org/2000/svg">
<path d="M18.6806 18.1494C18.6806 19.9305 17.1519 21.3743 15.266 21.3743M23.8026 6.86207H23.8197M23.8026 18.1494C23.8026 22.602 19.9806 26.2117 15.266 26.2117C10.5514 26.2117 6.72938 22.602 6.72938 18.1494C6.72938 13.6967 10.5514 10.087 15.266 10.087C19.9806 10.087 23.8026 13.6967 23.8026 18.1494ZM5.02206 31.0491H25.5099C27.3958 31.0491 28.9246 29.6053 28.9246 27.8242V5.2496C28.9246 3.46851 27.3958 2.02466 25.5099 2.02466H5.02206C3.13621 2.02466 1.60742 3.46851 1.60742 5.2496V27.8242C1.60742 29.6053 3.13621 31.0491 5.02206 31.0491Z" stroke="#028193" stroke-width="2.83637" stroke-linecap="round" stroke-linejoin="round"/>
</svg>
