<svg width="42" height="43" viewBox="0 0 42 43" fill="none" xmlns="http://www.w3.org/2000/svg">
<circle cx="21" cy="21.1406" r="21" fill="#76EAFB"/>
<path d="M23.2418 24.8134L24.3991 23.6557C24.555 23.5017 24.7522 23.3962 24.9668 23.3522C25.1814 23.3081 25.4042 23.3274 25.6081 23.4076L27.0186 23.9709C27.2246 24.0546 27.4013 24.1974 27.5264 24.3814C27.6514 24.5653 27.7192 24.7822 27.7212 25.0047V27.589C27.72 27.7403 27.6883 27.8899 27.6278 28.0286C27.5673 28.1673 27.4794 28.2923 27.3693 28.3961C27.2593 28.5 27.1293 28.5804 26.9874 28.6327C26.8454 28.685 26.6943 28.708 26.5433 28.7003C16.6596 28.0852 14.6653 19.712 14.2881 16.5074C14.2706 16.35 14.2866 16.1907 14.3351 16.04C14.3835 15.8893 14.4633 15.7505 14.5692 15.6328C14.6751 15.5151 14.8047 15.4212 14.9495 15.3573C15.0943 15.2933 15.251 15.2608 15.4093 15.2617H17.9047C18.1274 15.2624 18.3448 15.3297 18.529 15.455C18.7131 15.5802 18.8556 15.7577 18.9381 15.9647L19.5012 17.3757C19.584 17.5789 19.6051 17.802 19.5619 18.0171C19.5188 18.2322 19.4132 18.4298 19.2584 18.5852L18.1011 19.743C18.1011 19.743 18.7676 24.2552 23.2418 24.8134Z" fill="white"/>
</svg>
