<svg width="26" height="26" viewBox="0 0 26 26" fill="none" xmlns="http://www.w3.org/2000/svg">
<path d="M5.24609 12.9186V10.603C5.24609 8.54613 6.06317 6.57354 7.51757 5.11913C8.97197 3.66473 10.9446 2.84766 13.0014 2.84766C15.0582 2.84766 17.0308 3.66473 18.4852 5.11913C19.9396 6.57354 20.7567 8.54613 20.7567 10.603V12.9186" stroke="#FB8D1F" stroke-width="1.3125" stroke-linecap="round"/>
<path d="M4.89844 12.9189H6.80781V18.3546H4.89844C4.5752 18.3546 4.26521 18.2262 4.03665 17.9976C3.80809 17.769 3.67969 17.4591 3.67969 17.1358V14.1377C3.67969 13.8145 3.80809 13.5045 4.03665 13.2759C4.26521 13.0473 4.5752 12.9189 4.89844 12.9189Z" stroke="#FB8D1F" stroke-width="1.3125" stroke-linecap="round"/>
<path d="M21.1016 18.3545H19.1922V12.9189H21.1016C21.4248 12.9189 21.7348 13.0473 21.9633 13.2758C22.1919 13.5044 22.3203 13.8144 22.3203 14.1376V17.1357C22.3203 17.459 22.1919 17.769 21.9633 17.9975C21.7348 18.2261 21.4248 18.3545 21.1016 18.3545Z" stroke="#FB8D1F" stroke-width="1.3125" stroke-linecap="round"/>
<path d="M21.0022 18.5088V20.54C21.0022 20.971 20.831 21.3843 20.5262 21.6891C20.2215 21.9938 19.8082 22.165 19.3772 22.165H14.8516" stroke="#FB8D1F" stroke-width="1.3125" stroke-linecap="round"/>
<path d="M14.0367 21.0923H12.3711C11.9224 21.0923 11.5586 21.4561 11.5586 21.9048V22.3395C11.5586 22.7882 11.9224 23.152 12.3711 23.152H14.0367C14.4854 23.152 14.8492 22.7882 14.8492 22.3395V21.9048C14.8492 21.4561 14.4854 21.0923 14.0367 21.0923Z" stroke="#FB8D1F" stroke-width="1.3125" stroke-linecap="round"/>
</svg>
