<svg width="39" height="38" viewBox="0 0 39 38" fill="none" xmlns="http://www.w3.org/2000/svg">
<path d="M19.8689 12.6897C22.6353 12.6897 24.8903 10.4348 24.8903 7.66835C24.8903 4.90194 22.6353 2.64697 19.8689 2.64697C17.1025 2.64697 14.8477 4.90194 14.8477 7.66835C14.8477 10.4348 17.1025 12.6897 19.8689 12.6897Z" stroke="white" stroke-width="3.83997" stroke-linecap="round" stroke-linejoin="round"/>
<path opacity="0.4" d="M7.75575 35.1934C10.5222 35.1934 12.7771 32.9384 12.7771 30.172C12.7771 27.4056 10.5222 25.1506 7.75575 25.1506C4.98935 25.1506 2.73438 27.4056 2.73438 30.172C2.73438 32.9384 4.9661 35.1934 7.75575 35.1934Z" stroke="white" stroke-width="3.83997" stroke-linecap="round" stroke-linejoin="round"/>
<path d="M31.9784 35.1931C34.7448 35.1931 36.9998 32.9382 36.9998 30.1718C36.9998 27.4054 34.7448 25.1504 31.9784 25.1504C29.212 25.1504 26.957 27.4054 26.957 30.1718C26.957 32.9382 29.212 35.1931 31.9784 35.1931Z" stroke="white" stroke-width="3.83997" stroke-linecap="round" stroke-linejoin="round"/>
</svg>
