<svg width="24" height="14" viewBox="0 0 24 14" fill="none" xmlns="http://www.w3.org/2000/svg">
<path fill-rule="evenodd" clip-rule="evenodd" d="M23.7288 0.293713C23.6431 0.20061 23.5413 0.126743 23.4291 0.0763435C23.317 0.0259438 23.1968 0 23.0754 0C22.954 0 22.8338 0.0259438 22.7216 0.0763435C22.6095 0.126743 22.5077 0.20061 22.4219 0.293713L11.9998 11.5848L1.57759 0.293713C1.40429 0.105988 1.16923 0.000525475 0.924131 0.000525475C0.679037 0.000525475 0.443977 0.105988 0.27067 0.293713C0.0973606 0.481438 0 0.736048 0 1.00153C0 1.26702 0.0973606 1.52163 0.27067 1.70935L11.3463 13.7063C11.432 13.7994 11.5339 13.8733 11.646 13.9237C11.7581 13.9741 11.8784 14 11.9998 14C12.1212 14 12.2414 13.9741 12.3535 13.9237C12.4656 13.8733 12.5675 13.7994 12.6532 13.7063L23.7288 1.70935C23.8148 1.61648 23.883 1.50616 23.9295 1.3847C23.976 1.26324 24 1.13303 24 1.00153C24 0.87003 23.976 0.739822 23.9295 0.618363C23.883 0.496904 23.8148 0.38658 23.7288 0.293713Z" fill="#028193"/>
</svg>
