<svg width="38" height="38" viewBox="0 0 38 38" fill="none" xmlns="http://www.w3.org/2000/svg">
<path d="M25.1835 28.3951V34.2582L27.9926 35.4274V26.8586C27.1102 27.4638 26.169 27.9785 25.1835 28.3951ZM10.0107 26.8586V35.3689L12.8198 34.1997V28.3951C11.8342 27.9785 10.8931 27.4638 10.0107 26.8586ZM19.0016 29.6424C17.6751 29.6431 16.3537 29.478 15.0682 29.151V38L19.0016 36.363L22.9349 37.9999V29.151C21.6494 29.478 20.3281 29.6431 19.0016 29.6424ZM19.0016 0C11.4491 0 5.30469 6.14441 5.30469 13.697C5.30469 21.2495 11.4491 27.3939 19.0016 27.3939C26.5541 27.3939 32.6985 21.2495 32.6985 13.6969C32.6985 6.14434 26.5541 0 19.0016 0ZM19.0016 24.4996C13.0141 24.4996 8.14296 19.6284 8.14296 13.6409C8.14296 7.65342 13.0141 2.78223 19.0016 2.78223C24.989 2.78223 29.8602 7.65342 29.8602 13.6409C29.8602 19.6284 24.9891 24.4996 19.0016 24.4996ZM19.0016 5.03069C14.254 5.03069 10.3914 8.89317 10.3914 13.6409C10.3914 18.3887 14.254 22.251 19.0016 22.251C23.7492 22.251 27.6118 18.3885 27.6118 13.6409C27.6118 8.89317 23.7493 5.03069 19.0016 5.03069ZM22.5404 18.666L19.0016 16.8055L15.4628 18.666L16.1387 14.7256L13.2758 11.9349L17.2323 11.36L19.0016 7.77477L20.771 11.36L24.7275 11.9349L21.8646 14.7256L22.5404 18.666Z" fill="#01CC9B"/>
</svg>
