<svg width="53" height="42" viewBox="0 0 53 42" fill="none" xmlns="http://www.w3.org/2000/svg">
<path d="M22.4036 2.92842L20.4989 0C7.32105 8.85788 0 19.6204 0 28.4783C0 37.0433 6.29727 41.0705 11.6411 41.0705C18.3764 41.0705 23.1345 35.3589 23.1345 29.3568C23.1345 24.3059 19.9133 19.9859 15.5933 18.3741C14.3493 17.9336 13.1779 17.5682 13.1779 15.4457C13.1779 12.7375 15.1552 8.71264 22.4036 2.92842ZM51.4676 2.92842L49.5629 0C36.5303 8.85788 29.064 19.6204 29.064 28.4783C29.064 37.0433 35.5065 41.0705 40.8503 41.0705C47.6583 41.0705 52.4913 35.3589 52.4913 29.3568C52.4913 24.3059 49.1975 19.9859 44.7299 18.3741C43.4859 17.9336 42.3871 17.5682 42.3871 15.4457C42.3871 12.7375 44.437 8.71029 51.4652 2.92608L51.4676 2.92842Z" fill="#9DD5DD"/>
</svg>
