<svg width="66" height="66" viewBox="0 0 66 66" fill="none" xmlns="http://www.w3.org/2000/svg">
<path d="M64.7524 39.9417L57.4839 33.5812V19.1613C57.4839 8.59597 48.8879 0 38.3226 0H26.6129C16.4074 0 8.06265 8.02752 7.5059 18.0968H4.25806C1.90974 18.0968 0 20.0065 0 22.3548C0 24.7032 1.90974 26.6129 4.25806 26.6129H7.45161V45.7742C7.45161 53.047 13.0904 59.0264 20.2258 59.5725V66H22.3548V57.4839H21.2903C14.834 57.4839 9.58065 52.2305 9.58065 45.7742V26.6129H13.8387V28.7419H15.9677V26.6129H18.794C19.1347 27.6774 19.5924 28.6802 20.163 29.6095L18.3863 31.3873L22.902 35.9029L24.6787 34.1273C25.9359 34.9055 27.2963 35.4686 28.7409 35.8082V38.3226H35.128V35.8093C36.5725 35.4697 37.934 34.9066 39.1902 34.1284L40.9668 35.904L45.4825 31.3883L43.7069 29.6116C44.4851 28.3534 45.0482 26.9929 45.3878 25.5495H47.9032V19.1624H45.3899C45.0503 17.7189 44.4872 16.3574 43.709 15.1002L45.4846 13.3235L40.969 8.80781L39.1923 10.5834C37.934 9.80526 36.5736 9.24213 35.1301 8.90255V6.3871H28.743V8.90042C27.2995 9.24 25.938 9.80313 24.6808 10.5813L22.9041 8.80568L18.3885 13.3214L20.1651 15.0991C19.5924 16.0295 19.1357 17.0323 18.794 18.0968H15.9677V15.9677H13.8387V18.0968H9.63494C10.1885 9.20168 17.5805 2.12903 26.6129 2.12903H38.3226C47.7137 2.12903 55.3548 9.77013 55.3548 19.1613V34.5478L63.3504 41.5427C63.6804 41.8334 63.871 42.2506 63.871 42.6903C63.871 43.3897 63.3973 43.9975 62.7181 44.1678L55.3548 46.0084V53.2258C55.3548 55.5741 53.4451 57.4839 51.0968 57.4839H44.7097V66H46.8387V59.6129H51.0968C54.6193 59.6129 57.4839 56.7483 57.4839 53.2258V47.669L63.2333 46.2309C64.8631 45.8253 66 44.369 66 42.6903C66 41.6375 65.5455 40.6358 64.7524 39.9417ZM15.9677 20.2258H20.4195L20.6261 19.4274C20.9901 18.0127 21.5863 16.7182 22.3974 15.5792L22.919 14.8457L21.3968 13.3214L22.902 11.8161L24.4264 13.3384L25.1588 12.8168C26.6023 11.7885 28.2256 11.1167 29.9821 10.8219L30.871 10.6718V8.51613H33V10.6718L33.8878 10.8219C35.6443 11.1167 37.2677 11.7885 38.7111 12.8168L39.4435 13.3384L40.9679 11.8161L42.4731 13.3214L40.9509 14.8457L41.4725 15.5792C42.5008 17.0227 43.1725 18.6461 43.4674 20.4025L43.6185 21.2903H45.7742V23.4194H43.6185L43.4685 24.3072C43.1736 26.0636 42.5019 27.687 41.4735 29.1305L40.9519 29.8629L42.4742 31.3873L40.969 32.8925L39.4446 31.3681L38.7122 31.8908C37.2687 32.9202 35.6453 33.5919 33.8889 33.8867L33 34.0379V36.1936H30.871V34.0379L29.9832 33.8878C28.2267 33.5929 26.6033 32.9212 25.1598 31.8918L24.4275 31.3692L22.9031 32.8936L21.3978 31.3883L22.9201 29.8639L22.3985 29.1315C21.5873 27.9925 20.9912 26.6981 20.6271 25.2833L20.4195 24.4839H15.9677V20.2258ZM13.8387 20.2258V24.4839H4.25806C3.0839 24.4839 2.12903 23.529 2.12903 22.3548C2.12903 21.1807 3.0839 20.2258 4.25806 20.2258H13.8387Z" fill="url(#paint0_linear_251_8830)"/>
<path d="M31.9361 30.8709C36.6316 30.8709 40.4522 27.0503 40.4522 22.3548C40.4522 17.6592 36.6316 13.8386 31.9361 13.8386C27.2405 13.8386 23.4199 17.6592 23.4199 22.3548C23.4199 27.0503 27.2405 30.8709 31.9361 30.8709ZM31.9361 15.9677C35.4585 15.9677 38.3231 18.8323 38.3231 22.3548C38.3231 25.8772 35.4585 28.7418 31.9361 28.7418C28.4136 28.7418 25.549 25.8772 25.549 22.3548C25.549 18.8323 28.4136 15.9677 31.9361 15.9677Z" fill="url(#paint1_linear_251_8830)"/>
<path d="M33.0001 40.4517H30.8711V42.5807H33.0001V40.4517Z" fill="url(#paint2_linear_251_8830)"/>
<path d="M33.0001 44.7097H30.8711V46.8387H33.0001V44.7097Z" fill="url(#paint3_linear_251_8830)"/>
<path d="M33.0001 48.9678H30.8711V51.0968H33.0001V48.9678Z" fill="url(#paint4_linear_251_8830)"/>
<path d="M33.0001 53.2258H30.8711V55.3549H33.0001V53.2258Z" fill="url(#paint5_linear_251_8830)"/>
<path d="M33.0001 57.4839H30.8711V59.6129H33.0001V57.4839Z" fill="url(#paint6_linear_251_8830)"/>
<defs>
<linearGradient id="paint0_linear_251_8830" x1="33" y1="0" x2="33" y2="66" gradientUnits="userSpaceOnUse">
<stop stop-color="#028193"/>
<stop offset="1" stop-color="#FC6E63"/>
</linearGradient>
<linearGradient id="paint1_linear_251_8830" x1="31.9361" y1="13.8386" x2="31.9361" y2="30.8709" gradientUnits="userSpaceOnUse">
<stop stop-color="#028193"/>
<stop offset="1" stop-color="#FC6E63"/>
</linearGradient>
<linearGradient id="paint2_linear_251_8830" x1="31.9356" y1="40.4517" x2="31.9356" y2="42.5807" gradientUnits="userSpaceOnUse">
<stop stop-color="#028193"/>
<stop offset="1" stop-color="#FC6E63"/>
</linearGradient>
<linearGradient id="paint3_linear_251_8830" x1="31.9356" y1="44.7097" x2="31.9356" y2="46.8387" gradientUnits="userSpaceOnUse">
<stop stop-color="#028193"/>
<stop offset="1" stop-color="#FC6E63"/>
</linearGradient>
<linearGradient id="paint4_linear_251_8830" x1="31.9356" y1="48.9678" x2="31.9356" y2="51.0968" gradientUnits="userSpaceOnUse">
<stop stop-color="#028193"/>
<stop offset="1" stop-color="#FC6E63"/>
</linearGradient>
<linearGradient id="paint5_linear_251_8830" x1="31.9356" y1="53.2258" x2="31.9356" y2="55.3549" gradientUnits="userSpaceOnUse">
<stop stop-color="#028193"/>
<stop offset="1" stop-color="#FC6E63"/>
</linearGradient>
<linearGradient id="paint6_linear_251_8830" x1="31.9356" y1="57.4839" x2="31.9356" y2="59.6129" gradientUnits="userSpaceOnUse">
<stop stop-color="#028193"/>
<stop offset="1" stop-color="#FC6E63"/>
</linearGradient>
</defs>
</svg>
