<svg width="23" height="23" viewBox="0 0 23 23" fill="none" xmlns="http://www.w3.org/2000/svg">
<path d="M11.5001 10.0433V5.81705C11.5001 5.76922 11.4907 5.72187 11.4724 5.67769C11.4541 5.6335 11.4273 5.59336 11.3935 5.55954C11.3597 5.52573 11.3195 5.4989 11.2753 5.4806C11.2311 5.4623 11.1838 5.45288 11.136 5.45288H9.69846C9.65108 5.45286 9.60418 5.46234 9.56052 5.48076C9.51686 5.49917 9.47734 5.52615 9.44428 5.5601C9.41123 5.59405 9.38531 5.63428 9.36807 5.67841C9.35082 5.72254 9.3426 5.76968 9.34388 5.81705V7.8583L10.3022 10.0433H11.5001Z" fill="#002C32"/>
<path d="M8.4831 16.7805C8.12596 16.7786 7.7763 16.8829 7.47856 17.0801C7.18081 17.2773 6.9484 17.5586 6.81085 17.8882C6.6733 18.2178 6.63682 18.5809 6.70603 18.9312C6.77524 19.2816 6.94703 19.6035 7.19957 19.8561C7.45212 20.1086 7.77402 20.2804 8.1244 20.3496C8.47478 20.4188 8.83782 20.3823 9.16742 20.2448C9.49702 20.1072 9.77831 19.8748 9.97554 19.5771C10.1728 19.2793 10.2771 18.9297 10.2752 18.5725C10.2727 18.098 10.083 17.6437 9.74751 17.3081C9.41198 16.9726 8.95761 16.783 8.4831 16.7805ZM17.3764 16.7805C17.0193 16.7786 16.6696 16.8829 16.3719 17.0801C16.0741 17.2773 15.8417 17.5586 15.7042 17.8882C15.5666 18.2178 15.5302 18.5809 15.5994 18.9312C15.6686 19.2816 15.8404 19.6035 16.0929 19.8561C16.3455 20.1086 16.6674 20.2804 17.0177 20.3496C17.3681 20.4188 17.7312 20.3823 18.0608 20.2448C18.3904 20.1072 18.6716 19.8748 18.8689 19.5771C19.0661 19.2793 19.1704 18.9297 19.1685 18.5725C19.1685 18.0973 18.9797 17.6414 18.6436 17.3054C18.3075 16.9693 17.8517 16.7805 17.3764 16.7805ZM14.3002 4.8588C14.3002 4.76221 14.2618 4.66959 14.1935 4.60129C14.1252 4.533 14.0326 4.49463 13.936 4.49463H12.4602C12.4128 4.49461 12.3659 4.50409 12.3222 4.52251C12.2786 4.54092 12.2391 4.5679 12.206 4.60185C12.173 4.6358 12.147 4.67602 12.1298 4.72016C12.1125 4.76429 12.1043 4.81143 12.1056 4.8588V10.0434H14.2619L14.3002 4.8588Z" fill="#002C32"/>
<path d="M9.86245 12.1995L8.80828 14.3749H19.1679C19.3585 14.3749 19.5413 14.4506 19.6761 14.5854C19.8109 14.7202 19.8866 14.903 19.8866 15.0936C19.8866 15.2843 19.8109 15.4671 19.6761 15.6019C19.5413 15.7367 19.3585 15.8124 19.1679 15.8124H8.80828C8.56507 15.8135 8.32562 15.7524 8.11262 15.635C7.89963 15.5176 7.72015 15.3478 7.5912 15.1416C7.45919 14.9364 7.38273 14.7005 7.36929 14.4569C7.35585 14.2133 7.4059 13.9704 7.51453 13.752L8.6262 11.4999L5.21453 4.06323H3.14453C2.95391 4.06323 2.77109 3.98751 2.6363 3.85272C2.50151 3.71792 2.42578 3.53511 2.42578 3.34448C2.42578 3.15386 2.50151 2.97104 2.6363 2.83625C2.77109 2.70146 2.95391 2.62573 3.14453 2.62573H5.68411C5.8217 2.62627 5.95625 2.66629 6.07176 2.74104C6.18728 2.81578 6.27891 2.92211 6.33578 3.0474L9.87203 10.762H16.1299L19.2349 5.2324C19.2797 5.14787 19.341 5.07314 19.415 5.01258C19.4891 4.95201 19.5745 4.90684 19.6662 4.87971C19.7579 4.85258 19.8542 4.84404 19.9492 4.85458C20.0443 4.86512 20.1363 4.89454 20.2199 4.94111C20.3035 4.98767 20.3769 5.05045 20.4359 5.12576C20.4949 5.20108 20.5382 5.28741 20.5634 5.37969C20.5886 5.47198 20.5951 5.56837 20.5826 5.6632C20.57 5.75804 20.5387 5.84942 20.4904 5.93198L17.3758 11.4999C17.2528 11.7228 17.0724 11.9087 16.8533 12.0385C16.6343 12.1682 16.3845 12.237 16.1299 12.2378L9.86245 12.1995ZM17.1074 7.55157V3.00907C17.1075 2.96168 17.098 2.91478 17.0796 2.87112C17.0612 2.82747 17.0342 2.78794 17.0002 2.75489C16.9663 2.72183 16.9261 2.69592 16.8819 2.67867C16.8378 2.66143 16.7906 2.6532 16.7433 2.65448H15.3345C15.2876 2.65316 15.2409 2.66143 15.1973 2.67878C15.1537 2.69613 15.1141 2.7222 15.0809 2.75539C15.0477 2.78859 15.0216 2.82821 15.0042 2.87182C14.9869 2.91544 14.9786 2.96214 14.9799 3.00907V10.0432H15.737L17.1074 7.55157Z" fill="#002C32"/>
</svg>
