<svg width="35" height="35" viewBox="0 0 35 35" fill="none" xmlns="http://www.w3.org/2000/svg">
<path d="M17.4617 15.248V8.83146C17.4617 8.75886 17.4474 8.68696 17.4196 8.61988C17.3918 8.5528 17.3511 8.49185 17.2998 8.44051C17.2484 8.38916 17.1875 8.34844 17.1204 8.32065C17.0533 8.29287 16.9814 8.27856 16.9088 8.27856H14.7261C14.6541 8.27854 14.5829 8.29293 14.5166 8.32089C14.4504 8.34885 14.3903 8.38981 14.3402 8.44135C14.29 8.49289 14.2506 8.55397 14.2244 8.62098C14.1982 8.68798 14.1858 8.75955 14.1877 8.83146V11.9306L15.6428 15.248H17.4617Z" fill="#028193"/>
<path d="M12.879 25.4771C12.3368 25.4742 11.8059 25.6325 11.3538 25.932C10.9017 26.2315 10.5488 26.6585 10.3399 27.1589C10.1311 27.6594 10.0757 28.2106 10.1808 28.7425C10.2859 29.2745 10.5467 29.7632 10.9302 30.1467C11.3136 30.5301 11.8024 30.7909 12.3344 30.896C12.8664 31.0011 13.4177 30.9457 13.9181 30.7368C14.4186 30.528 14.8457 30.1751 15.1452 29.7231C15.4446 29.271 15.603 28.7402 15.6001 28.1979C15.5963 27.4775 15.3084 26.7876 14.7989 26.2782C14.2894 25.7688 13.5995 25.4809 12.879 25.4771ZM26.3826 25.4771C25.8403 25.4742 25.3094 25.6325 24.8573 25.932C24.4052 26.2315 24.0523 26.6585 23.8435 27.1589C23.6346 27.6594 23.5792 28.2106 23.6843 28.7425C23.7894 29.2745 24.0502 29.7632 24.4337 30.1467C24.8171 30.5301 25.3059 30.7909 25.8379 30.896C26.3699 31.0011 26.9212 30.9457 27.4216 30.7368C27.9221 30.528 28.3492 30.1751 28.6487 29.7231C28.9482 29.271 29.1065 28.7402 29.1037 28.1979C29.1037 27.4763 28.817 26.7843 28.3067 26.274C27.7964 25.7637 27.1042 25.4771 26.3826 25.4771ZM21.7116 7.37687C21.7116 7.23024 21.6534 7.0896 21.5497 6.98592C21.446 6.88223 21.3053 6.82397 21.1587 6.82397H18.9178C18.8459 6.82395 18.7746 6.83834 18.7084 6.8663C18.6421 6.89426 18.5821 6.93522 18.5319 6.98676C18.4817 7.0383 18.4423 7.09938 18.4161 7.16639C18.39 7.23339 18.3775 7.30496 18.3794 7.37687V15.2484H21.6534L21.7116 7.37687Z" fill="#028193"/>
<path d="M14.9753 18.522L13.3747 21.8249H29.1046C29.394 21.8249 29.6716 21.9398 29.8763 22.1445C30.0809 22.3491 30.1959 22.6267 30.1959 22.9161C30.1959 23.2055 30.0809 23.4831 29.8763 23.6878C29.6716 23.8924 29.394 24.0074 29.1046 24.0074H13.3747C13.0054 24.009 12.6418 23.9163 12.3184 23.7381C11.995 23.5598 11.7225 23.302 11.5267 22.9889C11.3263 22.6774 11.2102 22.3192 11.1898 21.9494C11.1694 21.5795 11.2453 21.2108 11.4103 20.8791L13.0982 17.4599L7.918 6.16907H4.77493C4.48549 6.16907 4.20791 6.0541 4.00324 5.84945C3.79857 5.6448 3.68359 5.36724 3.68359 5.07782C3.68359 4.7884 3.79857 4.51084 4.00324 4.30619C4.20791 4.10154 4.48549 3.98657 4.77493 3.98657H8.63101C8.83992 3.98739 9.04421 4.04815 9.21961 4.16163C9.395 4.27512 9.53414 4.43655 9.62049 4.62677L14.9899 16.3395H24.4918L29.2064 7.94417C29.2744 7.81584 29.3674 7.70237 29.4798 7.61042C29.5923 7.51847 29.7219 7.4499 29.8612 7.40871C30.0005 7.36751 30.1466 7.35454 30.291 7.37055C30.4354 7.38655 30.5751 7.43121 30.702 7.50191C30.8289 7.57261 30.9403 7.66793 31.0299 7.78227C31.1195 7.89662 31.1853 8.02769 31.2236 8.1678C31.2618 8.30792 31.2717 8.45426 31.2526 8.59825C31.2336 8.74223 31.186 8.88097 31.1126 9.00632L26.3835 17.4599C26.1967 17.7983 25.9228 18.0806 25.5902 18.2776C25.2576 18.4746 24.8784 18.5791 24.4918 18.5802L14.9753 18.522ZM25.9761 11.4653V4.56857C25.9761 4.49663 25.9617 4.42542 25.9337 4.35914C25.9058 4.29286 25.8648 4.23285 25.8133 4.18266C25.7617 4.13248 25.7006 4.09313 25.6336 4.06695C25.5666 4.04077 25.495 4.02828 25.4231 4.03022H23.2841C23.2128 4.02821 23.1419 4.04077 23.0757 4.06711C23.0095 4.09345 22.9493 4.13304 22.8989 4.18343C22.8485 4.23383 22.8089 4.29398 22.7826 4.3602C22.7562 4.42643 22.7437 4.49733 22.7457 4.56857V15.2483H23.8952L25.9761 11.4653Z" fill="#028193"/>
</svg>
