<svg width="42" height="42" viewBox="0 0 42 42" fill="none" xmlns="http://www.w3.org/2000/svg">
<path d="M20.5683 18.0892V10.5599C20.5683 10.4747 20.5515 10.3903 20.5189 10.3116C20.4863 10.2329 20.4385 10.1614 20.3782 10.1012C20.318 10.0409 20.2465 9.99312 20.1678 9.96052C20.089 9.92791 20.0047 9.91113 19.9195 9.91113H17.3585C17.2741 9.9111 17.1905 9.92799 17.1127 9.9608C17.035 9.99361 16.9646 10.0417 16.9057 10.1022C16.8468 10.1626 16.8006 10.2343 16.7699 10.3129C16.7392 10.3915 16.7245 10.4755 16.7268 10.5599V14.1965L18.4341 18.0892H20.5683Z" fill="#028193"/>
<path d="M15.1916 30.0912C14.5554 30.0878 13.9324 30.2736 13.402 30.625C12.8715 30.9764 12.4575 31.4775 12.2124 32.0647C11.9674 32.6519 11.9024 33.2987 12.0257 33.9229C12.149 34.5471 12.455 35.1206 12.905 35.5705C13.3549 36.0204 13.9284 36.3265 14.5526 36.4498C15.1768 36.5731 15.8236 36.5081 16.4108 36.263C16.998 36.018 17.4991 35.6039 17.8505 35.0735C18.2019 34.543 18.3877 33.9201 18.3843 33.2839C18.3798 32.4385 18.042 31.629 17.4442 31.0312C16.8465 30.4335 16.037 30.0957 15.1916 30.0912ZM31.0355 30.0912C30.3993 30.0878 29.7763 30.2736 29.2459 30.625C28.7154 30.9764 28.3014 31.4775 28.0563 32.0647C27.8113 32.6519 27.7463 33.2987 27.8696 33.9229C27.9929 34.5471 28.2989 35.1206 28.7489 35.5705C29.1988 36.0204 29.7723 36.3265 30.3965 36.4498C31.0207 36.5731 31.6675 36.5081 32.2547 36.263C32.8419 36.018 33.343 35.6039 33.6944 35.0735C34.0458 34.543 34.2316 33.9201 34.2282 33.2839C34.2282 32.4371 33.8918 31.625 33.2931 31.0263C32.6944 30.4275 31.8823 30.0912 31.0355 30.0912ZM25.555 8.85215C25.555 8.68008 25.4867 8.51506 25.365 8.39339C25.2434 8.27172 25.0783 8.20337 24.9063 8.20337H22.277C22.1926 8.20334 22.109 8.22023 22.0312 8.25303C21.9535 8.28584 21.8831 8.33391 21.8242 8.39439C21.7653 8.45487 21.7191 8.52653 21.6884 8.60516C21.6577 8.68378 21.643 8.76777 21.6453 8.85215V18.0887H25.4868L25.555 8.85215Z" fill="#028193"/>
<path d="M17.6472 21.9306L15.7692 25.8062H34.2253C34.5649 25.8062 34.8906 25.9411 35.1307 26.1813C35.3708 26.4214 35.5058 26.7471 35.5058 27.0867C35.5058 27.4263 35.3708 27.752 35.1307 27.9922C34.8906 28.2323 34.5649 28.3672 34.2253 28.3672H15.7692C15.3359 28.3691 14.9093 28.2604 14.5298 28.0512C14.1504 27.8421 13.8306 27.5395 13.6009 27.1721C13.3657 26.8066 13.2295 26.3863 13.2055 25.9523C13.1816 25.5184 13.2708 25.0856 13.4643 24.6965L15.4448 20.6843L9.36673 7.43549H5.67893C5.33932 7.43549 5.01362 7.30058 4.77348 7.06044C4.53335 6.8203 4.39844 6.49461 4.39844 6.155C4.39844 5.81539 4.53335 5.4897 4.77348 5.24956C5.01362 5.00942 5.33932 4.87451 5.67893 4.87451H10.2033C10.4484 4.87547 10.6881 4.94677 10.8939 5.07993C11.0997 5.21309 11.263 5.40253 11.3643 5.62573L17.6643 19.3696H28.8131L34.3448 9.51841C34.4246 9.36783 34.5336 9.23468 34.6656 9.12679C34.7975 9.0189 34.9496 8.93842 35.1131 8.89009C35.2765 8.84176 35.4479 8.82653 35.6173 8.84532C35.7867 8.8641 35.9506 8.9165 36.0995 8.99946C36.2484 9.08242 36.3792 9.19427 36.4843 9.32844C36.5894 9.46261 36.6666 9.61641 36.7115 9.78083C36.7564 9.94524 36.768 10.117 36.7456 10.2859C36.7233 10.4549 36.6674 10.6177 36.5814 10.7648L31.0326 20.6843C30.8134 21.0814 30.4921 21.4126 30.1018 21.6438C29.7116 21.8749 29.2666 21.9975 28.8131 21.9989L17.6472 21.9306ZM30.5545 13.6501V5.55744C30.5546 5.47303 30.5377 5.38946 30.5049 5.31169C30.4721 5.23391 30.424 5.1635 30.3635 5.10461C30.303 5.04572 30.2314 4.99955 30.1527 4.96883C30.0741 4.9381 29.9901 4.92345 29.9058 4.92573H27.396C27.3124 4.92337 27.2292 4.9381 27.1515 4.96902C27.0738 4.99993 27.0032 5.04637 26.9441 5.10551C26.8849 5.16465 26.8385 5.23523 26.8076 5.31293C26.7767 5.39064 26.7619 5.47384 26.7643 5.55744V18.0891H28.1131L30.5545 13.6501Z" fill="#028193"/>
</svg>
