<svg width="20" height="20" viewBox="0 0 20 20" fill="none" xmlns="http://www.w3.org/2000/svg">
<g clip-path="url(#clip0_383_5344)">
<path d="M2.67475 17.7502C2.78523 17.7502 2.87475 17.6607 2.87475 17.5502V11.9288C2.87475 11.8184 2.78523 11.7288 2.67475 11.7288H1.07475C1.04848 11.7288 1.02247 11.734 0.998204 11.7441C0.973936 11.7541 0.951887 11.7688 0.933314 11.7874C0.914741 11.806 0.900009 11.828 0.88996 11.8523C0.879911 11.8766 0.874741 11.9026 0.874747 11.9288V17.5502C0.874747 17.6607 0.964258 17.7502 1.07475 17.7502H2.67475ZM2.67475 18.5502H1.07475C0.522442 18.5502 0.0747466 18.1026 0.0747466 17.5502V11.9288C0.0747466 11.3765 0.522442 10.9288 1.07475 10.9288H2.67475C3.22705 10.9288 3.67475 11.3765 3.67475 11.9288V17.5502C3.67475 18.1026 3.22705 18.5502 2.67475 18.5502ZM8.11252 17.7502C8.22301 17.7502 8.31252 17.6607 8.31252 17.5502V10.768C8.31252 10.6576 8.22301 10.568 8.11252 10.568H6.51252C6.48625 10.568 6.46024 10.5732 6.43598 10.5833C6.41171 10.5933 6.38966 10.608 6.37109 10.6266C6.35251 10.6452 6.33778 10.6672 6.32773 10.6915C6.31768 10.7158 6.31251 10.7418 6.31252 10.768V17.5502C6.31252 17.6607 6.40203 17.7502 6.51252 17.7502H8.11252ZM8.11252 18.5502H6.51252C5.96022 18.5502 5.51252 18.1026 5.51252 17.5502V10.768C5.51252 10.2157 5.96022 9.76804 6.51252 9.76804H8.11252C8.66482 9.76804 9.11252 10.2157 9.11252 10.768V17.5502C9.11252 18.1026 8.66482 18.5502 8.11252 18.5502ZM13.5503 17.7623C13.6608 17.7623 13.7503 17.6728 13.7503 17.5623V9.61912C13.7503 9.50875 13.6607 9.41912 13.5503 9.41912H11.9503C11.8399 9.41912 11.7503 9.50875 11.7503 9.61912V17.5623C11.7503 17.6728 11.8398 17.7623 11.9503 17.7623H13.5503ZM13.5503 18.5623H11.9503C11.398 18.5623 10.9503 18.1146 10.9503 17.5623V9.61912C10.9503 9.06695 11.398 8.61912 11.9503 8.61912H13.5503C14.1026 8.61912 14.5503 9.06695 14.5503 9.61912V17.5623C14.5503 18.1146 14.1026 18.5623 13.5503 18.5623ZM18.9881 17.7624C19.0986 17.7624 19.1881 17.6728 19.1881 17.5624V8.61916C19.1881 8.50867 19.0986 8.41916 18.9881 8.41916H17.3881C17.3618 8.41915 17.3358 8.42432 17.3115 8.43437C17.2873 8.44442 17.2652 8.45915 17.2466 8.47772C17.2281 8.4963 17.2133 8.51835 17.2033 8.54261C17.1932 8.56688 17.1881 8.59289 17.1881 8.61916V17.5624C17.1881 17.6728 17.2776 17.7624 17.3881 17.7624H18.9881ZM18.9881 18.5624H17.3881C16.8358 18.5624 16.3881 18.1147 16.3881 17.5624V8.61916C16.3881 8.06685 16.8358 7.61916 17.3881 7.61916H18.9881C19.5404 7.61916 19.9881 8.06685 19.9881 8.61916V17.5624C19.9881 18.1147 19.5404 18.5624 18.9881 18.5624ZM18.8669 2.11896C13.23 5.29472 6.93881 7.16822 0.37586 7.56519C0.155352 7.57853 -0.0125971 7.7681 0.000742732 7.98861C0.0140826 8.20912 0.203653 8.37707 0.424161 8.36373C7.10885 7.95939 13.5177 6.05086 19.2596 2.81595C19.452 2.70752 19.5201 2.46359 19.4117 2.27111C19.3033 2.07863 19.0594 2.01052 18.8669 2.11896Z" fill="black"/>
<path d="M17.6025 2.1999L19.6023 2.20291C19.8232 2.20324 20.0026 2.02443 20.0029 1.80352C20.0033 1.5826 19.8245 1.40324 19.6035 1.40291L17.6037 1.3999C17.3828 1.39957 17.2035 1.57838 17.2031 1.7993C17.2028 2.02022 17.3816 2.19957 17.6025 2.1999Z" fill="black"/>
<path d="M19.2013 1.80187L19.1953 3.79068C19.1947 4.01159 19.3732 4.19122 19.5941 4.19189C19.815 4.19255 19.9947 4.01402 19.9953 3.7931L20.0013 1.80429C20.002 1.58337 19.8234 1.40374 19.6025 1.40308C19.3816 1.40241 19.202 1.58095 19.2013 1.80187Z" fill="black"/>
</g>
<defs>
<clipPath id="clip0_383_5344">
<rect width="20" height="20" fill="white"/>
</clipPath>
</defs>
</svg>
