<svg width="31" height="30" viewBox="0 0 31 30" fill="none" xmlns="http://www.w3.org/2000/svg">
<g clip-path="url(#clip0_393_9796)">
<path d="M4.71915 26.6254C4.88488 26.6254 5.01915 26.4911 5.01915 26.3254V17.8933C5.01915 17.7275 4.88488 17.5933 4.71915 17.5933H2.31915C2.27975 17.5933 2.24074 17.601 2.20434 17.6161C2.16794 17.6312 2.13486 17.6533 2.107 17.6811C2.07914 17.709 2.05705 17.7421 2.04197 17.7785C2.0269 17.8149 2.01914 17.8539 2.01915 17.8933V26.3254C2.01915 26.4911 2.15342 26.6254 2.31915 26.6254H4.71915ZM4.71915 27.8254H2.31915C1.49069 27.8254 0.819151 27.1538 0.819151 26.3254V17.8933C0.819151 17.0648 1.49069 16.3933 2.31915 16.3933H4.71915C5.54761 16.3933 6.21915 17.0648 6.21915 17.8933V26.3254C6.21915 27.1538 5.54761 27.8254 4.71915 27.8254ZM12.8758 26.6254C13.0415 26.6254 13.1758 26.4911 13.1758 26.3254V16.1521C13.1758 15.9863 13.0415 15.8521 12.8758 15.8521H10.4758C10.4364 15.8521 10.3974 15.8598 10.361 15.8749C10.3246 15.89 10.2915 15.9121 10.2637 15.9399C10.2358 15.9678 10.2137 16.0008 10.1986 16.0373C10.1836 16.0737 10.1758 16.1127 10.1758 16.1521V26.3254C10.1758 26.4911 10.3101 26.6254 10.4758 26.6254H12.8758ZM12.8758 27.8254H10.4758C9.64735 27.8254 8.97581 27.1538 8.97581 26.3254V16.1521C8.97581 15.3236 9.64735 14.6521 10.4758 14.6521H12.8758C13.7043 14.6521 14.3758 15.3236 14.3758 16.1521V26.3254C14.3758 27.1538 13.7043 27.8254 12.8758 27.8254ZM21.0325 26.6435C21.1982 26.6435 21.3325 26.5092 21.3325 26.3435V14.4287C21.3325 14.2631 21.1981 14.1287 21.0325 14.1287H18.6325C18.4669 14.1287 18.3325 14.2631 18.3325 14.4287V26.3435C18.3325 26.5092 18.4667 26.6435 18.6325 26.6435H21.0325ZM21.0325 27.8435H18.6325C17.804 27.8435 17.1325 27.1719 17.1325 26.3435V14.4287C17.1325 13.6004 17.8041 12.9287 18.6325 12.9287H21.0325C21.8609 12.9287 22.5325 13.6004 22.5325 14.4287V26.3435C22.5325 27.1719 21.8609 27.8435 21.0325 27.8435ZM29.1891 26.6435C29.3549 26.6435 29.4891 26.5093 29.4891 26.3435V12.9287C29.4891 12.763 29.3549 12.6287 29.1891 12.6287H26.7891C26.7497 12.6287 26.7107 12.6365 26.6743 12.6516C26.6379 12.6666 26.6048 12.6887 26.577 12.7166C26.5491 12.7444 26.527 12.7775 26.512 12.8139C26.4969 12.8503 26.4891 12.8893 26.4891 12.9287V26.3435C26.4891 26.5093 26.6234 26.6435 26.7891 26.6435H29.1891ZM29.1891 27.8435H26.7891C25.9607 27.8435 25.2891 27.172 25.2891 26.3435V12.9287C25.2891 12.1003 25.9607 11.4287 26.7891 11.4287H29.1891C30.0176 11.4287 30.6891 12.1003 30.6891 12.9287V26.3435C30.6891 27.172 30.0176 27.8435 29.1891 27.8435ZM29.0073 3.17844C20.5521 7.94208 11.1152 10.7523 1.27082 11.3478C0.940059 11.3678 0.688136 11.6522 0.708145 11.9829C0.728155 12.3137 1.01251 12.5656 1.34327 12.5456C11.3703 11.9391 20.9836 9.07628 29.5964 4.22393C29.8851 4.06127 29.9872 3.69539 29.8246 3.40666C29.6619 3.11794 29.2961 3.01579 29.0073 3.17844Z" fill="#028193"/>
<path d="M27.1089 3.29998L30.1086 3.30449C30.4399 3.30499 30.709 3.03677 30.7095 2.7054C30.71 2.37402 30.4418 2.10499 30.1104 2.10449L27.1107 2.09998C26.7793 2.09948 26.5103 2.36769 26.5098 2.69907C26.5093 3.03044 26.7775 3.29948 27.1089 3.29998Z" fill="#028193"/>
<path d="M29.511 2.70268L29.502 5.68589C29.501 6.01727 29.7688 6.28671 30.1001 6.28771C30.4315 6.2887 30.701 6.0209 30.702 5.68952L30.7109 2.70631C30.7119 2.37493 30.4441 2.10549 30.1128 2.10449C29.7814 2.1035 29.5119 2.3713 29.511 2.70268Z" fill="#028193"/>
</g>
<defs>
<clipPath id="clip0_393_9796">
<rect width="30" height="30" fill="white" transform="translate(0.707031)"/>
</clipPath>
</defs>
</svg>
