<svg width="28" height="29" viewBox="0 0 28 29" fill="none" xmlns="http://www.w3.org/2000/svg">
<path d="M27.2658 11.9449C24.9995 12.098 21.7664 14.338 20.1301 15.073C18.857 15.6461 17.7589 16.1405 16.8008 16.1405C15.812 16.1405 15.6633 15.4317 15.8689 13.8699C15.917 13.5199 16.3808 10.4049 14.0008 10.5405C12.9026 10.6061 11.1876 11.6255 6.58514 16.053L8.40077 11.5161C9.73077 8.19548 6.07327 4.88798 2.72639 7.0186L0.324516 8.63298C0.000766015 8.8386 -0.095484 9.27173 0.110141 9.59985L0.862641 10.7811C1.06827 11.1092 1.50139 11.2055 1.82952 10.9955L4.36702 9.2936C5.17202 8.78173 6.14764 9.6086 5.79764 10.4792L1.50139 21.2242C1.20389 21.9636 1.61952 23.1448 2.80077 23.1448C3.16389 23.1448 3.52264 23.0049 3.78952 22.7336C5.63577 20.8874 10.5576 16.1405 13.0295 14.1674C12.9333 15.4142 12.9376 16.7442 13.9308 17.8336C14.6001 18.5686 15.5626 18.9405 16.7964 18.9405C18.3539 18.9405 19.7714 18.3017 21.272 17.628C22.7158 16.9805 25.6033 14.8892 27.327 14.7492C27.6989 14.7186 27.992 14.4299 27.992 14.058V12.6536C28.0008 12.2555 27.6639 11.9186 27.2658 11.9449Z" fill="#9DD5DD"/>
</svg>
