<svg id="Layer_1" data-name="Layer 1" xmlns="http://www.w3.org/2000/svg" viewBox="0 0 1366 768"><defs><style>.cls-1{fill:#fff;}</style></defs><path class="cls-1" d="M552,242.76c-56.56,25.52-105.81,55-102.15,80.64,4.81,33.66,97.23,36.43,100.81,67.21,2,17.31-24.23,42.33-123.66,79.3"/><path class="cls-1" d="M604.51,394.76q-12.81,0-21.3-6.62t-8.48-16.54h10.61q0,4.51,5.65,7.58t14,3.08a28.75,28.75,0,0,0,12.89-2.63q5.28-2.62,5.28-6.72a6.14,6.14,0,0,0-2-4.52,15,15,0,0,0-5.75-3.23,63,63,0,0,0-6.72-1.94c-2-.44-4.47-.91-7.52-1.4q-11.38-1.94-18.22-7.48a17.74,17.74,0,0,1-6.83-14.47,19.07,19.07,0,0,1,8-15.87q8-6.09,19.83-6.09,12.13,0,20.25,6.41t8.11,15.76H621.74q0-4.09-5.17-6.88a31.21,31.21,0,0,0-25-.37q-4.86,2.42-4.86,6.41,0,7.39,20.43,10.56,26.58,4.41,26.58,22a19.86,19.86,0,0,1-8.38,16.6Q617,394.76,604.51,394.76Z"/><path class="cls-1" d="M645.48,393.45V319.22h10.19v74.23Z"/><path class="cls-1" d="M718.81,393.45,701,368.39H682v25.06H671.8V319.22h33.57a24.67,24.67,0,0,1,18,7,25.1,25.1,0,0,1,2.34,32.44A24,24,0,0,1,713,367.29l18.39,26.16ZM682,332.36v22.9h23q6.68,0,10.82-3.18a9.89,9.89,0,0,0,4.15-8.22,10,10,0,0,0-4.15-8.33q-4.16-3.16-10.82-3.17Z"/><path class="cls-1" d="M752.64,380.31h42.92v13.14H742.45V319.22H795v13.14H752.64V349.8h38.82v12.65H752.64Z"/><path class="cls-1" d="M862.48,319.22v13.14H837.84v61.09H827.6V332.36H803V319.22Z"/><path class="cls-1" d="M897.31,393.45V368l-29-48.75H880l20.91,32.83h2.47l21-32.83H936.7L907.55,368v25.48Z"/></svg>