<svg width="36" height="36" viewBox="0 0 36 36" fill="none" xmlns="http://www.w3.org/2000/svg">
<g clip-path="url(#clip0_380_3140)">
<path fill-rule="evenodd" clip-rule="evenodd" d="M12.7059 30.799L2.11764 29.3314V21.1764H12.7059V30.799ZM13.7647 19.0587H1.05885C0.474375 19.0587 1.875e-05 19.5331 1.875e-05 20.1175V30.2526C1.875e-05 30.782 0.389663 31.2288 0.914831 31.3008L13.6207 33.0627C13.6673 33.0712 13.7181 33.0733 13.7647 33.0733C14.0189 33.0733 14.2645 32.9823 14.4593 32.8128C14.6901 32.6117 14.8235 32.3216 14.8235 32.0145V20.1176C14.8235 19.5331 14.3492 19.0587 13.7647 19.0587L13.7647 19.0587ZM14.4593 3.18717C14.2285 2.986 13.9235 2.89071 13.6207 2.93729L0.914813 4.69917C0.389625 4.77117 0 5.218 0 5.7474V15.8825C0 16.467 0.474356 16.9413 1.05881 16.9413H13.7647C14.3492 16.9413 14.8235 16.467 14.8235 15.8825V3.98552C14.8235 3.67847 14.6901 3.38834 14.4593 3.18717ZM12.7059 14.8236H2.11764V6.66859L12.7059 5.20107V14.8236ZM35.6379 0.262711C35.4092 0.0594051 35.0979 -0.0316637 34.7993 0.00859256L17.8581 2.32107C17.333 2.39307 16.9412 2.842 16.9412 3.3714V15.8825C16.9412 16.467 17.4155 16.9413 18 16.9413H34.9412C35.5256 16.9413 36 16.467 36 15.8825V1.05893C36 0.751861 35.8666 0.461743 35.6379 0.262693V0.262711ZM33.8824 14.8236H19.0588V4.29471L33.8823 2.27234L33.8824 14.8236ZM34.9412 19.0594H18C17.4155 19.0594 16.9412 19.5316 16.9412 20.1182V32.6292C16.9412 33.1587 17.333 33.6055 17.8581 33.6796L34.7993 35.99C34.8459 35.9963 34.8946 36.0005 34.9412 36.0005C35.1953 36.0005 35.4431 35.9074 35.6379 35.7379C35.8666 35.5368 36 35.2467 36 34.9417V20.1182C36 19.5316 35.5256 19.0594 34.9412 19.0594L34.9412 19.0594ZM33.8824 33.7283L19.0588 31.7038V21.177H33.8824V33.7283Z" fill="white"/>
</g>
<defs>
<clipPath id="clip0_380_3140">
<rect width="36" height="36" fill="white"/>
</clipPath>
</defs>
</svg>
