<svg width="24" height="24" viewBox="0 0 24 24" fill="none" xmlns="http://www.w3.org/2000/svg">
<g clip-path="url(#clip0_380_1844)">
<path d="M22.1603 5.656C21.3969 5.9937 20.5873 6.21548 19.7583 6.314C20.6321 5.79144 21.2861 4.96902 21.5983 4C20.7783 4.488 19.8793 4.83 18.9423 5.015C18.313 4.34158 17.4787 3.89497 16.5693 3.74459C15.6599 3.59421 14.7263 3.74849 13.9136 4.18346C13.1009 4.61842 12.4547 5.30969 12.0755 6.1498C11.6962 6.9899 11.6051 7.93178 11.8163 8.829C10.1535 8.74566 8.52668 8.31353 7.04163 7.56067C5.55659 6.80781 4.24647 5.75105 3.19634 4.459C2.82463 5.09745 2.6293 5.82323 2.63034 6.562C2.63034 8.012 3.36834 9.293 4.49034 10.043C3.82635 10.0221 3.17698 9.84278 2.59634 9.52V9.572C2.59654 10.5377 2.93071 11.4736 3.54219 12.2211C4.15367 12.9685 5.00483 13.4815 5.95134 13.673C5.33496 13.84 4.68865 13.8647 4.06134 13.745C4.32821 14.5762 4.84835 15.3032 5.54894 15.8241C6.24952 16.345 7.09547 16.6338 7.96834 16.65C7.10082 17.3313 6.10752 17.835 5.04522 18.1322C3.98293 18.4294 2.87247 18.5143 1.77734 18.382C3.68904 19.6114 5.91444 20.2641 8.18734 20.262C15.8803 20.262 20.0873 13.889 20.0873 8.362C20.0873 8.182 20.0823 8 20.0743 7.822C20.8932 7.23017 21.5999 6.49702 22.1613 5.657L22.1603 5.656Z" fill="white"/>
</g>
<defs>
<clipPath id="clip0_380_1844">
<rect width="24" height="24" fill="white"/>
</clipPath>
</defs>
</svg>
